<?xml version="1.0" encoding="UTF-8" standalone="no"?>
<!DOCTYPE svg PUBLIC "-//W3C//DTD SVG 1.1//EN" "http://www.w3.org/Graphics/SVG/1.1/DTD/svg11.dtd">
<!-- Created with Linearity Curve (http://linearity.io/curve) -->
<svg height="1020.0px" stroke-miterlimit="10" style="fill-rule:nonzero;clip-rule:evenodd;stroke-linecap:round;stroke-linejoin:round;" version="1.1" viewBox="0 0 1020 1020" width="1020.0px" xml:space="preserve" xmlns="http://www.w3.org/2000/svg" xmlns:xlink="http://www.w3.org/1999/xlink">
<defs/>
<g id="Logo">
<g opacity="1">
<g opacity="1">
<path d="M283.002 505.41C263.087 505.41 150.466 472.919 142.167 481.217C125.203 498.182 166.42 586.99 185.667 618.284C244.35 713.697 411.656 789.528 542.208 775.847C679.431 761.468 777.243 710.859 846.342 594.404C862.007 568.002 893.379 513.947 877.446 482.081C876.39 479.969 868.067 481.217 866.214 481.217C834.205 481.217 800.065 492.45 766.852 492.45" fill="none" opacity="1" stroke="#3a2b24" stroke-linecap="round" stroke-linejoin="round" stroke-width="29.7053"/>
<path d="M747.844 574.531C754.985 554.169 759.354 531.392 762.532 512.322C769.466 470.719 766.755 433.975 759.94 393.088C758.705 385.675 750.974 334.334 739.204 334.334C715.799 334.334 642.644 374.406 617.377 387.039" fill="none" opacity="1" stroke="#3a2b24" stroke-linecap="round" stroke-linejoin="round" stroke-width="29.7053"/>
<path d="M518.015 773.255C542.225 747.951 562.859 722.103 575.04 705.862C616.007 651.239 655.091 564.632 645.026 494.178C634.629 421.4 601.267 351.159 556.896 291.997C552.048 285.533 511.348 239.17 504.191 242.748C485.289 252.199 465.19 276.041 446.135 300.06C383.015 379.626 346.964 489.213 381.654 586.628C388.754 606.565 414.387 673.302 436.797 696.691" fill="none" opacity="1" stroke="#3a2b24" stroke-linecap="round" stroke-linejoin="round" stroke-width="29.7053"/>
<path d="M255.354 428.512C255.354 419.965 257.006 403.213 263.989 382.245C271.712 359.055 280.637 336.265 281.244 336.062C284.26 335.057 317.405 343.102 343.689 358.48C365.825 371.43 379.667 382.245 389.324 390.737" fill="none" opacity="1" stroke="#3a2b24" stroke-linecap="round" stroke-linejoin="round" stroke-width="29.7053"/>
</g>
<path d="M37.012 509.173C37.012 247.949 248.776 36.1847 510 36.1847C771.224 36.1847 982.988 247.949 982.988 509.173C982.988 770.397 771.224 982.161 510 982.161C248.776 982.161 37.012 770.397 37.012 509.173Z" fill="none" opacity="0.992624" stroke="#3a2b24" stroke-linecap="butt" stroke-linejoin="round" stroke-width="28.9966"/>
</g>
</g>
</svg>
