<?xml version="1.0" encoding="UTF-8" standalone="no"?>
<!DOCTYPE svg PUBLIC "-//W3C//DTD SVG 1.1//EN" "http://www.w3.org/Graphics/SVG/1.1/DTD/svg11.dtd">
<!-- Created with Linearity Curve (http://linearity.io/curve) -->
<svg height="1020.0px" stroke-miterlimit="10" style="fill-rule:nonzero;clip-rule:evenodd;stroke-linecap:round;stroke-linejoin:round;" version="1.1" viewBox="0 0 1020 1020" width="1020.0000000000002px" xml:space="preserve" xmlns="http://www.w3.org/2000/svg" xmlns:xlink="http://www.w3.org/1999/xlink">
<defs/>
<g id="Logo">
<g opacity="1">
<path d="M393.294 528.084C382.48 528.084 321.325 510.441 316.819 514.947C307.607 524.159 329.988 572.383 340.439 589.376C372.305 641.187 463.154 682.364 534.046 674.935C608.559 667.127 661.673 639.646 699.194 576.409C707.701 562.073 724.736 532.72 716.084 515.417C715.511 514.27 710.991 514.947 709.985 514.947C692.604 514.947 674.065 521.047 656.03 521.047" fill="none" opacity="1" stroke="#ffffff" stroke-linecap="round" stroke-linejoin="round" stroke-width="16.1304"/>
<path d="M645.709 565.618C649.587 554.561 651.959 542.193 653.685 531.838C657.45 509.246 655.977 489.294 652.277 467.092C651.606 463.067 647.408 435.188 641.017 435.188C628.308 435.188 588.584 456.948 574.864 463.808" fill="none" opacity="1" stroke="#ffffff" stroke-linecap="round" stroke-linejoin="round" stroke-width="16.1304"/>
<path d="M520.909 673.528C534.055 659.787 545.26 645.751 551.874 636.932C574.12 607.271 595.342 560.243 589.877 521.985C584.231 482.466 566.115 444.324 542.021 412.199C539.389 408.688 517.288 383.513 513.402 385.456C503.138 390.588 492.224 403.534 481.877 416.577C447.602 459.782 428.026 519.289 446.863 572.186C450.718 583.013 464.638 619.252 476.806 631.953" fill="none" opacity="1" stroke="#ffffff" stroke-linecap="round" stroke-linejoin="round" stroke-width="16.1304"/>
<path d="M378.28 486.328C378.28 481.687 379.177 472.59 382.969 461.204C387.163 448.612 392.009 436.236 392.339 436.126C393.977 435.581 411.975 439.949 426.248 448.299C438.267 455.331 445.784 461.204 451.028 465.815" fill="none" opacity="1" stroke="#ffffff" stroke-linecap="round" stroke-linejoin="round" stroke-width="16.1304"/>
<path d="M37.012 509.173C37.012 247.949 248.776 36.1847 510 36.1847C771.224 36.1847 982.988 247.949 982.988 509.173C982.988 770.397 771.224 982.161 510 982.161C248.776 982.161 37.012 770.397 37.012 509.173Z" fill="none" opacity="0.992624" stroke="#ffffff" stroke-linecap="butt" stroke-linejoin="round" stroke-width="10.8291"/>
<path d="M20 510C20 239.38 239.38 20 510 20C780.62 20 1000 239.38 1000 510C1000 780.62 780.62 1000 510 1000C239.38 1000 20 780.62 20 510Z" fill="none" opacity="1" stroke="#ffffff" stroke-linecap="butt" stroke-linejoin="round" stroke-width="6.11806"/>
<path d="M444.689 973.192C444.689 965.988 431.45 872.271 404.18 818.696C393.386 797.489 389.207 791.003 387.698 788.375C371.225 759.677 371.551 758.683 364.339 746.663C353.229 728.146 342.328 680.657 310.949 686.933C279.821 693.158 314.739 744.567 322.294 759.677C324.433 763.955 333.385 775.615 328.301 780.7C311.866 797.134 267.556 774.186 250.551 765.684C202.156 741.486 180.09 685.518 163.458 636.545C157.451 618.86 138.101 614.687 129.755 618.86C120.798 623.338 123.111 638.215 124.279 645.221C128.211 668.815 139.038 697.081 151.569 717.966C185.784 774.99 243.617 831.432 274.105 849.103C284.753 855.274 302.149 867.463 320.969 875.822C337.858 883.323 355.892 886.486 371.225 900.382C385.757 913.552 380.79 947.347 380.79 958.717" fill="none" opacity="1" stroke="#ffffff" stroke-linecap="round" stroke-linejoin="round" stroke-width="16.1304"/>
<path d="M574.864 974.5C574.864 967.297 588.102 872.271 615.373 818.696C626.167 797.489 630.346 791.003 631.855 788.375C648.328 759.677 648.001 758.683 655.214 746.663C666.324 728.146 677.225 680.657 708.604 686.933C739.731 693.158 704.814 744.567 697.258 759.677C695.12 763.955 686.168 775.615 691.252 780.7C707.687 797.134 751.997 774.186 769.002 765.684C817.397 741.486 839.463 685.518 856.095 636.545C862.101 618.86 881.452 614.687 889.798 618.86C898.754 623.338 896.442 638.215 895.274 645.221C891.342 668.815 880.515 697.081 867.984 717.966C833.769 774.99 775.936 831.432 745.447 849.103C734.8 855.274 717.403 867.463 698.583 875.822C681.695 883.323 663.661 886.486 648.328 900.382C633.796 913.552 638.763 947.347 638.763 958.717" fill="none" opacity="1" stroke="#ffffff" stroke-linecap="round" stroke-linejoin="round" stroke-width="16.1304"/>
</g>
</g>
</svg>
