<?xml version="1.0" encoding="UTF-8" standalone="no"?>
<!DOCTYPE svg PUBLIC "-//W3C//DTD SVG 1.1//EN" "http://www.w3.org/Graphics/SVG/1.1/DTD/svg11.dtd">
<!-- Created with Linearity Curve (http://linearity.io/curve) -->
<svg height="48.0px" stroke-miterlimit="10" style="fill-rule:nonzero;clip-rule:evenodd;stroke-linecap:round;stroke-linejoin:round;" version="1.1" viewBox="0 0 48 48" width="48.0px" xml:space="preserve" xmlns="http://www.w3.org/2000/svg" xmlns:xlink="http://www.w3.org/1999/xlink">
<defs/>
<g id="Logo">
<path d="M18.5717 24.8796C18.0687 24.8796 15.2242 24.059 15.0146 24.2686C14.5861 24.6971 15.6271 26.9401 16.1133 27.7305C17.5954 30.1404 21.8211 32.0556 25.1184 31.7101C28.5843 31.3469 31.0547 30.0687 32.8 27.1274C33.1956 26.4605 33.988 25.0953 33.5856 24.2904C33.5589 24.2371 33.3487 24.2686 33.3019 24.2686C32.4934 24.2686 31.6311 24.5523 30.7923 24.5523" fill="none" opacity="1" stroke="#4a3a33" stroke-linecap="round" stroke-linejoin="round" stroke-width="1.83333"/>
<path d="M30.3122 26.6254C30.4926 26.1111 30.6029 25.5359 30.6832 25.0542C30.8583 24.0034 30.7898 23.0754 30.6177 22.0427C30.5865 21.8555 30.3913 20.5588 30.094 20.5588C29.5028 20.5588 27.6551 21.5709 27.017 21.8899" fill="none" opacity="1" stroke="#4a3a33" stroke-linecap="round" stroke-linejoin="round" stroke-width="1.83333"/>
<path d="M24.5074 31.6446C25.1189 31.0055 25.64 30.3527 25.9477 29.9425C26.9824 28.5628 27.9695 26.3754 27.7153 24.5959C27.4527 22.7578 26.6101 20.9837 25.4894 19.4895C25.367 19.3262 24.339 18.1552 24.1582 18.2456C23.6808 18.4843 23.1732 19.0864 22.6919 19.6931C21.0977 21.7027 20.1872 24.4705 21.0633 26.9309C21.2426 27.4345 21.8901 29.1201 22.4561 29.7108" fill="none" opacity="1" stroke="#4a3a33" stroke-linecap="round" stroke-linejoin="round" stroke-width="1.83333"/>
<path d="M17.8733 22.9374C17.8733 22.7216 17.9151 22.2984 18.0914 21.7689C18.2865 21.1831 18.5119 20.6075 18.5272 20.6024C18.6034 20.577 19.4406 20.7802 20.1044 21.1686C20.6635 21.4957 21.0131 21.7689 21.257 21.9833" fill="none" opacity="1" stroke="#4a3a33" stroke-linecap="round" stroke-linejoin="round" stroke-width="1.83333"/>
<path d="M2 24C2 11.8497 11.8497 2 24 2C36.1503 2 46 11.8497 46 24C46 36.1503 36.1503 46 24 46C11.8497 46 2 36.1503 2 24Z" fill="none" opacity="0.992624" stroke="#4a3a33" stroke-linecap="butt" stroke-linejoin="round" stroke-width="1.83333"/>
<path d="M26.827 45.34C26.827 45.0049 27.1779 40.585 28.4464 38.093C28.9484 37.1067 29.121 36.805 29.1912 36.6827C29.9574 35.3479 29.9085 35.3017 30.244 34.7426C30.7608 33.8813 31.5881 31.6725 33.0476 31.9644C34.4954 32.2539 32.8713 34.6451 32.5199 35.3479C32.4204 35.5469 32.004 36.0892 32.2405 36.3257C33.0049 37.0902 35.2319 35.9735 35.8569 35.3479C37.7952 33.4078 38.4169 31.9644 39.9078 29.6207C40.3741 28.8877 41.0873 28.604 41.4754 28.7981C41.892 29.0064 41.7845 29.6984 41.7302 30.0243C41.5473 31.1217 41.0437 32.4364 40.4608 33.4078C38.8694 36.0602 36.1794 38.6854 34.7613 39.5073C34.266 39.7944 33.4569 40.3613 32.5815 40.7501C31.796 41.099 30.9572 41.2462 30.244 41.8925C29.5681 42.5051 29.7991 44.077 29.7991 44.6058" fill="none" opacity="1" stroke="#4a3a33" stroke-linecap="round" stroke-linejoin="round" stroke-width="1.83333"/>
<path d="M21.0869 45.0743C21.0869 44.7392 20.7359 40.3193 19.4675 37.8274C18.9654 36.841 18.7929 36.5393 18.7227 36.4171C17.9565 35.0823 18.0053 35.0361 17.6698 34.477C17.1531 33.6157 16.3258 31.4068 14.8662 31.6987C13.4184 31.9883 15.0425 34.3795 15.3939 35.0823C15.4934 35.2813 15.9098 35.8236 15.6733 36.0601C14.9089 36.8245 12.682 35.7079 12.057 35.0823C10.1186 33.1422 9.4969 31.6987 8.00601 29.3551C7.53972 28.6221 6.82658 28.3384 6.43841 28.5325C6.02181 28.7408 6.12937 29.4327 6.18369 29.7586C6.36659 30.856 6.87019 32.1708 7.45303 33.1422C9.04445 35.7945 11.7344 38.4198 13.1525 39.2417C13.6478 39.5287 14.457 40.0957 15.3323 40.4845C16.1178 40.8334 16.9567 40.9805 17.6698 41.6269C18.3458 42.2394 18.1147 43.8113 18.1147 44.3402" fill="none" opacity="1" stroke="#4a3a33" stroke-linecap="round" stroke-linejoin="round" stroke-width="1.83333"/>
</g>
</svg>
