<?xml version="1.0" encoding="UTF-8" standalone="no"?>
<!DOCTYPE svg PUBLIC "-//W3C//DTD SVG 1.1//EN" "http://www.w3.org/Graphics/SVG/1.1/DTD/svg11.dtd">
<!-- Created with Linearity Curve (http://linearity.io/curve) -->
<svg height="1020.0px" stroke-miterlimit="10" style="fill-rule:nonzero;clip-rule:evenodd;stroke-linecap:round;stroke-linejoin:round;" version="1.1" viewBox="0 0 1020 1020" width="1020.0px" xml:space="preserve" xmlns="http://www.w3.org/2000/svg" xmlns:xlink="http://www.w3.org/1999/xlink">
<defs>
<filter color-interpolation-filters="sRGB" filterUnits="userSpaceOnUse" height="19.9892" id="Filter" width="45.2364" x="778.289" y="957.777">
<feGaussianBlur in="SourceGraphic" result="Blur" stdDeviation="0.0579268"/>
</filter>
<filter color-interpolation-filters="sRGB" filterUnits="userSpaceOnUse" height="16.7411" id="Filter_2" width="11.5911" x="805.411" y="949.541">
<feGaussianBlur in="SourceGraphic" result="Blur" stdDeviation="0.0579268"/>
</filter>
<filter color-interpolation-filters="sRGB" filterUnits="userSpaceOnUse" height="33.1828" id="Filter_3" width="18.9068" x="791.307" y="944.346">
<feGaussianBlur in="SourceGraphic" result="Blur" stdDeviation="0.0579268"/>
</filter>
<filter color-interpolation-filters="sRGB" filterUnits="userSpaceOnUse" height="8.38391" id="Filter_4" width="10.729" x="784.922" y="949.634">
<feGaussianBlur in="SourceGraphic" result="Blur" stdDeviation="0.0579268"/>
</filter>
<filter color-interpolation-filters="sRGB" filterUnits="userSpaceOnUse" height="93.8529" id="Filter_5" width="1071.51" x="423.707" y="812.26">
<feGaussianBlur in="SourceGraphic" result="Blur" stdDeviation="0.368506"/>
</filter>
</defs>
<clipPath id="ArtboardFrame">
<rect height="1020" width="1020" x="0" y="0"/>
</clipPath>
<g clip-path="url(#ArtboardFrame)" id="Subtitle" visibility="hidden">
<g opacity="1">
<g opacity="1">
<path d="M788.06 960.797C786.933 960.797 780.559 958.958 780.089 959.427C779.129 960.388 781.462 965.414 782.551 967.185C785.872 972.585 795.341 976.877 802.73 976.103C810.497 975.289 816.032 972.424 819.943 965.833C820.83 964.339 822.605 961.28 821.704 959.476C821.644 959.357 821.173 959.427 821.068 959.427C819.256 959.427 817.324 960.063 815.444 960.063" fill="none" filter="url(#Filter)" opacity="1" stroke="#000000" stroke-linecap="round" stroke-linejoin="round" stroke-width="2.85717"/>
<path d="M814.369 964.709C814.773 963.556 815.02 962.267 815.2 961.188C815.592 958.833 815.439 956.754 815.053 954.44C814.983 954.02 814.546 951.114 813.88 951.114C812.555 951.114 808.415 953.382 806.985 954.097" fill="none" filter="url(#Filter_2)" opacity="1" stroke="#000000" stroke-linecap="round" stroke-linejoin="round" stroke-width="2.85717"/>
<path d="M801.361 975.956C802.731 974.524 803.899 973.061 804.588 972.142C806.907 969.05 809.119 964.148 808.549 960.161C807.961 956.042 806.073 952.067 803.562 948.718C803.287 948.352 800.984 945.728 800.579 945.931C799.509 946.466 798.371 947.815 797.293 949.175C793.72 953.678 791.68 959.88 793.643 965.393C794.045 966.522 795.496 970.299 796.764 971.623" fill="none" filter="url(#Filter_3)" opacity="1" stroke="#000000" stroke-linecap="round" stroke-linejoin="round" stroke-width="2.85717"/>
<path d="M786.495 956.445C786.495 955.961 786.589 955.013 786.984 953.826C787.421 952.513 787.926 951.224 787.961 951.212C788.131 951.155 790.007 951.611 791.495 952.481C792.748 953.214 793.531 953.826 794.078 954.307" fill="none" filter="url(#Filter_4)" opacity="1" stroke="#000000" stroke-linecap="round" stroke-linejoin="round" stroke-width="2.85717"/>
</g>
<g fill="#000000" opacity="1" stroke="none">
<path d="M554.966 978.056L554.966 943.135L561.153 943.135L569.825 965.283C570.028 965.799 570.259 966.439 570.517 967.205C570.774 967.971 571.052 968.791 571.349 969.666C571.646 970.541 571.927 971.408 572.192 972.267C572.458 973.127 572.685 973.908 572.872 974.611L571.888 974.611C572.091 973.939 572.325 973.181 572.591 972.338C572.857 971.494 573.134 970.631 573.423 969.748C573.712 968.865 573.993 968.029 574.267 967.24C574.54 966.451 574.778 965.799 574.982 965.283L583.513 943.135L589.724 943.135L589.724 978.056L585.388 978.056L585.388 958.041C585.388 957.322 585.392 956.506 585.399 955.592C585.407 954.678 585.423 953.728 585.446 952.744C585.47 951.76 585.493 950.756 585.517 949.732C585.54 948.709 585.56 947.721 585.575 946.767L585.997 946.767C585.669 947.846 585.317 948.931 584.942 950.025C584.567 951.119 584.208 952.174 583.864 953.189C583.521 954.205 583.196 955.127 582.892 955.955C582.587 956.783 582.325 957.478 582.107 958.041L574.232 978.056L570.458 978.056L562.466 958.041C562.247 957.494 561.993 956.814 561.704 956.002C561.415 955.189 561.095 954.283 560.743 953.283C560.392 952.283 560.024 951.228 559.642 950.119C559.259 949.01 558.872 947.892 558.482 946.767L558.974 946.767C559.005 947.642 559.032 948.576 559.056 949.568C559.079 950.56 559.099 951.56 559.114 952.568C559.13 953.576 559.146 954.549 559.161 955.486C559.177 956.424 559.185 957.275 559.185 958.041L559.185 978.056L554.966 978.056Z"/>
<path d="M604.7 978.619C603.044 978.619 601.548 978.314 600.212 977.705C598.876 977.096 597.814 976.197 597.024 975.01C596.235 973.822 595.841 972.377 595.841 970.674C595.841 969.189 596.134 967.986 596.72 967.064C597.306 966.142 598.087 965.412 599.064 964.873C600.04 964.334 601.126 963.931 602.321 963.666C603.517 963.4 604.724 963.189 605.942 963.033C607.521 962.83 608.79 962.674 609.751 962.564C610.712 962.455 611.423 962.271 611.884 962.013C612.345 961.756 612.575 961.306 612.575 960.666L612.575 960.502C612.575 959.455 612.368 958.556 611.954 957.806C611.54 957.056 610.927 956.482 610.114 956.084C609.302 955.685 608.294 955.486 607.091 955.486C605.857 955.486 604.798 955.678 603.915 956.06C603.032 956.443 602.314 956.935 601.759 957.537C601.204 958.138 600.817 958.775 600.599 959.447L596.544 958.392C597.075 956.814 597.88 955.545 598.958 954.584C600.036 953.623 601.274 952.92 602.673 952.474C604.071 952.029 605.513 951.806 606.997 951.806C607.997 951.806 609.06 951.935 610.185 952.193C611.31 952.451 612.368 952.9 613.36 953.541C614.353 954.181 615.161 955.092 615.786 956.271C616.411 957.451 616.724 958.971 616.724 960.83L616.724 978.056L612.622 978.056L612.622 974.494L612.388 974.494C612.091 975.103 611.622 975.728 610.982 976.369C610.341 977.01 609.505 977.545 608.474 977.974C607.442 978.404 606.185 978.619 604.7 978.619ZM605.38 974.916C606.958 974.916 608.278 974.615 609.341 974.013C610.403 973.412 611.208 972.627 611.755 971.658C612.302 970.689 612.575 969.674 612.575 968.611L612.575 965.096C612.403 965.283 612.048 965.455 611.509 965.611C610.97 965.767 610.345 965.908 609.634 966.033C608.923 966.158 608.22 966.263 607.524 966.349C606.829 966.435 606.239 966.51 605.755 966.572C604.755 966.697 603.817 966.912 602.942 967.217C602.067 967.521 601.364 967.963 600.833 968.541C600.302 969.119 600.036 969.9 600.036 970.885C600.036 971.76 600.267 972.498 600.728 973.099C601.189 973.701 601.817 974.154 602.614 974.459C603.411 974.763 604.333 974.916 605.38 974.916Z"/>
<path d="M632.638 978.619C630.857 978.619 629.263 978.349 627.857 977.81C626.45 977.271 625.294 976.471 624.388 975.408C623.482 974.346 622.896 973.033 622.63 971.471L626.614 970.721C626.942 972.174 627.618 973.248 628.642 973.943C629.665 974.638 630.982 974.986 632.591 974.986C634.388 974.986 635.821 974.599 636.892 973.826C637.962 973.053 638.497 972.127 638.497 971.049C638.497 970.142 638.173 969.392 637.524 968.799C636.876 968.205 635.927 967.767 634.677 967.486L630.388 966.455C628.028 965.908 626.271 965.045 625.114 963.865C623.958 962.685 623.38 961.181 623.38 959.353C623.38 957.869 623.79 956.56 624.61 955.428C625.431 954.295 626.56 953.408 627.997 952.767C629.435 952.127 631.075 951.806 632.919 951.806C634.7 951.806 636.232 952.088 637.513 952.65C638.794 953.213 639.829 953.994 640.618 954.994C641.407 955.994 641.958 957.15 642.271 958.463L638.45 959.236C638.169 958.221 637.595 957.318 636.728 956.529C635.86 955.74 634.599 955.346 632.942 955.346C631.38 955.346 630.095 955.705 629.087 956.424C628.079 957.142 627.575 958.049 627.575 959.142C627.575 960.111 627.927 960.885 628.63 961.463C629.333 962.041 630.411 962.502 631.864 962.846L635.825 963.783C638.2 964.346 639.954 965.209 641.087 966.373C642.22 967.537 642.786 969.017 642.786 970.814C642.786 972.346 642.357 973.697 641.497 974.869C640.638 976.041 639.446 976.959 637.923 977.623C636.399 978.287 634.638 978.619 632.638 978.619Z"/>
<path d="M657.411 978.619C655.63 978.619 654.036 978.349 652.63 977.81C651.224 977.271 650.067 976.471 649.161 975.408C648.255 974.346 647.669 973.033 647.403 971.471L651.388 970.721C651.716 972.174 652.392 973.248 653.415 973.943C654.439 974.638 655.755 974.986 657.364 974.986C659.161 974.986 660.595 974.599 661.665 973.826C662.735 973.053 663.271 972.127 663.271 971.049C663.271 970.142 662.946 969.392 662.298 968.799C661.649 968.205 660.7 967.767 659.45 967.486L655.161 966.455C652.802 965.908 651.044 965.045 649.888 963.865C648.732 962.685 648.153 961.181 648.153 959.353C648.153 957.869 648.564 956.56 649.384 955.428C650.204 954.295 651.333 953.408 652.771 952.767C654.208 952.127 655.849 951.806 657.692 951.806C659.474 951.806 661.005 952.088 662.286 952.65C663.567 953.213 664.603 953.994 665.392 954.994C666.181 955.994 666.732 957.15 667.044 958.463L663.224 959.236C662.942 958.221 662.368 957.318 661.501 956.529C660.634 955.74 659.372 955.346 657.716 955.346C656.153 955.346 654.868 955.705 653.86 956.424C652.853 957.142 652.349 958.049 652.349 959.142C652.349 960.111 652.7 960.885 653.403 961.463C654.107 962.041 655.185 962.502 656.638 962.846L660.599 963.783C662.974 964.346 664.728 965.209 665.86 966.373C666.993 967.537 667.56 969.017 667.56 970.814C667.56 972.346 667.13 973.697 666.271 974.869C665.411 976.041 664.22 976.959 662.696 977.623C661.173 978.287 659.411 978.619 657.411 978.619Z"/>
<path d="M680.732 978.619C679.075 978.619 677.579 978.314 676.243 977.705C674.907 977.096 673.845 976.197 673.056 975.01C672.267 973.822 671.872 972.377 671.872 970.674C671.872 969.189 672.165 967.986 672.751 967.064C673.337 966.142 674.118 965.412 675.095 964.873C676.071 964.334 677.157 963.931 678.353 963.666C679.548 963.4 680.755 963.189 681.974 963.033C683.552 962.83 684.821 962.674 685.782 962.564C686.743 962.455 687.454 962.271 687.915 962.013C688.376 961.756 688.607 961.306 688.607 960.666L688.607 960.502C688.607 959.455 688.399 958.556 687.985 957.806C687.571 957.056 686.958 956.482 686.146 956.084C685.333 955.685 684.325 955.486 683.122 955.486C681.888 955.486 680.829 955.678 679.946 956.06C679.064 956.443 678.345 956.935 677.79 957.537C677.235 958.138 676.849 958.775 676.63 959.447L672.575 958.392C673.107 956.814 673.911 955.545 674.989 954.584C676.067 953.623 677.306 952.92 678.704 952.474C680.103 952.029 681.544 951.806 683.028 951.806C684.028 951.806 685.091 951.935 686.216 952.193C687.341 952.451 688.399 952.9 689.392 953.541C690.384 954.181 691.192 955.092 691.817 956.271C692.442 957.451 692.755 958.971 692.755 960.83L692.755 978.056L688.653 978.056L688.653 974.494L688.419 974.494C688.122 975.103 687.653 975.728 687.013 976.369C686.372 977.01 685.536 977.545 684.505 977.974C683.474 978.404 682.216 978.619 680.732 978.619ZM681.411 974.916C682.989 974.916 684.31 974.615 685.372 974.013C686.435 973.412 687.239 972.627 687.786 971.658C688.333 970.689 688.607 969.674 688.607 968.611L688.607 965.096C688.435 965.283 688.079 965.455 687.54 965.611C687.001 965.767 686.376 965.908 685.665 966.033C684.954 966.158 684.251 966.263 683.556 966.349C682.86 966.435 682.271 966.51 681.786 966.572C680.786 966.697 679.849 966.912 678.974 967.217C678.099 967.521 677.396 967.963 676.864 968.541C676.333 969.119 676.067 969.9 676.067 970.885C676.067 971.76 676.298 972.498 676.759 973.099C677.22 973.701 677.849 974.154 678.646 974.459C679.442 974.763 680.364 974.916 681.411 974.916Z"/>
<path d="M712.38 988.369C710.474 988.369 708.802 988.115 707.364 987.607C705.927 987.099 704.739 986.404 703.802 985.521C702.864 984.638 702.161 983.642 701.692 982.533L705.255 980.822C705.599 981.416 706.052 982.013 706.614 982.615C707.177 983.217 707.923 983.717 708.853 984.115C709.782 984.513 710.958 984.713 712.38 984.713C714.489 984.713 716.208 984.197 717.536 983.166C718.864 982.135 719.528 980.549 719.528 978.408L719.528 973.486L719.224 973.486C718.849 974.08 718.364 974.717 717.771 975.396C717.177 976.076 716.38 976.65 715.38 977.119C714.38 977.588 713.107 977.822 711.56 977.822C709.45 977.822 707.567 977.318 705.911 976.31C704.255 975.303 702.95 973.842 701.997 971.928C701.044 970.013 700.567 967.713 700.567 965.025C700.567 962.353 701.036 960.029 701.974 958.053C702.911 956.076 704.212 954.541 705.876 953.447C707.54 952.353 709.458 951.806 711.63 951.806C713.177 951.806 714.45 952.056 715.45 952.556C716.45 953.056 717.255 953.658 717.864 954.361C718.474 955.064 718.958 955.713 719.317 956.306L719.622 956.306L719.622 952.181L723.677 952.181L723.677 978.596C723.677 980.877 723.173 982.74 722.165 984.185C721.157 985.631 719.798 986.689 718.087 987.361C716.376 988.033 714.474 988.369 712.38 988.369ZM712.239 974.119C713.817 974.119 715.157 973.752 716.259 973.017C717.36 972.283 718.196 971.228 718.767 969.853C719.337 968.478 719.622 966.846 719.622 964.955C719.622 963.096 719.341 961.459 718.778 960.045C718.216 958.631 717.384 957.525 716.282 956.728C715.181 955.931 713.833 955.533 712.239 955.533C710.63 955.533 709.271 955.943 708.161 956.763C707.052 957.584 706.212 958.701 705.642 960.115C705.071 961.529 704.786 963.142 704.786 964.955C704.786 966.799 705.075 968.408 705.653 969.783C706.232 971.158 707.075 972.224 708.185 972.982C709.294 973.74 710.646 974.119 712.239 974.119Z"/>
<path d="M741.583 978.619C739.083 978.619 736.927 978.056 735.114 976.931C733.302 975.806 731.911 974.244 730.942 972.244C729.974 970.244 729.489 967.924 729.489 965.283C729.489 962.642 729.97 960.306 730.931 958.275C731.892 956.244 733.251 954.658 735.009 953.517C736.767 952.377 738.81 951.806 741.138 951.806C742.607 951.806 744.021 952.053 745.38 952.545C746.739 953.037 747.958 953.81 749.036 954.865C750.114 955.92 750.966 957.275 751.591 958.931C752.216 960.588 752.528 962.564 752.528 964.861L752.528 966.478L732.185 966.478L732.185 962.963L750.255 962.963L748.357 964.228C748.357 962.525 748.079 961.017 747.524 959.705C746.97 958.392 746.157 957.365 745.087 956.623C744.017 955.881 742.7 955.51 741.138 955.51C739.591 955.51 738.259 955.885 737.142 956.635C736.024 957.385 735.169 958.381 734.575 959.623C733.982 960.865 733.685 962.228 733.685 963.713L733.685 965.916C733.685 967.806 734.009 969.424 734.657 970.767C735.306 972.111 736.228 973.135 737.423 973.838C738.618 974.541 740.013 974.892 741.607 974.892C742.669 974.892 743.626 974.736 744.478 974.424C745.329 974.111 746.06 973.65 746.669 973.041C747.278 972.431 747.739 971.681 748.052 970.791L752.107 971.681C751.716 973.041 751.036 974.244 750.067 975.291C749.099 976.338 747.892 977.154 746.446 977.74C745.001 978.326 743.38 978.619 741.583 978.619Z"/>
</g>
<g fill="#000000" opacity="1" stroke="none">
<path d="M859.228 978.056L850.791 978.056L850.791 974.166L858.947 974.166C861.791 974.166 864.15 973.619 866.025 972.525C867.9 971.431 869.299 969.865 870.221 967.826C871.143 965.787 871.603 963.353 871.603 960.525C871.603 957.728 871.146 955.322 870.232 953.306C869.318 951.291 867.959 949.74 866.154 948.654C864.35 947.568 862.088 947.025 859.369 947.025L850.603 947.025L850.603 943.135L859.674 943.135C863.08 943.135 865.99 943.83 868.404 945.221C870.818 946.611 872.67 948.607 873.959 951.209C875.248 953.81 875.893 956.916 875.893 960.525C875.893 964.166 875.244 967.295 873.947 969.912C872.65 972.529 870.76 974.541 868.275 975.947C865.791 977.353 862.775 978.056 859.228 978.056ZM852.76 943.135L852.76 978.056L848.353 978.056L848.353 943.135L852.76 943.135Z"/>
<path d="M884.127 978.056L884.127 952.181L888.135 952.181L888.135 956.166L888.369 956.166C888.853 954.853 889.689 953.799 890.877 953.002C892.064 952.205 893.432 951.806 894.978 951.806C895.307 951.806 895.674 951.814 896.08 951.83C896.486 951.846 896.799 951.861 897.018 951.877L897.018 956.072C896.893 956.041 896.584 955.994 896.092 955.931C895.6 955.869 895.072 955.838 894.51 955.838C893.338 955.838 892.279 956.088 891.334 956.588C890.389 957.088 889.646 957.791 889.107 958.697C888.568 959.603 888.299 960.674 888.299 961.908L888.299 978.056L884.127 978.056Z"/>
<path d="M910.83 978.619C909.174 978.619 907.678 978.314 906.342 977.705C905.006 977.096 903.943 976.197 903.154 975.01C902.365 973.822 901.971 972.377 901.971 970.674C901.971 969.189 902.264 967.986 902.85 967.064C903.436 966.142 904.217 965.412 905.193 964.873C906.17 964.334 907.256 963.931 908.451 963.666C909.646 963.4 910.853 963.189 912.072 963.033C913.65 962.83 914.92 962.674 915.881 962.564C916.842 962.455 917.553 962.271 918.014 962.013C918.475 961.756 918.705 961.306 918.705 960.666L918.705 960.502C918.705 959.455 918.498 958.556 918.084 957.806C917.67 957.056 917.057 956.482 916.244 956.084C915.432 955.685 914.424 955.486 913.221 955.486C911.986 955.486 910.928 955.678 910.045 956.06C909.162 956.443 908.443 956.935 907.889 957.537C907.334 958.138 906.947 958.775 906.728 959.447L902.674 958.392C903.205 956.814 904.01 955.545 905.088 954.584C906.166 953.623 907.404 952.92 908.803 952.474C910.201 952.029 911.643 951.806 913.127 951.806C914.127 951.806 915.189 951.935 916.314 952.193C917.439 952.451 918.498 952.9 919.49 953.541C920.482 954.181 921.291 955.092 921.916 956.271C922.541 957.451 922.853 958.971 922.853 960.83L922.853 978.056L918.752 978.056L918.752 974.494L918.518 974.494C918.221 975.103 917.752 975.728 917.111 976.369C916.471 977.01 915.635 977.545 914.603 977.974C913.572 978.404 912.314 978.619 910.83 978.619ZM911.51 974.916C913.088 974.916 914.408 974.615 915.471 974.013C916.533 973.412 917.338 972.627 917.885 971.658C918.432 970.689 918.705 969.674 918.705 968.611L918.705 965.096C918.533 965.283 918.178 965.455 917.639 965.611C917.1 965.767 916.475 965.908 915.764 966.033C915.053 966.158 914.35 966.263 913.654 966.349C912.959 966.435 912.369 966.51 911.885 966.572C910.885 966.697 909.947 966.912 909.072 967.217C908.197 967.521 907.494 967.963 906.963 968.541C906.432 969.119 906.166 969.9 906.166 970.885C906.166 971.76 906.396 972.498 906.857 973.099C907.318 973.701 907.947 974.154 908.744 974.459C909.541 974.763 910.463 974.916 911.51 974.916Z"/>
<path d="M931.932 978.056L931.932 952.181L936.103 952.181L936.103 978.056L931.932 978.056ZM934.018 947.775C933.236 947.775 932.561 947.502 931.99 946.955C931.42 946.408 931.135 945.752 931.135 944.986C931.135 944.221 931.42 943.568 931.99 943.029C932.561 942.49 933.236 942.221 934.018 942.221C934.814 942.221 935.498 942.49 936.068 943.029C936.639 943.568 936.924 944.221 936.924 944.986C936.924 945.752 936.639 946.408 936.068 946.955C935.498 947.502 934.814 947.775 934.018 947.775Z"/>
<path d="M949.353 962.635L949.353 978.056L945.182 978.056L945.182 952.181L949.189 952.181L949.213 958.439L948.51 958.439C949.307 956.064 950.439 954.365 951.908 953.342C953.377 952.318 955.103 951.806 957.088 951.806C958.838 951.806 960.381 952.17 961.717 952.896C963.053 953.623 964.1 954.717 964.857 956.178C965.615 957.638 965.994 959.478 965.994 961.697L965.994 978.056L961.822 978.056L961.822 962.025C961.822 959.994 961.299 958.412 960.252 957.279C959.205 956.146 957.768 955.58 955.939 955.58C954.689 955.58 953.568 955.846 952.576 956.377C951.584 956.908 950.799 957.697 950.221 958.744C949.643 959.791 949.353 961.088 949.353 962.635Z"/>
<path d="M982.455 978.619C980.799 978.619 979.303 978.314 977.967 977.705C976.631 977.096 975.568 976.197 974.779 975.01C973.99 973.822 973.596 972.377 973.596 970.674C973.596 969.189 973.889 967.986 974.475 967.064C975.061 966.142 975.842 965.412 976.818 964.873C977.795 964.334 978.881 963.931 980.076 963.666C981.271 963.4 982.478 963.189 983.697 963.033C985.275 962.83 986.545 962.674 987.506 962.564C988.467 962.455 989.178 962.271 989.639 962.013C990.1 961.756 990.33 961.306 990.33 960.666L990.33 960.502C990.33 959.455 990.123 958.556 989.709 957.806C989.295 957.056 988.682 956.482 987.869 956.084C987.057 955.685 986.049 955.486 984.846 955.486C983.611 955.486 982.553 955.678 981.67 956.06C980.787 956.443 980.068 956.935 979.514 957.537C978.959 958.138 978.572 958.775 978.353 959.447L974.299 958.392C974.83 956.814 975.635 955.545 976.713 954.584C977.791 953.623 979.029 952.92 980.428 952.474C981.826 952.029 983.268 951.806 984.752 951.806C985.752 951.806 986.814 951.935 987.939 952.193C989.064 952.451 990.123 952.9 991.115 953.541C992.107 954.181 992.916 955.092 993.541 956.271C994.166 957.451 994.478 958.971 994.478 960.83L994.478 978.056L990.377 978.056L990.377 974.494L990.143 974.494C989.846 975.103 989.377 975.728 988.736 976.369C988.096 977.01 987.26 977.545 986.228 977.974C985.197 978.404 983.939 978.619 982.455 978.619ZM983.135 974.916C984.713 974.916 986.033 974.615 987.096 974.013C988.158 973.412 988.963 972.627 989.51 971.658C990.057 970.689 990.33 969.674 990.33 968.611L990.33 965.096C990.158 965.283 989.803 965.455 989.264 965.611C988.725 965.767 988.1 965.908 987.389 966.033C986.678 966.158 985.975 966.263 985.279 966.349C984.584 966.435 983.994 966.51 983.51 966.572C982.51 966.697 981.572 966.912 980.697 967.217C979.822 967.521 979.119 967.963 978.588 968.541C978.057 969.119 977.791 969.9 977.791 970.885C977.791 971.76 978.021 972.498 978.482 973.099C978.943 973.701 979.572 974.154 980.369 974.459C981.166 974.763 982.088 974.916 983.135 974.916Z"/>
<path d="M1014.1 988.369C1012.2 988.369 1010.53 988.115 1009.09 987.607C1007.65 987.099 1006.46 986.404 1005.53 985.521C1004.59 984.638 1003.88 983.642 1003.42 982.533L1006.98 980.822C1007.32 981.416 1007.78 982.013 1008.34 982.615C1008.9 983.217 1009.65 983.717 1010.58 984.115C1011.51 984.513 1012.68 984.713 1014.1 984.713C1016.21 984.713 1017.93 984.197 1019.26 983.166C1020.59 982.135 1021.25 980.549 1021.25 978.408L1021.25 973.486L1020.95 973.486C1020.57 974.08 1020.09 974.717 1019.49 975.396C1018.9 976.076 1018.1 976.65 1017.1 977.119C1016.1 977.588 1014.83 977.822 1013.28 977.822C1011.17 977.822 1009.29 977.318 1007.63 976.31C1005.98 975.303 1004.67 973.842 1003.72 971.928C1002.77 970.013 1002.29 967.713 1002.29 965.025C1002.29 962.353 1002.76 960.029 1003.7 958.053C1004.63 956.076 1005.94 954.541 1007.6 953.447C1009.26 952.353 1011.18 951.806 1013.35 951.806C1014.9 951.806 1016.17 952.056 1017.17 952.556C1018.17 953.056 1018.98 953.658 1019.59 954.361C1020.2 955.064 1020.68 955.713 1021.04 956.306L1021.35 956.306L1021.35 952.181L1025.4 952.181L1025.4 978.596C1025.4 980.877 1024.9 982.74 1023.89 984.185C1022.88 985.631 1021.52 986.689 1019.81 987.361C1018.1 988.033 1016.2 988.369 1014.1 988.369ZM1013.96 974.119C1015.54 974.119 1016.88 973.752 1017.98 973.017C1019.08 972.283 1019.92 971.228 1020.49 969.853C1021.06 968.478 1021.35 966.846 1021.35 964.955C1021.35 963.096 1021.06 961.459 1020.5 960.045C1019.94 958.631 1019.11 957.525 1018.01 956.728C1016.9 955.931 1015.56 955.533 1013.96 955.533C1012.35 955.533 1010.99 955.943 1009.88 956.763C1008.78 957.584 1007.94 958.701 1007.37 960.115C1006.79 961.529 1006.51 963.142 1006.51 964.955C1006.51 966.799 1006.8 968.408 1007.38 969.783C1007.96 971.158 1008.8 972.224 1009.91 972.982C1011.02 973.74 1012.37 974.119 1013.96 974.119Z"/>
<path d="M1045.31 978.619C1042.81 978.619 1040.65 978.056 1038.84 976.931C1037.03 975.806 1035.63 974.244 1034.67 972.244C1033.7 970.244 1033.21 967.924 1033.21 965.283C1033.21 962.642 1033.69 960.306 1034.65 958.275C1035.62 956.244 1036.97 954.658 1038.73 953.517C1040.49 952.377 1042.53 951.806 1044.86 951.806C1046.33 951.806 1047.74 952.053 1049.1 952.545C1050.46 953.037 1051.68 953.81 1052.76 954.865C1053.84 955.92 1054.69 957.275 1055.31 958.931C1055.94 960.588 1056.25 962.564 1056.25 964.861L1056.25 966.478L1035.91 966.478L1035.91 962.963L1053.98 962.963L1052.08 964.228C1052.08 962.525 1051.8 961.017 1051.25 959.705C1050.69 958.392 1049.88 957.365 1048.81 956.623C1047.74 955.881 1046.42 955.51 1044.86 955.51C1043.31 955.51 1041.98 955.885 1040.87 956.635C1039.75 957.385 1038.89 958.381 1038.3 959.623C1037.71 960.865 1037.41 962.228 1037.41 963.713L1037.41 965.916C1037.41 967.806 1037.73 969.424 1038.38 970.767C1039.03 972.111 1039.95 973.135 1041.15 973.838C1042.34 974.541 1043.74 974.892 1045.33 974.892C1046.39 974.892 1047.35 974.736 1048.2 974.424C1049.05 974.111 1049.78 973.65 1050.39 973.041C1051 972.431 1051.46 971.681 1051.78 970.791L1055.83 971.681C1055.44 973.041 1054.76 974.244 1053.79 975.291C1052.82 976.338 1051.62 977.154 1050.17 977.74C1048.72 978.326 1047.1 978.619 1045.31 978.619Z"/>
<path d="M1083.31 943.135L1083.31 978.056L1079.14 978.056L1079.14 943.135L1083.31 943.135Z"/>
<path d="M1092.35 987.619L1093.17 983.986L1094.06 984.08C1094.84 984.252 1095.55 984.275 1096.19 984.15C1096.83 984.025 1097.4 983.681 1097.91 983.119C1098.42 982.556 1098.87 981.713 1099.26 980.588L1100.15 978.127L1090.24 952.181L1094.78 952.181L1100.31 967.439C1100.88 968.955 1101.36 970.467 1101.77 971.974C1102.17 973.482 1102.6 974.947 1103.03 976.369L1101.6 976.369C1102.04 974.947 1102.47 973.482 1102.88 971.974C1103.29 970.467 1103.78 968.955 1104.32 967.439L1109.88 952.181L1114.38 952.181L1102.89 982.111C1102.39 983.439 1101.78 984.541 1101.05 985.416C1100.33 986.291 1099.48 986.939 1098.52 987.361C1097.56 987.783 1096.48 987.994 1095.28 987.994C1094.6 987.994 1094.01 987.951 1093.49 987.865C1092.98 987.779 1092.6 987.697 1092.35 987.619Z"/>
<path d="M1121.06 978.056L1121.06 952.181L1125.12 952.181L1125.14 957.853L1124.77 957.853C1125.16 956.478 1125.74 955.338 1126.51 954.431C1127.29 953.525 1128.19 952.846 1129.23 952.392C1130.27 951.939 1131.35 951.713 1132.48 951.713C1134.38 951.713 1135.95 952.291 1137.17 953.447C1138.38 954.603 1139.17 956.088 1139.51 957.9L1138.88 957.9C1139.21 956.65 1139.78 955.56 1140.59 954.631C1141.4 953.701 1142.39 952.982 1143.55 952.474C1144.72 951.967 1145.99 951.713 1147.38 951.713C1148.9 951.713 1150.28 952.041 1151.53 952.697C1152.78 953.353 1153.78 954.346 1154.52 955.674C1155.26 957.002 1155.63 958.681 1155.63 960.713L1155.63 978.056L1151.46 978.056L1151.46 960.806C1151.46 958.9 1150.93 957.541 1149.87 956.728C1148.81 955.916 1147.57 955.51 1146.17 955.51C1144.98 955.51 1143.96 955.756 1143.11 956.248C1142.26 956.74 1141.6 957.42 1141.13 958.287C1140.66 959.154 1140.42 960.142 1140.42 961.252L1140.42 978.056L1136.28 978.056L1136.28 960.385C1136.28 958.916 1135.79 957.736 1134.81 956.846C1133.83 955.955 1132.6 955.51 1131.12 955.51C1130.09 955.51 1129.12 955.748 1128.22 956.224C1127.33 956.701 1126.6 957.412 1126.06 958.357C1125.51 959.303 1125.24 960.471 1125.24 961.861L1125.24 978.056L1121.06 978.056Z"/>
<path d="M1164.71 987.853L1164.71 952.181L1168.74 952.181L1168.74 956.26L1169.12 956.26C1169.46 955.681 1169.93 955.049 1170.53 954.361C1171.12 953.674 1171.92 953.076 1172.92 952.568C1173.92 952.06 1175.2 951.806 1176.76 951.806C1178.95 951.806 1180.87 952.353 1182.51 953.447C1184.16 954.541 1185.46 956.088 1186.39 958.088C1187.33 960.088 1187.8 962.447 1187.8 965.166C1187.8 967.9 1187.33 970.271 1186.4 972.279C1185.47 974.287 1184.19 975.842 1182.54 976.943C1180.89 978.045 1178.97 978.596 1176.78 978.596C1175.27 978.596 1174.01 978.342 1173 977.834C1171.99 977.326 1171.19 976.721 1170.58 976.017C1169.98 975.314 1169.5 974.666 1169.14 974.072L1168.88 974.072L1168.88 987.853L1164.71 987.853ZM1176.15 974.869C1177.74 974.869 1179.09 974.447 1180.19 973.603C1181.29 972.76 1182.13 971.603 1182.7 970.135C1183.27 968.666 1183.56 967.002 1183.56 965.142C1183.56 963.283 1183.28 961.631 1182.71 960.185C1182.15 958.74 1181.32 957.603 1180.22 956.775C1179.12 955.947 1177.76 955.533 1176.15 955.533C1174.56 955.533 1173.21 955.935 1172.12 956.74C1171.03 957.545 1170.19 958.666 1169.62 960.103C1169.05 961.541 1168.77 963.221 1168.77 965.142C1168.77 967.064 1169.05 968.756 1169.62 970.217C1170.19 971.678 1171.03 972.818 1172.14 973.638C1173.25 974.459 1174.59 974.869 1176.15 974.869Z"/>
<path d="M1199.78 962.635L1199.78 978.056L1195.61 978.056L1195.61 943.135L1199.78 943.135L1199.78 958.439L1198.94 958.439C1199.74 956.064 1200.87 954.365 1202.34 953.342C1203.81 952.318 1205.53 951.806 1207.52 951.806C1209.27 951.806 1210.81 952.17 1212.16 952.896C1213.5 953.623 1214.55 954.717 1215.31 956.178C1216.07 957.638 1216.45 959.478 1216.45 961.697L1216.45 978.056L1212.25 978.056L1212.25 962.025C1212.25 959.994 1211.73 958.412 1210.68 957.279C1209.63 956.146 1208.2 955.58 1206.37 955.58C1205.12 955.58 1204 955.846 1203.01 956.377C1202.01 956.908 1201.23 957.697 1200.65 958.744C1200.07 959.791 1199.78 961.088 1199.78 962.635Z"/>
<path d="M1232.91 978.619C1231.25 978.619 1229.76 978.314 1228.42 977.705C1227.08 977.096 1226.02 976.197 1225.23 975.01C1224.44 973.822 1224.05 972.377 1224.05 970.674C1224.05 969.189 1224.34 967.986 1224.93 967.064C1225.51 966.142 1226.29 965.412 1227.27 964.873C1228.25 964.334 1229.33 963.931 1230.53 963.666C1231.72 963.4 1232.93 963.189 1234.15 963.033C1235.73 962.83 1237 962.674 1237.96 962.564C1238.92 962.455 1239.63 962.271 1240.09 962.013C1240.55 961.756 1240.78 961.306 1240.78 960.666L1240.78 960.502C1240.78 959.455 1240.58 958.556 1240.16 957.806C1239.75 957.056 1239.13 956.482 1238.32 956.084C1237.51 955.685 1236.5 955.486 1235.3 955.486C1234.06 955.486 1233.01 955.678 1232.12 956.06C1231.24 956.443 1230.52 956.935 1229.97 957.537C1229.41 958.138 1229.03 958.775 1228.81 959.447L1224.75 958.392C1225.28 956.814 1226.09 955.545 1227.17 954.584C1228.24 953.623 1229.48 952.92 1230.88 952.474C1232.28 952.029 1233.72 951.806 1235.21 951.806C1236.21 951.806 1237.27 951.935 1238.39 952.193C1239.52 952.451 1240.58 952.9 1241.57 953.541C1242.56 954.181 1243.37 955.092 1243.99 956.271C1244.62 957.451 1244.93 958.971 1244.93 960.83L1244.93 978.056L1240.83 978.056L1240.83 974.494L1240.6 974.494C1240.3 975.103 1239.83 975.728 1239.19 976.369C1238.55 977.01 1237.71 977.545 1236.68 977.974C1235.65 978.404 1234.39 978.619 1232.91 978.619ZM1233.59 974.916C1235.17 974.916 1236.49 974.615 1237.55 974.013C1238.61 973.412 1239.42 972.627 1239.96 971.658C1240.51 970.689 1240.78 969.674 1240.78 968.611L1240.78 965.096C1240.61 965.283 1240.26 965.455 1239.72 965.611C1239.18 965.767 1238.55 965.908 1237.84 966.033C1237.13 966.158 1236.43 966.263 1235.73 966.349C1235.04 966.435 1234.45 966.51 1233.96 966.572C1232.96 966.697 1232.03 966.912 1231.15 967.217C1230.28 967.521 1229.57 967.963 1229.04 968.541C1228.51 969.119 1228.24 969.9 1228.24 970.885C1228.24 971.76 1228.47 972.498 1228.94 973.099C1229.4 973.701 1230.03 974.154 1230.82 974.459C1231.62 974.763 1232.54 974.916 1233.59 974.916Z"/>
<path d="M1264.44 952.181L1264.44 955.744L1250.92 955.744L1250.92 952.181L1264.44 952.181ZM1254.95 945.83L1259.12 945.83L1259.12 971.447C1259.12 972.556 1259.35 973.365 1259.81 973.873C1260.27 974.381 1261.05 974.635 1262.14 974.635C1262.42 974.635 1262.77 974.611 1263.19 974.564C1263.6 974.517 1263.98 974.471 1264.32 974.424L1265 977.939C1264.56 978.064 1264.08 978.158 1263.54 978.221C1263 978.283 1262.47 978.314 1261.96 978.314C1259.72 978.314 1257.99 977.744 1256.78 976.603C1255.56 975.463 1254.95 973.853 1254.95 971.775L1254.95 945.83Z"/>
<path d="M1271.55 978.056L1271.55 952.181L1275.72 952.181L1275.72 978.056L1271.55 978.056ZM1273.63 947.775C1272.85 947.775 1272.18 947.502 1271.61 946.955C1271.04 946.408 1270.75 945.752 1270.75 944.986C1270.75 944.221 1271.04 943.568 1271.61 943.029C1272.18 942.49 1272.85 942.221 1273.63 942.221C1274.43 942.221 1275.12 942.49 1275.69 943.029C1276.26 943.568 1276.54 944.221 1276.54 944.986C1276.54 945.752 1276.26 946.408 1275.69 946.955C1275.12 947.502 1274.43 947.775 1273.63 947.775Z"/>
<path d="M1306.62 987.853L1302.45 987.853L1302.45 974.072L1302.19 974.072C1301.83 974.666 1301.35 975.314 1300.74 976.017C1300.13 976.721 1299.33 977.326 1298.33 977.834C1297.34 978.342 1296.08 978.596 1294.55 978.596C1292.38 978.596 1290.46 978.045 1288.81 976.943C1287.15 975.842 1285.86 974.287 1284.93 972.279C1284 970.271 1283.53 967.9 1283.53 965.166C1283.53 962.447 1284 960.088 1284.93 958.088C1285.86 956.088 1287.15 954.541 1288.82 953.447C1290.48 952.353 1292.39 951.806 1294.55 951.806C1296.11 951.806 1297.39 952.06 1298.39 952.568C1299.39 953.076 1300.19 953.674 1300.79 954.361C1301.4 955.049 1301.87 955.681 1302.21 956.26L1302.59 956.26L1302.59 952.181L1306.62 952.181L1306.62 987.853ZM1295.16 974.869C1296.74 974.869 1298.08 974.459 1299.18 973.638C1300.28 972.818 1301.12 971.678 1301.7 970.217C1302.28 968.756 1302.56 967.064 1302.56 965.142C1302.56 963.221 1302.28 961.541 1301.71 960.103C1301.14 958.666 1300.3 957.545 1299.2 956.74C1298.1 955.935 1296.75 955.533 1295.16 955.533C1293.56 955.533 1292.22 955.947 1291.12 956.775C1290.01 957.603 1289.18 958.74 1288.61 960.185C1288.04 961.631 1287.75 963.283 1287.75 965.142C1287.75 967.002 1288.04 968.666 1288.61 970.135C1289.18 971.603 1290.02 972.76 1291.13 973.603C1292.24 974.447 1293.58 974.869 1295.16 974.869Z"/>
<path d="M1324.63 978.408C1322.88 978.408 1321.33 978.045 1319.99 977.318C1318.64 976.592 1317.59 975.498 1316.83 974.037C1316.08 972.576 1315.7 970.744 1315.7 968.541L1315.7 952.181L1319.87 952.181L1319.87 968.189C1319.87 970.236 1320.4 971.826 1321.45 972.959C1322.51 974.092 1323.95 974.658 1325.78 974.658C1327.01 974.658 1328.12 974.388 1329.12 973.849C1330.11 973.31 1330.89 972.517 1331.47 971.471C1332.05 970.424 1332.34 969.135 1332.34 967.603L1332.34 952.181L1336.53 952.181L1336.53 978.056L1332.5 978.056L1332.5 971.775L1333.18 971.775C1332.37 974.181 1331.22 975.888 1329.74 976.896C1328.25 977.904 1326.55 978.408 1324.63 978.408Z"/>
<path d="M1356.44 978.619C1353.94 978.619 1351.78 978.056 1349.97 976.931C1348.16 975.806 1346.77 974.244 1345.8 972.244C1344.83 970.244 1344.35 967.924 1344.35 965.283C1344.35 962.642 1344.83 960.306 1345.79 958.275C1346.75 956.244 1348.11 954.658 1349.87 953.517C1351.62 952.377 1353.67 951.806 1355.99 951.806C1357.46 951.806 1358.88 952.053 1360.24 952.545C1361.6 953.037 1362.81 953.81 1363.89 954.865C1364.97 955.92 1365.82 957.275 1366.45 958.931C1367.07 960.588 1367.38 962.564 1367.38 964.861L1367.38 966.478L1347.04 966.478L1347.04 962.963L1365.11 962.963L1363.21 964.228C1363.21 962.525 1362.94 961.017 1362.38 959.705C1361.83 958.392 1361.01 957.365 1359.94 956.623C1358.87 955.881 1357.56 955.51 1355.99 955.51C1354.45 955.51 1353.12 955.885 1352 956.635C1350.88 957.385 1350.03 958.381 1349.43 959.623C1348.84 960.865 1348.54 962.228 1348.54 963.713L1348.54 965.916C1348.54 967.806 1348.87 969.424 1349.51 970.767C1350.16 972.111 1351.08 973.135 1352.28 973.838C1353.47 974.541 1354.87 974.892 1356.46 974.892C1357.53 974.892 1358.48 974.736 1359.33 974.424C1360.19 974.111 1360.92 973.65 1361.53 973.041C1362.13 972.431 1362.6 971.681 1362.91 970.791L1366.96 971.681C1366.57 973.041 1365.89 974.244 1364.92 975.291C1363.96 976.338 1362.75 977.154 1361.3 977.74C1359.86 978.326 1358.24 978.619 1356.44 978.619Z"/>
</g>
<path d="M1385.65 969.674L1425.65 969.674" fill="none" opacity="1" stroke="#000000" stroke-linecap="butt" stroke-linejoin="round" stroke-width="2.83818"/>
<path d="M494.351 965.584L534.351 965.584" fill="none" opacity="1" stroke="#000000" stroke-linecap="butt" stroke-linejoin="round" stroke-width="2.83818"/>
</g>
</g>
<g clip-path="url(#ArtboardFrame)" id="Title" visibility="hidden">
<g opacity="1">
<path d="M320 871.556L400.001 871.556" fill="none" opacity="1" stroke="#000000" stroke-linecap="butt" stroke-linejoin="round" stroke-width="5.95418"/>
<path d="M1520 871.556L1600 871.556" fill="none" opacity="1" stroke="#000000" stroke-linecap="butt" stroke-linejoin="round" stroke-width="5.95418"/>
<g fill="#000000" filter="url(#Filter_5)" opacity="1" stroke="#000000" stroke-linecap="butt" stroke-linejoin="round" stroke-width="0">
<path d="M452.698 825.717L452.698 827.919C450.203 827.992 448.314 828.268 447.03 828.745C445.746 829.222 444.884 830.103 444.444 831.387C444.003 832.671 443.784 834.671 443.784 837.386L443.793 891.981C443.793 894.622 444.014 896.603 444.454 897.924C444.895 899.245 445.757 900.107 447.041 900.51C448.326 900.914 450.215 901.115 452.71 901.115L460.745 901.114C464.194 901.113 467.001 900.746 469.165 900.012C471.33 899.277 473.054 898.121 474.338 896.544C475.622 894.966 476.594 892.856 477.254 890.214C477.914 887.572 478.427 884.343 478.793 880.528L481.325 880.527C481.105 882.802 480.995 885.811 480.996 889.553C480.996 890.947 481.052 892.947 481.162 895.552C481.273 898.157 481.475 900.853 481.769 903.642C478.026 903.496 473.807 903.405 469.111 903.369C464.414 903.333 460.232 903.315 456.563 903.316C454.948 903.316 452.875 903.316 450.344 903.317C447.812 903.317 445.079 903.336 442.144 903.373C439.209 903.41 436.237 903.447 433.228 903.485C430.22 903.522 427.358 903.577 424.643 903.651L424.642 901.45C427.137 901.302 429.027 901.009 430.311 900.568C431.595 900.128 432.457 899.247 432.897 897.926C433.337 896.605 433.557 894.624 433.556 891.982L433.548 837.388C433.547 834.673 433.327 832.673 432.886 831.389C432.446 830.105 431.583 829.225 430.299 828.748C429.015 828.271 427.125 827.996 424.63 827.923L424.63 825.722C426.171 825.795 428.189 825.868 430.684 825.941C433.179 826.014 435.857 826.05 438.719 826.05C441.287 826.049 443.837 826.012 446.369 825.938C448.9 825.865 451.01 825.791 452.698 825.717Z"/>
<path d="M514.67 845.41C521.128 845.409 526.173 847.371 529.806 851.296C533.439 855.221 535.256 861.33 535.257 869.622L496.403 869.628L496.292 867.537L524.69 867.532C524.836 863.936 524.542 860.616 523.808 857.571C523.074 854.526 521.918 852.086 520.34 850.252C518.762 848.418 516.725 847.501 514.23 847.501C510.855 847.502 507.865 849.19 505.26 852.566C502.656 855.942 501.098 861.299 500.585 868.637L500.915 869.077C500.769 870.178 500.659 871.388 500.586 872.709C500.513 874.03 500.476 875.351 500.476 876.672C500.477 881.662 501.285 885.954 502.9 889.55C504.515 893.145 506.625 895.878 509.23 897.749C511.835 899.619 514.532 900.555 517.321 900.554C519.522 900.554 521.613 900.205 523.595 899.507C525.576 898.81 527.41 897.654 529.097 896.039C530.785 894.425 532.252 892.26 533.499 889.545L535.701 890.425C534.894 892.846 533.574 895.195 531.739 897.47C529.905 899.745 527.594 901.598 524.806 903.03C522.018 904.461 518.789 905.177 515.12 905.177C509.837 905.178 505.305 903.968 501.526 901.547C497.746 899.126 494.847 895.77 492.829 891.477C490.81 887.185 489.8 882.25 489.8 876.673C489.798 870.216 490.825 864.657 492.879 859.997C494.933 855.337 497.831 851.741 501.573 849.209C505.315 846.677 509.68 845.411 514.67 845.41Z"/>
<path d="M563.321 845.402C566.256 845.401 568.751 845.878 570.806 846.832C572.861 847.785 574.365 848.665 575.319 849.473C577.741 851.453 579.208 850.132 579.721 845.509L582.253 845.509C582.107 847.564 581.997 850.003 581.924 852.829C581.851 855.654 581.815 859.451 581.816 864.221L579.284 864.221C578.843 861.506 578.091 858.865 577.026 856.297C575.962 853.728 574.402 851.619 572.347 849.968C570.293 848.318 567.614 847.493 564.312 847.493C561.744 847.493 559.597 848.209 557.873 849.64C556.149 851.072 555.287 853.181 555.288 855.97C555.288 858.171 555.949 860.061 557.27 861.638C558.591 863.216 560.316 864.683 562.444 866.04C564.572 867.397 566.884 868.883 569.379 870.497C572.168 872.257 574.699 874.055 576.975 875.889C579.25 877.723 581.066 879.741 582.424 881.942C583.782 884.143 584.461 886.748 584.461 889.757C584.462 893.132 583.582 895.957 581.821 898.232C580.06 900.507 577.768 902.232 574.943 903.407C572.118 904.581 569.018 905.169 565.642 905.169C564.028 905.17 562.505 905.041 561.074 904.785C559.643 904.528 558.267 904.143 556.946 903.63C556.212 903.263 555.46 902.823 554.69 902.309C553.919 901.796 553.167 901.245 552.433 900.659C551.699 900.072 551.039 900.09 550.452 900.714C549.865 901.338 549.425 902.567 549.132 904.401L546.6 904.402C546.746 902.054 546.856 899.192 546.929 895.816C547.002 892.441 547.038 887.965 547.037 882.388L549.568 882.387C550.083 886.497 550.817 890.092 551.771 893.174C552.726 896.256 554.23 898.659 556.285 900.383C558.34 902.107 561.202 902.969 564.871 902.968C566.339 902.968 567.825 902.637 569.329 901.977C570.833 901.316 572.099 900.215 573.126 898.674C574.153 897.133 574.666 895.078 574.666 892.51C574.665 889.281 573.491 886.64 571.142 884.585C568.794 882.531 565.822 880.367 562.226 878.093C559.584 876.405 557.107 874.718 554.795 873.031C552.483 871.343 550.612 869.436 549.181 867.308C547.749 865.18 547.033 862.612 547.033 859.603C547.032 856.301 547.784 853.605 549.288 851.513C550.792 849.421 552.791 847.88 555.286 846.889C557.781 845.898 560.459 845.402 563.321 845.402Z"/>
<path d="M708.279 825.676L708.28 827.877C705.785 827.951 703.895 828.227 702.611 828.704C701.327 829.181 700.465 830.062 700.025 831.346C699.585 832.63 699.365 834.63 699.366 837.345L699.375 891.939C699.375 894.581 699.595 896.562 700.036 897.883C700.476 899.204 701.339 900.084 702.623 900.524C703.907 900.964 705.797 901.258 708.292 901.404L708.292 903.605C706.604 903.459 704.495 903.367 701.963 903.331C699.431 903.295 696.881 903.277 694.313 903.277C691.451 903.278 688.773 903.297 686.278 903.334C683.783 903.371 681.765 903.463 680.224 903.61L680.224 901.408C682.719 901.261 684.608 900.967 685.892 900.527C687.176 900.087 688.039 899.206 688.479 897.885C688.919 896.564 689.138 894.583 689.138 891.941L689.128 831.403L689.569 831.733L662.613 904.163L660.852 904.163L633.103 832.733L633.112 890.849C633.113 893.491 633.352 895.564 633.829 897.068C634.306 898.572 635.26 899.636 636.691 900.26C638.122 900.883 640.269 901.268 643.13 901.414L643.131 903.616C641.81 903.469 640.086 903.378 637.958 903.342C635.829 903.305 633.812 903.287 631.904 903.287C630.069 903.288 628.216 903.306 626.345 903.343C624.474 903.38 622.915 903.472 621.667 903.619L621.667 901.418C624.162 901.271 626.051 900.885 627.335 900.261C628.619 899.637 629.481 898.573 629.921 897.069C630.361 895.564 630.581 893.491 630.581 890.85L630.572 837.356C630.572 834.641 630.351 832.641 629.911 831.357C629.47 830.073 628.608 829.193 627.324 828.716C626.04 828.239 624.15 827.964 621.655 827.891L621.655 825.69C622.902 825.763 624.462 825.836 626.333 825.909C628.204 825.982 630.057 826.019 631.891 826.019C633.506 826.018 635.175 825.981 636.899 825.908C638.624 825.834 640.073 825.76 641.247 825.687L666.243 891.504L664.372 892.385L689.127 826.009C690.008 826.009 690.87 826.009 691.714 826.009C692.558 826.009 693.42 826.009 694.301 826.009C696.869 826.008 699.419 825.971 701.951 825.897C704.482 825.823 706.592 825.75 708.279 825.676Z"/>
<path d="M731.187 904.372C728.178 904.373 725.573 903.804 723.371 902.667C721.17 901.53 719.5 899.935 718.362 897.88C717.225 895.826 716.656 893.441 716.655 890.726C716.655 887.497 717.406 884.855 718.91 882.8C720.414 880.746 722.34 879.094 724.688 877.846C727.036 876.599 729.513 875.553 732.117 874.708C734.722 873.864 737.199 873.056 739.547 872.286C741.895 871.515 743.821 870.615 745.325 869.588C746.829 868.56 747.581 867.203 747.581 865.515L747.58 858.691C747.579 855.609 747.12 853.261 746.203 851.646C745.285 850.032 744.056 848.95 742.515 848.4C740.974 847.85 739.249 847.575 737.341 847.575C735.507 847.576 733.544 847.833 731.453 848.347C729.362 848.861 727.692 849.925 726.445 851.54C727.839 851.833 729.05 852.566 730.078 853.74C731.105 854.914 731.619 856.418 731.619 858.253C731.62 860.087 731.033 861.537 729.859 862.601C728.685 863.665 727.181 864.197 725.346 864.198C723.218 864.198 721.659 863.52 720.668 862.162C719.677 860.805 719.182 859.282 719.182 857.595C719.181 855.687 719.658 854.146 720.612 852.971C721.565 851.797 722.776 850.696 724.243 849.669C725.931 848.494 728.114 847.485 730.792 846.641C733.47 845.796 736.497 845.374 739.873 845.373C742.881 845.373 745.45 845.721 747.578 846.418C749.706 847.115 751.467 848.123 752.862 849.444C754.77 851.205 756.017 853.351 756.605 855.882C757.192 858.414 757.486 861.441 757.487 864.963L757.492 895.562C757.492 897.397 757.768 898.718 758.318 899.525C758.868 900.332 759.731 900.735 760.905 900.735C761.712 900.735 762.482 900.551 763.216 900.184C763.95 899.817 764.83 899.23 765.858 898.423L767.069 900.294C765.528 901.468 764.06 902.441 762.666 903.211C761.272 903.982 759.401 904.368 757.053 904.368C754.925 904.368 753.164 904.002 751.769 903.268C750.375 902.535 749.329 901.452 748.632 900.022C747.935 898.591 747.586 896.775 747.585 894.573C745.605 897.876 743.239 900.334 740.487 901.949C737.736 903.564 734.635 904.372 731.187 904.372ZM735.148 899.969C737.57 899.968 739.826 899.271 741.917 897.876C744.008 896.482 745.898 894.39 747.585 891.601L747.581 870.028C746.701 871.275 745.417 872.321 743.73 873.165C742.042 874.01 740.208 874.854 738.226 875.698C736.245 876.542 734.356 877.533 732.558 878.671C730.761 879.808 729.275 881.295 728.101 883.129C726.927 884.964 726.341 887.349 726.341 890.284C726.342 893.219 727.131 895.567 728.709 897.328C730.287 899.089 732.433 899.969 735.148 899.969Z"/>
<path d="M782.906 819.39C784.814 819.39 786.465 820.087 787.859 821.481C789.254 822.875 789.951 824.526 789.951 826.433C789.952 828.341 789.255 829.992 787.861 831.387C786.467 832.781 784.816 833.479 782.908 833.479C781 833.479 779.349 832.782 777.954 831.388C776.56 829.994 775.863 828.344 775.862 826.436C775.862 824.528 776.559 822.877 777.953 821.482C779.347 820.088 780.998 819.39 782.906 819.39ZM788.634 845.696L788.641 893.356C788.642 896.438 789.284 898.529 790.568 899.63C791.853 900.73 793.999 901.28 797.008 901.28L797.008 903.591C795.761 903.518 793.871 903.426 791.34 903.317C788.808 903.207 786.258 903.153 783.69 903.153C781.195 903.153 778.663 903.209 776.095 903.319C773.527 903.43 771.619 903.522 770.371 903.595L770.371 901.284C773.379 901.283 775.526 900.733 776.81 899.632C778.094 898.531 778.735 896.439 778.735 893.358L778.729 858.906C778.729 855.604 778.141 853.164 776.967 851.586C775.793 850.009 773.591 849.22 770.363 849.221L770.362 846.91C772.71 847.129 774.985 847.239 777.187 847.239C779.315 847.238 781.351 847.11 783.295 846.852C785.24 846.595 787.019 846.21 788.634 845.696Z"/>
<path d="M839.596 845.357C842.384 845.357 844.714 845.723 846.585 846.457C848.457 847.19 850.016 848.218 851.264 849.538C852.658 851.006 853.649 852.84 854.237 855.041C854.824 857.242 855.118 860.214 855.119 863.957L855.123 893.345C855.124 896.427 855.766 898.518 857.05 899.619C858.335 900.719 860.481 901.269 863.49 901.269L863.49 903.58C862.243 903.507 860.335 903.416 857.767 903.306C855.198 903.196 852.703 903.142 850.282 903.142C847.86 903.143 845.494 903.198 843.182 903.308C840.871 903.419 839.128 903.511 837.954 903.584L837.954 901.273C840.595 901.273 842.466 900.722 843.567 899.621C844.667 898.52 845.217 896.429 845.217 893.347L845.212 861.537C845.211 859.262 845.028 857.171 844.661 855.263C844.293 853.355 843.468 851.814 842.183 850.64C840.899 849.466 838.936 848.88 836.294 848.88C833.212 848.881 830.516 849.762 828.204 851.523C825.893 853.285 824.096 855.688 822.812 858.734C821.529 861.779 820.887 865.173 820.888 868.915L820.892 893.351C820.892 896.433 821.443 898.524 822.544 899.624C823.645 900.725 825.516 901.275 828.157 901.275L828.158 903.586C826.984 903.513 825.241 903.421 822.929 903.312C820.618 903.202 818.252 903.147 815.83 903.148C813.408 903.148 810.914 903.204 808.345 903.314C805.777 903.425 803.869 903.517 802.622 903.59L802.621 901.279C805.63 901.278 807.776 900.728 809.06 899.627C810.344 898.526 810.986 896.434 810.985 893.352L810.98 858.901C810.979 855.598 810.392 853.159 809.217 851.581C808.043 850.004 805.842 849.215 802.613 849.216L802.613 846.904C804.961 847.124 807.236 847.234 809.437 847.233C811.565 847.233 813.601 847.104 815.546 846.847C817.49 846.59 819.27 846.205 820.884 845.691L820.886 858.679C822.793 853.689 825.453 850.221 828.864 848.276C832.276 846.331 835.853 845.358 839.596 845.357Z"/>
<path d="M888.026 845.35C890.962 845.349 893.457 845.826 895.511 846.779C897.566 847.733 899.071 848.613 900.025 849.42C902.446 851.401 903.914 850.08 904.427 845.457L906.958 845.457C906.812 847.511 906.702 849.951 906.629 852.776C906.556 855.601 906.52 859.399 906.521 864.169L903.989 864.169C903.549 861.454 902.796 858.812 901.732 856.244C900.667 853.676 899.108 851.567 897.053 849.916C894.998 848.265 892.319 847.44 889.017 847.441C886.449 847.441 884.303 848.157 882.579 849.588C880.854 851.019 879.993 853.129 879.993 855.918C879.993 858.119 880.654 860.008 881.975 861.586C883.296 863.163 885.021 864.631 887.149 865.988C889.277 867.345 891.589 868.831 894.084 870.444C896.873 872.205 899.405 874.003 901.68 875.837C903.955 877.671 905.771 879.688 907.129 881.89C908.487 884.091 909.166 886.696 909.167 889.704C909.167 893.08 908.287 895.905 906.527 898.18C904.766 900.455 902.473 902.18 899.648 903.354C896.823 904.529 893.723 905.116 890.347 905.117C888.733 905.117 887.21 904.989 885.779 904.733C884.349 904.476 882.973 904.091 881.652 903.577C880.918 903.211 880.166 902.77 879.395 902.257C878.624 901.743 877.872 901.193 877.138 900.606C876.404 900.019 875.744 900.038 875.157 900.662C874.57 901.285 874.13 902.515 873.837 904.349L871.305 904.35C871.452 902.001 871.561 899.14 871.634 895.764C871.707 892.389 871.743 887.912 871.742 882.336L874.274 882.335C874.788 886.444 875.522 890.04 876.477 893.122C877.431 896.203 878.936 898.606 880.991 900.33C883.046 902.055 885.908 902.916 889.577 902.916C891.044 902.916 892.53 902.585 894.034 901.924C895.538 901.264 896.804 900.163 897.831 898.622C898.858 897.081 899.372 895.026 899.371 892.458C899.371 889.229 898.196 886.587 895.848 884.533C893.499 882.479 890.527 880.315 886.931 878.04C884.289 876.353 881.812 874.666 879.5 872.978C877.189 871.291 875.317 869.383 873.886 867.256C872.455 865.128 871.739 862.56 871.738 859.551C871.738 856.249 872.489 853.552 873.993 851.461C875.497 849.369 877.497 847.828 879.991 846.837C882.486 845.846 885.165 845.35 888.026 845.35Z"/>
<path d="M995.009 817.265L995.021 891.562C995.022 894.864 995.628 897.303 996.839 898.881C998.05 900.458 1000.23 901.247 1003.39 901.246L1003.39 903.558C1001.11 903.338 998.839 903.228 996.564 903.229C994.436 903.229 992.4 903.339 990.455 903.56C988.511 903.78 986.732 904.184 985.117 904.772L985.105 830.475C985.105 827.172 984.517 824.733 983.343 823.155C982.169 821.578 979.967 820.789 976.738 820.79L976.738 818.478C979.086 818.698 981.361 818.808 983.562 818.807C985.69 818.807 987.727 818.678 989.671 818.421C991.616 818.164 993.395 817.779 995.009 817.265ZM971.899 845.336C975.128 845.336 978.155 846.106 980.98 847.646C983.806 849.187 985.696 851.828 986.65 855.57L985.22 856.671C984.192 853.589 982.595 851.351 980.431 849.958C978.266 848.564 975.716 847.867 972.78 847.868C968.451 847.868 964.837 850.107 961.94 854.584C959.042 859.06 957.63 865.958 957.705 875.277C957.706 881.221 958.276 886.156 959.414 890.081C960.552 894.007 962.24 896.942 964.478 898.886C966.717 900.83 969.45 901.802 972.679 901.802C975.761 901.801 978.549 900.48 981.044 897.838C983.538 895.196 985.042 891.306 985.555 886.17L986.876 887.71C986.29 893.287 984.511 897.58 981.539 900.589C978.568 903.599 974.551 905.103 969.487 905.104C964.938 905.105 960.957 904.005 957.544 901.804C954.132 899.603 951.526 896.302 949.728 891.899C947.929 887.497 947.03 881.957 947.028 875.279C947.027 868.601 948.182 863.043 950.493 858.603C952.804 854.163 955.848 850.842 959.627 848.64C963.406 846.438 967.497 845.337 971.899 845.336Z"/>
<path d="M1035.63 845.326C1042.09 845.325 1047.13 847.287 1050.77 851.212C1054.4 855.137 1056.22 861.246 1056.22 869.538L1017.36 869.544L1017.25 867.453L1045.65 867.448C1045.8 863.853 1045.5 860.532 1044.77 857.487C1044.03 854.442 1042.88 852.002 1041.3 850.168C1039.72 848.334 1037.68 847.417 1035.19 847.417C1031.81 847.418 1028.82 849.106 1026.22 852.482C1023.62 855.858 1022.06 861.215 1021.54 868.553L1021.87 868.993C1021.73 870.094 1021.62 871.304 1021.55 872.625C1021.47 873.946 1021.44 875.267 1021.44 876.588C1021.44 881.578 1022.24 885.87 1023.86 889.466C1025.47 893.061 1027.58 895.794 1030.19 897.665C1032.79 899.536 1035.49 900.471 1038.28 900.47C1040.48 900.47 1042.57 900.121 1044.55 899.424C1046.54 898.726 1048.37 897.57 1050.06 895.956C1051.74 894.341 1053.21 892.176 1054.46 889.461L1056.66 890.341C1055.85 892.763 1054.53 895.111 1052.7 897.386C1050.86 899.661 1048.55 901.514 1045.77 902.946C1042.98 904.377 1039.75 905.093 1036.08 905.094C1030.8 905.094 1026.26 903.884 1022.49 901.463C1018.71 899.043 1015.81 895.686 1013.79 891.393C1011.77 887.101 1010.76 882.166 1010.76 876.59C1010.76 870.132 1011.78 864.573 1013.84 859.914C1015.89 855.254 1018.79 851.658 1022.53 849.125C1026.27 846.593 1030.64 845.327 1035.63 845.326Z"/>
<path d="M1116.97 824.399C1120.64 824.399 1123.43 824.82 1125.33 825.664C1127.24 826.508 1128.93 827.443 1130.4 828.47C1131.28 828.983 1131.99 829.369 1132.54 829.625C1133.09 829.882 1133.63 830.01 1134.14 830.01C1134.87 830.01 1135.41 829.606 1135.74 828.799C1136.07 827.992 1136.34 826.781 1136.56 825.167L1139.09 825.166C1139.02 826.414 1138.93 827.9 1138.82 829.624C1138.71 831.349 1138.63 833.624 1138.6 836.449C1138.56 839.274 1138.54 842.998 1138.55 847.621L1136.01 847.621C1135.79 844.099 1135.02 840.724 1133.7 837.495C1132.38 834.267 1130.45 831.625 1127.92 829.571C1125.39 827.517 1122.07 826.49 1117.96 826.491C1114.07 826.491 1110.86 827.666 1108.33 830.014C1105.8 832.363 1104.53 835.445 1104.53 839.261C1104.53 842.563 1105.38 845.333 1107.07 847.571C1108.75 849.809 1111.01 851.826 1113.84 853.623C1116.66 855.421 1119.72 857.347 1123.03 859.401C1126.84 861.748 1130.24 864.077 1133.21 866.388C1136.18 868.699 1138.53 871.249 1140.26 874.037C1141.98 876.825 1142.84 880.201 1142.84 884.163C1142.84 888.859 1141.78 892.749 1139.65 895.831C1137.53 898.913 1134.7 901.225 1131.18 902.767C1127.66 904.308 1123.77 905.079 1119.51 905.08C1115.62 905.081 1112.54 904.641 1110.27 903.761C1107.99 902.881 1106.05 901.964 1104.43 901.01C1102.82 899.983 1101.57 899.469 1100.69 899.47C1099.96 899.47 1099.42 899.873 1099.09 900.681C1098.76 901.488 1098.49 902.699 1098.27 904.313L1095.74 904.313C1095.88 902.772 1095.98 900.956 1096.01 898.865C1096.05 896.774 1096.08 894.04 1096.12 890.665C1096.16 887.289 1096.17 883.033 1096.17 877.897L1098.7 877.896C1099 882.299 1099.83 886.408 1101.18 890.224C1102.54 894.039 1104.63 897.102 1107.46 899.413C1110.28 901.724 1114.05 902.88 1118.74 902.879C1121.16 902.878 1123.46 902.383 1125.62 901.392C1127.79 900.401 1129.56 898.823 1130.96 896.658C1132.35 894.493 1133.05 891.686 1133.05 888.237C1133.05 885.229 1132.33 882.605 1130.9 880.368C1129.47 878.13 1127.47 876.039 1124.9 874.095C1122.33 872.15 1119.32 870.151 1115.87 868.097C1112.42 865.97 1109.2 863.806 1106.19 861.605C1103.18 859.404 1100.77 856.854 1098.98 853.956C1097.18 851.058 1096.28 847.554 1096.28 843.445C1096.28 839.115 1097.25 835.538 1099.19 832.713C1101.14 829.887 1103.69 827.795 1106.84 826.437C1110 825.079 1113.37 824.4 1116.97 824.399Z"/>
<path d="M1178.17 845.303C1184.63 845.302 1189.67 847.264 1193.31 851.189C1196.94 855.114 1198.76 861.223 1198.76 869.515L1159.9 869.521L1159.79 867.43L1188.19 867.425C1188.34 863.83 1188.04 860.509 1187.31 857.464C1186.57 854.419 1185.42 851.979 1183.84 850.145C1182.26 848.311 1180.22 847.394 1177.73 847.394C1174.35 847.395 1171.36 849.083 1168.76 852.459C1166.16 855.835 1164.6 861.192 1164.08 868.53L1164.41 868.97C1164.27 870.071 1164.16 871.282 1164.09 872.602C1164.01 873.923 1163.98 875.244 1163.98 876.565C1163.98 881.555 1164.78 885.847 1166.4 889.443C1168.01 893.038 1170.12 895.771 1172.73 897.642C1175.34 899.513 1178.03 900.448 1180.82 900.447C1183.02 900.447 1185.11 900.098 1187.09 899.401C1189.08 898.703 1190.91 897.547 1192.6 895.933C1194.28 894.318 1195.75 892.153 1197 889.438L1199.2 890.318C1198.39 892.74 1197.07 895.088 1195.24 897.363C1193.4 899.638 1191.09 901.491 1188.31 902.923C1185.52 904.354 1182.29 905.07 1178.62 905.071C1173.34 905.071 1168.8 903.861 1165.03 901.44C1161.25 899.02 1158.35 895.663 1156.33 891.371C1154.31 887.078 1153.3 882.143 1153.3 876.567C1153.3 870.109 1154.32 864.551 1156.38 859.891C1158.43 855.231 1161.33 851.635 1165.07 849.102C1168.81 846.57 1173.18 845.304 1178.17 845.303ZM1189.83 814.041C1190.71 814.775 1191.21 815.729 1191.32 816.903C1191.43 818.077 1190.93 819.398 1189.83 820.866C1188.73 822.26 1187.38 823.654 1185.76 825.049C1184.15 826.443 1182.26 828.113 1180.09 830.058C1177.93 832.003 1175.38 834.516 1172.44 837.599L1171.23 836.608C1173.51 833.013 1175.32 829.93 1176.68 827.362C1178.04 824.793 1179.19 822.555 1180.15 820.647C1181.1 818.739 1182.13 817.088 1183.23 815.693C1184.33 814.226 1185.48 813.418 1186.7 813.271C1187.91 813.124 1188.95 813.381 1189.83 814.041Z"/>
<path d="M1241.35 845.293C1243.33 845.292 1245.07 845.696 1246.58 846.503C1248.08 847.31 1249.26 848.355 1250.1 849.639C1250.95 850.923 1251.37 852.372 1251.37 853.987C1251.37 855.821 1250.8 857.436 1249.66 858.83C1248.53 860.224 1247 860.922 1245.09 860.922C1243.55 860.922 1242.2 860.427 1241.02 859.437C1239.85 858.446 1239.26 857.034 1239.26 855.199C1239.26 853.805 1239.64 852.613 1240.42 851.622C1241.19 850.631 1242.05 849.842 1243 849.255C1242.49 848.521 1241.72 848.154 1240.69 848.155C1238.42 848.155 1236.32 848.834 1234.42 850.192C1232.51 851.55 1230.89 853.293 1229.57 855.421C1228.25 857.549 1227.23 859.806 1226.49 862.191C1225.76 864.576 1225.39 866.796 1225.39 868.85L1225.4 892.185C1225.4 895.781 1226.44 898.184 1228.54 899.394C1230.63 900.604 1233.47 901.209 1237.07 901.209L1237.07 903.52C1235.38 903.447 1232.99 903.356 1229.91 903.246C1226.83 903.137 1223.56 903.082 1220.12 903.083C1217.62 903.083 1215.14 903.138 1212.69 903.249C1210.23 903.359 1208.37 903.451 1207.13 903.525L1207.13 901.214C1210.14 901.213 1212.28 900.662 1213.57 899.561C1214.85 898.461 1215.49 896.369 1215.49 893.287L1215.49 858.835C1215.49 855.533 1214.9 853.094 1213.72 851.516C1212.55 849.939 1210.35 849.15 1207.12 849.151L1207.12 846.839C1209.47 847.059 1211.74 847.169 1213.94 847.168C1216.07 847.168 1218.11 847.039 1220.05 846.782C1222 846.525 1223.78 846.139 1225.39 845.625L1225.39 859.384C1226.2 857.256 1227.35 855.109 1228.86 852.945C1230.36 850.78 1232.18 848.963 1234.31 847.495C1236.43 846.027 1238.78 845.293 1241.35 845.293Z"/>
<path d="M1280.64 845.286C1287.1 845.285 1292.15 847.247 1295.78 851.173C1299.41 855.098 1301.23 861.206 1301.23 869.498L1262.38 869.505L1262.27 867.413L1290.66 867.409C1290.81 863.813 1290.52 860.493 1289.78 857.448C1289.05 854.402 1287.89 851.963 1286.31 850.129C1284.74 848.294 1282.7 847.377 1280.2 847.378C1276.83 847.378 1273.84 849.067 1271.23 852.442C1268.63 855.818 1267.07 861.175 1266.56 868.513L1266.89 868.954C1266.74 870.054 1266.63 871.265 1266.56 872.586C1266.49 873.907 1266.45 875.228 1266.45 876.548C1266.45 881.538 1267.26 885.831 1268.87 889.426C1270.49 893.022 1272.6 895.755 1275.2 897.625C1277.81 899.496 1280.51 900.431 1283.3 900.431C1285.5 900.43 1287.59 900.082 1289.57 899.384C1291.55 898.687 1293.38 897.531 1295.07 895.916C1296.76 894.301 1298.23 892.136 1299.47 889.421L1301.68 890.301C1300.87 892.723 1299.55 895.071 1297.71 897.347C1295.88 899.622 1293.57 901.475 1290.78 902.906C1287.99 904.338 1284.76 905.053 1281.09 905.054C1275.81 905.055 1271.28 903.845 1267.5 901.424C1263.72 899.003 1260.82 895.646 1258.8 891.354C1256.78 887.062 1255.77 882.127 1255.77 876.55C1255.77 870.093 1256.8 864.534 1258.85 859.874C1260.91 855.214 1263.8 851.618 1267.55 849.086C1271.29 846.554 1275.65 845.287 1280.64 845.286ZM1292.31 814.025C1293.19 814.758 1293.68 815.712 1293.79 816.886C1293.9 818.06 1293.41 819.381 1292.31 820.849C1291.21 822.243 1289.85 823.638 1288.24 825.032C1286.62 826.427 1284.73 828.096 1282.57 830.041C1280.4 831.986 1277.85 834.5 1274.92 837.582L1273.71 836.592C1275.98 832.996 1277.8 829.914 1279.16 827.345C1280.51 824.777 1281.67 822.538 1282.62 820.63C1283.58 818.722 1284.6 817.071 1285.7 815.677C1286.8 814.209 1287.96 813.402 1289.17 813.255C1290.38 813.108 1291.43 813.364 1292.31 814.025Z"/>
<path d="M1346.58 845.276C1349.36 845.275 1351.69 845.642 1353.57 846.375C1355.44 847.109 1357 848.136 1358.24 849.457C1359.64 850.924 1360.63 852.758 1361.22 854.96C1361.8 857.161 1362.1 860.133 1362.1 863.875L1362.1 893.264C1362.1 896.346 1362.75 898.437 1364.03 899.537C1365.32 900.638 1367.46 901.188 1370.47 901.187L1370.47 903.499C1369.22 903.426 1367.32 903.334 1364.75 903.224C1362.18 903.115 1359.68 903.06 1357.26 903.061C1354.84 903.061 1352.47 903.116 1350.16 903.227C1347.85 903.337 1346.11 903.429 1344.93 903.503L1344.93 901.191C1347.58 901.191 1349.45 900.64 1350.55 899.539C1351.65 898.439 1352.2 896.347 1352.2 893.265L1352.19 861.455C1352.19 859.18 1352.01 857.089 1351.64 855.181C1351.27 853.273 1350.45 851.733 1349.16 850.559C1347.88 849.385 1345.92 848.798 1343.27 848.798C1340.19 848.799 1337.5 849.68 1335.19 851.441C1332.87 853.203 1331.08 855.606 1329.79 858.652C1328.51 861.697 1327.87 865.091 1327.87 868.834L1327.87 893.269C1327.87 896.351 1328.42 898.442 1329.52 899.543C1330.63 900.643 1332.5 901.193 1335.14 901.193L1335.14 903.504C1333.96 903.431 1332.22 903.34 1329.91 903.23C1327.6 903.12 1325.23 903.066 1322.81 903.066C1320.39 903.067 1317.89 903.122 1315.33 903.232C1312.76 903.343 1310.85 903.435 1309.6 903.509L1309.6 901.197C1312.61 901.197 1314.76 900.646 1316.04 899.545C1317.32 898.444 1317.97 896.353 1317.97 893.271L1317.96 858.819C1317.96 855.517 1317.37 853.077 1316.2 851.5C1315.02 849.922 1312.82 849.134 1309.59 849.134L1309.59 846.823C1311.94 847.042 1314.22 847.152 1316.42 847.152C1318.55 847.151 1320.58 847.023 1322.53 846.766C1324.47 846.508 1326.25 846.123 1327.86 845.609L1327.87 858.597C1329.77 853.607 1332.43 850.139 1335.84 848.194C1339.26 846.249 1342.83 845.276 1346.58 845.276Z"/>
<path d="M1387.85 819.293C1389.76 819.292 1391.41 819.989 1392.8 821.383C1394.2 822.777 1394.89 824.428 1394.89 826.336C1394.89 828.244 1394.2 829.895 1392.8 831.289C1391.41 832.684 1389.76 833.381 1387.85 833.382C1385.94 833.382 1384.29 832.685 1382.9 831.291C1381.5 829.897 1380.81 828.246 1380.8 826.338C1380.8 824.43 1381.5 822.779 1382.9 821.385C1384.29 819.99 1385.94 819.293 1387.85 819.293ZM1393.58 845.598L1393.58 893.259C1393.58 896.34 1394.23 898.432 1395.51 899.532C1396.8 900.633 1398.94 901.183 1401.95 901.182L1401.95 903.494C1400.7 903.42 1398.81 903.329 1396.28 903.219C1393.75 903.11 1391.2 903.055 1388.63 903.056C1386.14 903.056 1383.61 903.111 1381.04 903.222C1378.47 903.332 1376.56 903.424 1375.31 903.498L1375.31 901.186C1378.32 901.186 1380.47 900.635 1381.75 899.534C1383.04 898.433 1383.68 896.342 1383.68 893.26L1383.67 858.808C1383.67 855.506 1383.08 853.066 1381.91 851.489C1380.74 849.912 1378.53 849.123 1375.31 849.124L1375.3 846.812C1377.65 847.032 1379.93 847.142 1382.13 847.141C1384.26 847.141 1386.29 847.012 1388.24 846.755C1390.18 846.498 1391.96 846.112 1393.58 845.598Z"/>
<path d="M1425.27 828.532L1425.28 846.914L1441.57 846.911L1441.57 849.113L1425.28 849.116L1425.28 891.712C1425.28 895.161 1425.91 897.583 1427.16 898.977C1428.4 900.371 1430.13 901.068 1432.33 901.067C1434.53 901.067 1436.44 900.168 1438.05 898.37C1439.67 896.572 1441.06 893.544 1442.23 889.288L1444.44 889.838C1443.7 894.094 1442.25 897.69 1440.09 900.626C1437.93 903.561 1434.6 905.029 1430.13 905.03C1427.63 905.03 1425.58 904.719 1423.96 904.095C1422.35 903.472 1420.92 902.573 1419.67 901.399C1418.06 899.712 1416.94 897.694 1416.31 895.346C1415.69 892.998 1415.38 889.88 1415.38 885.99L1415.37 849.117L1404.8 849.119L1404.8 846.917L1415.37 846.916L1415.37 830.075C1417.2 830.001 1418.96 829.854 1420.65 829.634C1422.34 829.414 1423.88 829.046 1425.27 828.532Z"/>
<path d="M1473.27 845.255C1479.72 845.254 1484.77 847.216 1488.4 851.142C1492.03 855.067 1493.85 861.175 1493.85 869.467L1455 869.474L1454.89 867.382L1483.29 867.378C1483.43 863.782 1483.14 860.462 1482.4 857.417C1481.67 854.371 1480.51 851.932 1478.94 850.097C1477.36 848.263 1475.32 847.346 1472.83 847.347C1469.45 847.347 1466.46 849.035 1463.86 852.411C1461.25 855.787 1459.69 861.144 1459.18 868.482L1459.51 868.923C1459.36 870.023 1459.26 871.234 1459.18 872.555C1459.11 873.876 1459.07 875.197 1459.07 876.517C1459.07 881.507 1459.88 885.8 1461.5 889.395C1463.11 892.99 1465.22 895.724 1467.83 897.594C1470.43 899.465 1473.13 900.4 1475.92 900.4C1478.12 900.399 1480.21 900.051 1482.19 899.353C1484.17 898.656 1486.01 897.5 1487.69 895.885C1489.38 894.27 1490.85 892.105 1492.1 889.39L1494.3 890.27C1493.49 892.692 1492.17 895.04 1490.34 897.316C1488.5 899.591 1486.19 901.444 1483.4 902.875C1480.61 904.306 1477.39 905.022 1473.72 905.023C1468.43 905.024 1463.9 903.814 1460.12 901.393C1456.34 898.972 1453.44 895.615 1451.43 891.323C1449.41 887.031 1448.4 882.096 1448.4 876.519C1448.39 870.062 1449.42 864.503 1451.47 859.843C1453.53 855.183 1456.43 851.587 1460.17 849.055C1463.91 846.523 1468.28 845.256 1473.27 845.255ZM1484.93 813.994C1485.81 814.727 1486.3 815.681 1486.42 816.855C1486.53 818.029 1486.03 819.35 1484.93 820.818C1483.83 822.212 1482.47 823.607 1480.86 825.001C1479.24 826.396 1477.35 828.065 1475.19 830.01C1473.03 831.955 1470.48 834.469 1467.54 837.551L1466.33 836.561C1468.6 832.965 1470.42 829.883 1471.78 827.314C1473.13 824.746 1474.29 822.507 1475.24 820.599C1476.2 818.691 1477.22 817.04 1478.32 815.646C1479.43 814.178 1480.58 813.371 1481.79 813.224C1483 813.077 1484.05 813.333 1484.93 813.994Z"/>
</g>
</g>
</g>
<g id="Logo">
<g opacity="1">
<path d="M393.294 528.084C382.48 528.084 321.325 510.441 316.819 514.947C307.607 524.159 329.988 572.383 340.439 589.376C372.305 641.187 463.154 682.364 534.046 674.935C608.559 667.127 661.673 639.646 699.194 576.409C707.701 562.073 724.736 532.72 716.084 515.417C715.511 514.27 710.991 514.947 709.985 514.947C692.604 514.947 674.065 521.047 656.03 521.047" fill="none" opacity="1" stroke="#4a3a33" stroke-linecap="round" stroke-linejoin="round" stroke-width="16.1304"/>
<path d="M645.709 565.618C649.587 554.561 651.959 542.193 653.685 531.838C657.45 509.246 655.977 489.294 652.277 467.092C651.606 463.067 647.408 435.188 641.017 435.188C628.308 435.188 588.584 456.948 574.864 463.808" fill="none" opacity="1" stroke="#4a3a33" stroke-linecap="round" stroke-linejoin="round" stroke-width="16.1304"/>
<path d="M520.909 673.528C534.055 659.787 545.26 645.751 551.874 636.932C574.12 607.271 595.342 560.243 589.877 521.985C584.231 482.466 566.115 444.324 542.021 412.199C539.389 408.688 517.288 383.513 513.402 385.456C503.138 390.588 492.224 403.534 481.877 416.577C447.602 459.782 428.026 519.289 446.863 572.186C450.718 583.013 464.638 619.252 476.806 631.953" fill="none" opacity="1" stroke="#4a3a33" stroke-linecap="round" stroke-linejoin="round" stroke-width="16.1304"/>
<path d="M378.28 486.328C378.28 481.687 379.177 472.59 382.969 461.204C387.163 448.612 392.009 436.236 392.339 436.126C393.977 435.581 411.975 439.949 426.248 448.299C438.267 455.331 445.784 461.204 451.028 465.815" fill="none" opacity="1" stroke="#4a3a33" stroke-linecap="round" stroke-linejoin="round" stroke-width="16.1304"/>
<path d="M37.012 509.173C37.012 247.949 248.776 36.1847 510 36.1847C771.224 36.1847 982.988 247.949 982.988 509.173C982.988 770.397 771.224 982.161 510 982.161C248.776 982.161 37.012 770.397 37.012 509.173Z" fill="none" opacity="0.992624" stroke="#4a3a33" stroke-linecap="butt" stroke-linejoin="round" stroke-width="10.8291"/>
<path d="M20 510C20 239.38 239.38 20 510 20C780.62 20 1000 239.38 1000 510C1000 780.62 780.62 1000 510 1000C239.38 1000 20 780.62 20 510Z" fill="none" opacity="1" stroke="#4a3a33" stroke-linecap="butt" stroke-linejoin="round" stroke-width="6.11806"/>
<path d="M444.689 973.192C444.689 965.988 431.45 872.271 404.18 818.696C393.386 797.489 389.207 791.003 387.698 788.375C371.225 759.677 371.551 758.683 364.339 746.663C353.229 728.146 342.328 680.657 310.949 686.933C279.821 693.158 314.739 744.567 322.294 759.677C324.433 763.955 333.385 775.615 328.301 780.7C311.866 797.134 267.556 774.186 250.551 765.684C202.156 741.486 180.09 685.518 163.458 636.545C157.451 618.86 138.101 614.687 129.755 618.86C120.798 623.338 123.111 638.215 124.279 645.221C128.211 668.815 139.038 697.081 151.569 717.966C185.784 774.99 243.617 831.432 274.105 849.103C284.753 855.274 302.149 867.463 320.969 875.822C337.858 883.323 355.892 886.486 371.225 900.382C385.757 913.552 380.79 947.347 380.79 958.717" fill="none" opacity="1" stroke="#4a3a33" stroke-linecap="round" stroke-linejoin="round" stroke-width="16.1304"/>
<path d="M574.864 974.5C574.864 967.297 588.102 872.271 615.373 818.696C626.167 797.489 630.346 791.003 631.855 788.375C648.328 759.677 648.001 758.683 655.214 746.663C666.324 728.146 677.225 680.657 708.604 686.933C739.731 693.158 704.814 744.567 697.258 759.677C695.12 763.955 686.168 775.615 691.252 780.7C707.687 797.134 751.997 774.186 769.002 765.684C817.397 741.486 839.463 685.518 856.095 636.545C862.101 618.86 881.452 614.687 889.798 618.86C898.754 623.338 896.442 638.215 895.274 645.221C891.342 668.815 880.515 697.081 867.984 717.966C833.769 774.99 775.936 831.432 745.447 849.103C734.8 855.274 717.403 867.463 698.583 875.822C681.695 883.323 663.661 886.486 648.328 900.382C633.796 913.552 638.763 947.347 638.763 958.717" fill="none" opacity="1" stroke="#4a3a33" stroke-linecap="round" stroke-linejoin="round" stroke-width="16.1304"/>
</g>
</g>
</svg>
