<?xml version="1.0" encoding="UTF-8" standalone="no"?>
<!DOCTYPE svg PUBLIC "-//W3C//DTD SVG 1.1//EN" "http://www.w3.org/Graphics/SVG/1.1/DTD/svg11.dtd">
<!-- Created with Linearity Curve (http://linearity.io/curve) -->
<svg height="48.0px" stroke-miterlimit="10" style="fill-rule:nonzero;clip-rule:evenodd;stroke-linecap:round;stroke-linejoin:round;" version="1.1" viewBox="0 0 48 48" width="48.0px" xml:space="preserve" xmlns="http://www.w3.org/2000/svg" xmlns:xlink="http://www.w3.org/1999/xlink">
<defs/>
<g id="Logo">
<path d="M15.25 23.3125C14.8775 23.2985 14.6535 23.3464 14.375 23.625C13.53 24.47 14.3024 26.5256 15.3438 28.2188C17.0321 30.9638 21.6129 33.0029 25.2188 32.625C29.1153 32.2167 31.7588 30.6863 33.5938 27.5938C33.9484 26.9961 34.158 26.5885 34.3438 26.0938C34.653 25.2702 34.7297 24.5219 34.4062 23.875C34.2308 23.5241 33.9799 23.4238 33.6875 23.375C33.5929 23.3592 33.4983 23.3409 33.4062 23.3438C33.3396 23.3467 33.3598 23.3402 33.3125 23.3438C32.9071 23.3438 32.5963 23.3839 31.9062 23.5C31.672 23.5394 31.5667 23.5754 31.4375 23.5938C31.1848 23.6296 30.9642 23.625 30.7812 23.625C30.275 23.625 29.875 24.0562 29.875 24.5625C29.875 25.0688 30.275 25.4688 30.7812 25.4688C31.0618 25.4688 31.3564 25.4532 31.6875 25.4063C31.8373 25.385 31.9691 25.3545 32.2188 25.3125C32.4026 25.2816 32.4356 25.2999 32.5625 25.2812C32.4823 25.6399 32.4111 25.9634 32 26.6562C30.4781 29.2212 28.3797 30.4616 25.0312 30.8125C22.1016 31.1195 18.2098 29.3695 16.9062 27.25C16.6621 26.853 16.3176 26.128 16.0938 25.5312C16.0551 25.4281 16.0615 25.3738 16.0312 25.2812C16.2223 25.3204 16.351 25.3444 16.625 25.4063C16.6897 25.4209 18.2697 25.7812 18.5625 25.7812C19.0688 25.7812 19.5 25.3813 19.5 24.875C19.5 24.3687 19.0688 23.9688 18.5625 23.9688C18.4925 23.9688 18.1798 23.8889 17.1562 23.6563C17.0905 23.6413 16.0947 23.4265 15.7813 23.375C15.5723 23.3407 15.3994 23.3181 15.25 23.3125Z" fill="#4a3a33" fill-rule="nonzero" opacity="1" stroke="none"/>
<path d="M30.0938 19.6562C29.6294 19.6562 29.0578 19.8503 28.1562 20.2812C28.053 20.3306 26.6175 21.0506 26.5938 21.0625C26.1409 21.2889 25.9611 21.8597 26.1875 22.3125C26.4139 22.7653 26.9847 22.9452 27.4375 22.7188C27.4764 22.6993 28.8421 21.9831 28.9375 21.9375C29.3 21.7642 29.4127 21.7368 29.625 21.6562C29.6447 21.746 29.6385 21.8395 29.6562 21.9375C29.6726 22.0278 29.7031 22.0902 29.7188 22.1875C29.8987 23.2673 29.9224 24.0594 29.7813 24.9062C29.6819 25.5022 29.5707 25.9328 29.4375 26.3125C29.2699 26.7902 29.5223 27.3325 30 27.5C30.4777 27.6676 31.0199 27.4152 31.1875 26.9375C31.3634 26.4361 31.4785 25.9103 31.5938 25.2188C31.7722 24.1481 31.7419 23.1702 31.5312 21.9062C31.5166 21.815 31.488 21.6998 31.4688 21.5938C31.437 21.4187 31.4143 21.2559 31.375 21.0938C31.3112 20.8303 31.2432 20.598 31.1562 20.4062C30.9474 19.9459 30.6615 19.6563 30.0938 19.6562Z" fill="#4a3a33" fill-rule="nonzero" opacity="1" stroke="none"/>
<path d="M23.75 17.4375C23.1759 17.7245 22.7077 18.1935 21.9688 19.125C20.0398 21.5565 19.2549 24.6311 20.1875 27.25C20.6322 28.4987 21.206 29.7434 21.7813 30.3438C22.1315 30.7093 22.7282 30.7252 23.0938 30.375C23.4593 30.0248 23.4752 29.4281 23.125 29.0625C22.8027 28.7261 22.285 27.6008 21.9375 26.625C21.2393 24.6644 21.8407 22.2235 23.4062 20.25C23.7953 19.7595 23.9969 19.6327 24.2188 19.4375C24.4377 19.6645 24.697 19.9606 24.75 20.0312C25.8462 21.4928 26.5851 23.1271 26.8125 24.7187C27.0004 26.0343 26.3038 27.9595 25.2188 29.4062C24.8295 29.9253 24.3405 30.4808 23.8438 31C23.4938 31.3658 23.5092 31.9625 23.875 32.3125C24.2408 32.6625 24.8063 32.647 25.1562 32.2812C25.7079 31.7046 26.257 31.074 26.6875 30.5C28.0373 28.7002 28.8929 26.3438 28.625 24.4688C28.3514 22.5538 27.4908 20.6336 26.2188 18.9375C26.1077 18.7895 25.7767 18.4082 25.5 18.125C25.3145 17.9352 25.1485 17.7758 25 17.6562C24.8925 17.5697 24.795 17.4933 24.6875 17.4375C24.4014 17.289 24.1128 17.2561 23.75 17.4375Z" fill="#4a3a33" fill-rule="nonzero" opacity="1" stroke="none"/>
<path d="M18.25 19.7188C17.6504 20.2157 17.6455 20.2336 17.6875 20.25C17.6635 20.3036 17.5743 20.5429 17.5312 20.6562C17.4334 20.9141 17.312 21.1887 17.2188 21.4687C17.0382 22.0109 16.9688 22.5391 16.9688 22.9375C16.9688 23.4438 17.3687 23.8438 17.875 23.8437C18.3813 23.8437 18.7812 23.4438 18.7812 22.9375C18.7812 22.7367 18.8502 22.4185 18.9688 22.0625C18.9981 21.9742 19.0398 21.8672 19.0938 21.7187C19.286 21.7938 19.5003 21.8775 19.6562 21.9687C20.0925 22.224 20.3917 22.4237 20.6562 22.6562C21.0364 22.9906 21.6032 22.9739 21.9375 22.5937C22.2718 22.2136 22.2552 21.6156 21.875 21.2812C21.523 20.9717 21.1009 20.69 20.5625 20.375C19.8 19.9289 18.7116 19.5649 18.25 19.7188Z" fill="#4a3a33" fill-rule="nonzero" opacity="1" stroke="none"/>
<path d="M24 1.09375C11.3435 1.09375 1.09375 11.3435 1.09375 24C1.09375 36.6565 11.3435 46.9063 24 46.9062C36.6565 46.9062 46.9063 36.6565 46.9062 24C46.9062 11.3435 36.6565 1.09375 24 1.09375ZM24 2.90625C35.644 2.90625 45.0937 12.356 45.0938 24C45.0938 35.644 35.644 45.0937 24 45.0937C12.356 45.0937 2.90625 35.644 2.90625 24C2.90625 12.356 12.356 2.90625 24 2.90625Z" fill="#4a3a33" fill-rule="nonzero" opacity="0.992624" stroke="none"/>
<path d="M41.875 27.9688C40.9585 27.5105 39.7864 28.0852 39.125 29.125C38.7308 29.7447 37.6676 31.525 37.625 31.5938C37.3171 32.0907 37.0555 32.4966 36.7812 32.875C36.3228 33.5074 35.8358 34.0699 35.2188 34.6875C34.8168 35.0898 34.0871 35.2661 33.5312 35.4062C33.6569 35.1806 33.7685 34.9544 33.8438 34.8125C33.9791 34.557 34.1206 34.3229 34.2188 34.0938C34.848 32.6246 34.7415 31.3671 33.2188 31.0625C31.8834 30.7954 30.971 31.6048 30.125 33.0625C29.9657 33.337 29.5348 34.1711 29.4687 34.2812C29.3711 34.444 29.2958 34.5699 29.2188 34.7188C29.2061 34.7432 29.0171 35.13 28.9375 35.2812C28.8037 35.5357 28.635 35.8203 28.4062 36.2188C28.2457 36.4984 28.0302 36.8914 27.625 37.6875C26.5751 39.7502 25.9062 43.7062 25.9062 45.3438C25.9062 45.85 26.3062 46.25 26.8125 46.25C27.3188 46.25 27.75 45.85 27.75 45.3438C27.75 45.0573 27.8738 43.8045 28.0625 42.6875C28.3501 40.9847 28.7421 39.4979 29.25 38.5C29.6422 37.7295 29.8562 37.3755 30 37.125C30.2395 36.7078 30.4176 36.4005 30.5625 36.125C30.6505 35.9577 30.8335 35.5823 30.8438 35.5625C30.9034 35.4472 30.9536 35.3481 31.0312 35.2188C31.1322 35.0505 31.5891 34.1922 31.7188 33.9688C32.0832 33.3407 32.34 33.2622 32.5938 33.1562C32.5643 33.2421 32.5751 33.2727 32.5312 33.375C32.4552 33.5526 32.3635 33.7546 32.25 33.9688C32.1514 34.1549 31.7502 34.8121 31.6875 34.9375C31.6863 34.9398 31.5963 35.1286 31.5625 35.1875C31.4988 35.2986 31.4519 35.3937 31.4062 35.5C31.1826 36.0209 31.1492 36.5242 31.5938 36.9688C32.7316 38.1066 35.3128 37.1883 36.5 36C37.1855 35.3139 37.7352 34.6476 38.25 33.9375C38.5534 33.5189 38.858 33.0943 39.1875 32.5625C39.2405 32.4769 40.3073 30.7226 40.6875 30.125C40.7064 30.0953 40.7301 30.0897 40.75 30.0625C40.5663 30.9936 40.1901 32.0999 39.6875 32.9375C38.3094 35.2343 35.7753 37.8709 34.3125 38.7188C34.1805 38.7953 33.3564 39.2845 33.0938 39.4375C32.7731 39.6243 32.4952 39.7834 32.2188 39.9062C32.0561 39.9785 31.9184 40.0384 31.5938 40.1562C31.5817 40.1606 31.5746 40.1518 31.5625 40.1562C30.6258 40.4963 30.1578 40.7359 29.625 41.2188C29.1161 41.68 28.8961 42.3311 28.8437 43.1562C28.8227 43.4872 28.8517 43.7866 28.875 44.2188C28.894 44.5715 28.875 44.5348 28.875 44.5938C28.875 45.1 29.3062 45.5313 29.8125 45.5312C30.3188 45.5312 30.7187 45.1 30.7188 44.5938C30.7188 44.4825 30.7107 44.5551 30.6875 44.125C30.6678 43.7592 30.6721 43.523 30.6875 43.2812C30.7124 42.8886 30.8052 42.6258 30.875 42.5625C31.1795 42.2865 31.4634 42.1378 32.1875 41.875C32.1995 41.8706 32.7542 41.689 32.9688 41.5938C33.3131 41.4408 33.657 41.2493 34.0312 41.0312C34.3278 40.8585 35.1218 40.3687 35.2188 40.3125C36.9663 39.2997 39.7201 36.4249 41.25 33.875C41.9008 32.7903 42.4257 31.3832 42.625 30.1875C42.6826 29.8419 42.7098 29.6035 42.6875 29.3125C42.6441 28.7463 42.4056 28.2341 41.875 27.9688Z" fill="#4a3a33" fill-rule="nonzero" opacity="1" stroke="none"/>
<path d="M6.03125 27.7188C5.50063 27.9841 5.26219 28.4651 5.21875 29.0312C5.19642 29.3223 5.22366 29.5607 5.28125 29.9062C5.48053 31.1019 6.0054 32.5403 6.65625 33.625C8.1862 36.1749 10.94 39.0184 12.6875 40.0313C12.7844 40.0874 13.6097 40.6085 13.9062 40.7812C14.2805 40.9993 14.6244 41.1595 14.9688 41.3125C15.1833 41.4078 15.3542 41.4927 15.7188 41.625C16.4428 41.8878 16.758 42.0365 17.0625 42.3125C17.1323 42.3758 17.1938 42.6073 17.2188 43C17.2341 43.2418 17.2385 43.478 17.2188 43.8438C17.1956 44.2739 17.1875 44.2325 17.1875 44.3438C17.1875 44.85 17.6187 45.25 18.125 45.25C18.6313 45.25 19.0313 44.85 19.0312 44.3438C19.0312 44.2848 19.0435 44.3215 19.0625 43.9688C19.0858 43.5366 19.0835 43.2059 19.0625 42.875C19.0101 42.0499 18.7902 41.3987 18.2812 40.9375C17.7484 40.4546 17.2805 40.2463 16.3438 39.9062C16.3316 39.9018 15.8814 39.7285 15.7187 39.6562C15.4423 39.5334 15.1332 39.3743 14.8125 39.1875C14.5498 39.0345 13.757 38.514 13.625 38.4375C12.1622 37.5897 9.62807 34.953 8.25 32.6562C7.7473 31.8184 7.33988 30.7125 7.15625 29.7813C7.17619 29.8084 7.19985 29.814 7.21875 29.8438C7.59893 30.4414 8.66572 32.1957 8.71875 32.2812C9.04825 32.8131 9.35283 33.2689 9.65625 33.6875C10.171 34.3976 10.7207 35.0326 11.4062 35.7188C12.5935 36.9071 15.1747 37.8566 16.3125 36.7188C16.757 36.2742 16.7549 35.7397 16.5312 35.2188C16.4856 35.1125 16.4074 35.0173 16.3438 34.9062C16.31 34.8473 16.2199 34.6898 16.2188 34.6875C16.156 34.5621 15.7861 33.8736 15.6875 33.6875C15.574 33.4734 15.4823 33.3026 15.4062 33.125C15.3555 33.0065 15.344 32.971 15.3125 32.875C15.567 32.9792 15.8525 33.0564 16.2188 33.6875C16.3484 33.9109 16.774 34.7692 16.875 34.9375C16.9526 35.0669 17.0028 35.166 17.0625 35.2812C17.0727 35.3011 17.287 35.6765 17.375 35.8438C17.5199 36.1193 17.698 36.4578 17.9375 36.875C18.0813 37.1255 18.2641 37.4795 18.6562 38.25C19.1642 39.2479 19.5562 40.7035 19.8438 42.4063C20.0324 43.5233 20.1562 44.776 20.1562 45.0625C20.1562 45.5688 20.5875 46 21.0938 46C21.6 46 22 45.5688 22 45.0625C22 43.425 21.3312 39.4689 20.2812 37.4062C19.8761 36.6102 19.6918 36.2484 19.5312 35.9688C19.3025 35.5703 19.1338 35.2545 19 35C18.9204 34.8487 18.7314 34.4619 18.7188 34.4375C18.6417 34.2887 18.5664 34.1628 18.4688 34C18.4027 33.8899 17.9406 33.0558 17.7812 32.7812C16.9353 31.3235 16.0228 30.5454 14.6875 30.8125C13.1647 31.1171 13.0895 32.3746 13.7188 33.8438C13.8169 34.0729 13.9271 34.307 14.0625 34.5625C14.111 34.654 14.2309 34.8668 14.375 35.125C13.8178 34.9823 13.1181 34.8372 12.7187 34.4375C12.1017 33.8199 11.5834 33.2261 11.125 32.5938C10.8507 32.2154 10.5891 31.8407 10.2812 31.3438C10.2386 31.275 9.17544 29.4947 8.78125 28.875C8.11982 27.8352 6.94777 27.2605 6.03125 27.7188Z" fill="#4a3a33" fill-rule="nonzero" opacity="1" stroke="none"/>
</g>
</svg>
