<?xml version="1.0" encoding="UTF-8" standalone="no"?>
<!DOCTYPE svg PUBLIC "-//W3C//DTD SVG 1.1//EN" "http://www.w3.org/Graphics/SVG/1.1/DTD/svg11.dtd">
<!-- Created with Linearity Curve (http://linearity.io/curve) -->
<svg height="260.0px" stroke-miterlimit="10" style="fill-rule:nonzero;clip-rule:evenodd;stroke-linecap:round;stroke-linejoin:round;" version="1.1" viewBox="0 0 1420 260" width="1420.0px" xml:space="preserve" xmlns="http://www.w3.org/2000/svg" xmlns:xlink="http://www.w3.org/1999/xlink">
<defs>
<filter color-interpolation-filters="sRGB" filterUnits="userSpaceOnUse" height="99.7187" id="Filter" width="1138.48" x="263.938" y="29.6248">
<feGaussianBlur in="SourceGraphic" result="Blur" stdDeviation="0.391537"/>
</filter>
</defs>
<g id="Subtitle">
<g opacity="1">
<g fill="#ffffff" opacity="1" stroke="none">
<path d="M263.986 205.713L263.986 171.382L270.069 171.382L278.594 193.156C278.794 193.663 279.02 194.292 279.274 195.045C279.527 195.798 279.8 196.604 280.092 197.464C280.383 198.324 280.66 199.177 280.921 200.022C281.182 200.867 281.405 201.635 281.589 202.326L280.621 202.326C280.821 201.665 281.052 200.92 281.313 200.091C281.574 199.261 281.846 198.413 282.131 197.545C282.415 196.677 282.691 195.855 282.96 195.08C283.229 194.304 283.463 193.663 283.663 193.156L292.05 171.382L298.156 171.382L298.156 205.713L293.893 205.713L293.893 186.036C293.893 185.329 293.897 184.527 293.904 183.628C293.912 182.73 293.928 181.797 293.951 180.829C293.974 179.861 293.997 178.874 294.02 177.868C294.043 176.862 294.062 175.89 294.077 174.953L294.492 174.953C294.169 176.013 293.824 177.081 293.455 178.156C293.087 179.231 292.733 180.268 292.395 181.267C292.057 182.265 291.739 183.171 291.439 183.985C291.14 184.8 290.882 185.483 290.667 186.036L282.926 205.713L279.216 205.713L271.359 186.036C271.144 185.498 270.894 184.83 270.61 184.032C270.326 183.233 270.011 182.342 269.666 181.359C269.32 180.376 268.959 179.339 268.583 178.248C268.206 177.158 267.826 176.059 267.442 174.953L267.926 174.953C267.957 175.814 267.984 176.731 268.007 177.707C268.03 178.682 268.049 179.665 268.064 180.656C268.08 181.647 268.095 182.603 268.11 183.525C268.126 184.446 268.133 185.283 268.133 186.036L268.133 205.713L263.986 205.713Z"/>
<path d="M315.004 206.266C313.375 206.266 311.905 205.966 310.591 205.367C309.278 204.768 308.233 203.885 307.458 202.718C306.682 201.55 306.294 200.129 306.294 198.455C306.294 196.996 306.582 195.813 307.158 194.907C307.734 194.001 308.502 193.282 309.462 192.752C310.422 192.223 311.49 191.827 312.665 191.566C313.84 191.305 315.027 191.097 316.225 190.944C317.776 190.744 319.024 190.59 319.969 190.483C320.914 190.375 321.612 190.195 322.066 189.941C322.519 189.688 322.745 189.246 322.745 188.617L322.745 188.455C322.745 187.426 322.542 186.543 322.135 185.806C321.728 185.068 321.125 184.504 320.326 184.112C319.527 183.72 318.536 183.525 317.354 183.525C316.14 183.525 315.1 183.713 314.232 184.089C313.364 184.465 312.657 184.949 312.112 185.541C311.567 186.132 311.186 186.758 310.971 187.419L306.985 186.382C307.508 184.83 308.299 183.582 309.359 182.638C310.418 181.693 311.636 181.002 313.011 180.564C314.385 180.126 315.802 179.907 317.262 179.907C318.245 179.907 319.289 180.034 320.395 180.287C321.501 180.541 322.542 180.982 323.517 181.612C324.493 182.242 325.287 183.137 325.902 184.296C326.516 185.456 326.823 186.95 326.823 188.778L326.823 205.713L322.791 205.713L322.791 202.211L322.561 202.211C322.269 202.81 321.808 203.424 321.179 204.054C320.549 204.684 319.727 205.21 318.713 205.632C317.699 206.055 316.463 206.266 315.004 206.266ZM315.672 202.625C317.223 202.625 318.521 202.33 319.566 201.738C320.61 201.147 321.401 200.375 321.939 199.423C322.476 198.47 322.745 197.472 322.745 196.427L322.745 192.971C322.576 193.156 322.227 193.325 321.697 193.478C321.167 193.632 320.553 193.77 319.854 193.893C319.155 194.016 318.464 194.12 317.78 194.204C317.096 194.289 316.517 194.361 316.04 194.423C315.057 194.546 314.136 194.757 313.276 195.057C312.415 195.356 311.724 195.79 311.202 196.358C310.68 196.927 310.418 197.695 310.418 198.662C310.418 199.523 310.645 200.248 311.098 200.84C311.551 201.431 312.17 201.877 312.953 202.176C313.736 202.476 314.643 202.625 315.672 202.625Z"/>
<path d="M344.593 206.266C342.842 206.266 341.275 206.001 339.893 205.471C338.51 204.941 337.374 204.154 336.483 203.109C335.592 202.065 335.016 200.774 334.755 199.238L338.672 198.501C338.994 199.93 339.659 200.986 340.665 201.669C341.671 202.353 342.965 202.695 344.547 202.695C346.314 202.695 347.723 202.314 348.775 201.554C349.827 200.794 350.353 199.884 350.353 198.824C350.353 197.933 350.035 197.195 349.397 196.612C348.76 196.028 347.827 195.598 346.598 195.322L342.381 194.308C340.062 193.77 338.334 192.921 337.197 191.762C336.06 190.602 335.492 189.124 335.492 187.326C335.492 185.867 335.895 184.581 336.702 183.467C337.508 182.353 338.618 181.482 340.031 180.852C341.444 180.222 343.057 179.907 344.87 179.907C346.621 179.907 348.126 180.184 349.386 180.737C350.645 181.29 351.663 182.058 352.439 183.041C353.214 184.024 353.756 185.161 354.063 186.451L350.307 187.211C350.031 186.213 349.466 185.326 348.614 184.55C347.761 183.774 346.521 183.386 344.893 183.386C343.357 183.386 342.093 183.74 341.103 184.446C340.112 185.153 339.616 186.044 339.616 187.119C339.616 188.071 339.962 188.832 340.653 189.4C341.344 189.968 342.404 190.422 343.833 190.759L347.727 191.681C350.062 192.234 351.786 193.083 352.899 194.227C354.013 195.371 354.57 196.827 354.57 198.593C354.57 200.099 354.147 201.427 353.303 202.579C352.458 203.731 351.287 204.634 349.789 205.287C348.291 205.939 346.559 206.266 344.593 206.266Z"/>
<path d="M371.072 206.266C369.321 206.266 367.754 206.001 366.372 205.471C364.99 204.941 363.853 204.154 362.962 203.109C362.071 202.065 361.495 200.774 361.234 199.238L365.151 198.501C365.473 199.93 366.138 200.986 367.144 201.669C368.15 202.353 369.444 202.695 371.026 202.695C372.793 202.695 374.202 202.314 375.254 201.554C376.306 200.794 376.832 199.884 376.832 198.824C376.832 197.933 376.514 197.195 375.876 196.612C375.239 196.028 374.306 195.598 373.077 195.322L368.86 194.308C366.541 193.77 364.813 192.921 363.676 191.762C362.54 190.602 361.971 189.124 361.971 187.326C361.971 185.867 362.374 184.581 363.181 183.467C363.987 182.353 365.097 181.482 366.51 180.852C367.923 180.222 369.536 179.907 371.349 179.907C373.1 179.907 374.605 180.184 375.865 180.737C377.124 181.29 378.142 182.058 378.918 183.041C379.693 184.024 380.235 185.161 380.542 186.451L376.786 187.211C376.51 186.213 375.945 185.326 375.093 184.55C374.24 183.774 373 183.386 371.372 183.386C369.836 183.386 368.572 183.74 367.582 184.446C366.591 185.153 366.095 186.044 366.095 187.119C366.095 188.071 366.441 188.832 367.132 189.4C367.824 189.968 368.883 190.422 370.312 190.759L374.206 191.681C376.541 192.234 378.265 193.083 379.378 194.227C380.492 195.371 381.049 196.827 381.049 198.593C381.049 200.099 380.627 201.427 379.782 202.579C378.937 203.731 377.766 204.634 376.268 205.287C374.77 205.939 373.038 206.266 371.072 206.266Z"/>
<path d="M399.256 206.266C396.937 206.266 394.906 205.717 393.162 204.618C391.419 203.52 390.059 201.98 389.084 199.999C388.109 198.017 387.621 195.729 387.621 193.133C387.621 190.491 388.109 188.175 389.084 186.186C390.059 184.197 391.419 182.653 393.162 181.555C394.906 180.456 396.937 179.907 399.256 179.907C401.576 179.907 403.611 180.456 405.362 181.555C407.113 182.653 408.477 184.197 409.452 186.186C410.427 188.175 410.915 190.491 410.915 193.133C410.915 195.729 410.427 198.017 409.452 199.999C408.477 201.98 407.113 203.52 405.362 204.618C403.611 205.717 401.576 206.266 399.256 206.266ZM399.256 202.602C400.946 202.602 402.348 202.172 403.461 201.312C404.575 200.452 405.404 199.304 405.95 197.868C406.495 196.431 406.768 194.853 406.768 193.133C406.768 191.397 406.495 189.803 405.95 188.352C405.404 186.9 404.575 185.74 403.461 184.873C402.348 184.005 400.946 183.571 399.256 183.571C397.582 183.571 396.192 184.005 395.086 184.873C393.98 185.74 393.151 186.896 392.598 188.34C392.045 189.784 391.768 191.382 391.768 193.133C391.768 194.853 392.045 196.431 392.598 197.868C393.151 199.304 393.976 200.452 395.074 201.312C396.173 202.172 397.567 202.602 399.256 202.602Z"/>
<path d="M429.007 180.276L429.007 183.778L415.713 183.778L415.713 180.276L429.007 180.276ZM419.676 174.032L423.777 174.032L423.777 199.215C423.777 200.306 424.004 201.101 424.457 201.6C424.91 202.099 425.674 202.349 426.749 202.349C427.026 202.349 427.368 202.326 427.775 202.28C428.182 202.234 428.554 202.188 428.892 202.142L429.56 205.598C429.13 205.721 428.65 205.813 428.12 205.874C427.59 205.936 427.072 205.966 426.565 205.966C424.368 205.966 422.671 205.406 421.473 204.284C420.275 203.163 419.676 201.581 419.676 199.538L419.676 174.032Z"/>
<path d="M440.256 190.552L440.256 205.713L436.155 205.713L436.155 171.382L440.256 171.382L440.256 186.428L439.427 186.428C440.21 184.093 441.324 182.423 442.768 181.416C444.212 180.41 445.909 179.907 447.86 179.907C449.58 179.907 451.101 180.264 452.422 180.979C453.743 181.693 454.776 182.768 455.521 184.204C456.266 185.641 456.638 187.449 456.638 189.63L456.638 205.713L452.514 205.713L452.514 189.953C452.514 187.956 452 186.401 450.97 185.287C449.941 184.174 448.528 183.617 446.731 183.617C445.502 183.617 444.4 183.878 443.425 184.4C442.449 184.922 441.677 185.698 441.109 186.727C440.541 187.756 440.256 189.031 440.256 190.552Z"/>
<path d="M476.367 206.266C473.909 206.266 471.789 205.713 470.007 204.607C468.226 203.501 466.858 201.965 465.906 199.999C464.954 198.033 464.478 195.752 464.478 193.156C464.478 190.56 464.95 188.263 465.895 186.266C466.839 184.27 468.176 182.711 469.904 181.589C471.632 180.468 473.64 179.907 475.929 179.907C477.373 179.907 478.763 180.149 480.099 180.633C481.436 181.117 482.634 181.877 483.694 182.914C484.753 183.951 485.591 185.283 486.205 186.912C486.819 188.54 487.127 190.483 487.127 192.741L487.127 194.331L467.127 194.331L467.127 190.875L484.892 190.875L483.025 192.119C483.025 190.445 482.753 188.962 482.207 187.672C481.662 186.382 480.863 185.372 479.811 184.642C478.759 183.912 477.465 183.548 475.929 183.548C474.408 183.548 473.099 183.916 472 184.654C470.902 185.391 470.061 186.37 469.477 187.591C468.894 188.812 468.602 190.153 468.602 191.612L468.602 193.778C468.602 195.636 468.921 197.226 469.558 198.547C470.195 199.868 471.102 200.874 472.277 201.566C473.452 202.257 474.823 202.602 476.39 202.602C477.434 202.602 478.375 202.449 479.212 202.142C480.049 201.834 480.767 201.381 481.366 200.782C481.965 200.183 482.419 199.446 482.726 198.57L486.712 199.446C486.328 200.782 485.66 201.965 484.707 202.994C483.755 204.023 482.568 204.826 481.148 205.402C479.727 205.978 478.133 206.266 476.367 206.266ZM474.062 176.958L477.288 170.161L481.896 170.161L477.426 176.958L474.062 176.958Z"/>
<path d="M494.874 205.713L494.874 180.276L498.814 180.276L498.814 184.193L499.044 184.193C499.52 182.903 500.342 181.866 501.509 181.082C502.677 180.299 504.021 179.907 505.541 179.907C505.864 179.907 506.225 179.915 506.624 179.93C507.024 179.946 507.331 179.961 507.546 179.976L507.546 184.101C507.423 184.07 507.12 184.024 506.636 183.962C506.152 183.901 505.634 183.87 505.081 183.87C503.929 183.87 502.888 184.116 501.959 184.608C501.029 185.099 500.3 185.79 499.77 186.681C499.24 187.572 498.975 188.624 498.975 189.838L498.975 205.713L494.874 205.713Z"/>
<path d="M521.284 206.266C519.655 206.266 518.185 205.966 516.871 205.367C515.558 204.768 514.513 203.885 513.738 202.718C512.962 201.55 512.574 200.129 512.574 198.455C512.574 196.996 512.862 195.813 513.438 194.907C514.014 194.001 514.782 193.282 515.742 192.752C516.702 192.223 517.77 191.827 518.945 191.566C520.12 191.305 521.307 191.097 522.505 190.944C524.056 190.744 525.304 190.59 526.249 190.483C527.194 190.375 527.892 190.195 528.346 189.941C528.799 189.688 529.025 189.246 529.025 188.617L529.025 188.455C529.025 187.426 528.822 186.543 528.415 185.806C528.008 185.068 527.405 184.504 526.606 184.112C525.807 183.72 524.816 183.525 523.634 183.525C522.42 183.525 521.38 183.713 520.512 184.089C519.644 184.465 518.937 184.949 518.392 185.541C517.847 186.132 517.466 186.758 517.251 187.419L513.265 186.382C513.788 184.83 514.579 183.582 515.639 182.638C516.698 181.693 517.916 181.002 519.291 180.564C520.665 180.126 522.082 179.907 523.542 179.907C524.525 179.907 525.569 180.034 526.675 180.287C527.781 180.541 528.822 180.982 529.797 181.612C530.773 182.242 531.567 183.137 532.182 184.296C532.796 185.456 533.103 186.95 533.103 188.778L533.103 205.713L529.071 205.713L529.071 202.211L528.841 202.211C528.549 202.81 528.088 203.424 527.458 204.054C526.829 204.684 526.007 205.21 524.993 205.632C523.979 206.055 522.743 206.266 521.284 206.266ZM521.952 202.625C523.503 202.625 524.801 202.33 525.846 201.738C526.89 201.147 527.681 200.375 528.219 199.423C528.756 198.47 529.025 197.472 529.025 196.427L529.025 192.971C528.856 193.156 528.507 193.325 527.977 193.478C527.447 193.632 526.833 193.77 526.134 193.893C525.435 194.016 524.743 194.12 524.06 194.204C523.376 194.289 522.797 194.361 522.32 194.423C521.337 194.546 520.416 194.757 519.555 195.057C518.695 195.356 518.004 195.79 517.482 196.358C516.96 196.927 516.698 197.695 516.698 198.662C516.698 199.523 516.925 200.248 517.378 200.84C517.831 201.431 518.45 201.877 519.233 202.176C520.016 202.476 520.923 202.625 521.952 202.625Z"/>
<path d="M542.187 215.344L542.187 180.276L546.15 180.276L546.15 184.285L546.518 184.285C546.856 183.717 547.317 183.095 547.901 182.419C548.485 181.743 549.268 181.155 550.251 180.656C551.234 180.157 552.494 179.907 554.03 179.907C556.18 179.907 558.066 180.445 559.686 181.52C561.307 182.595 562.578 184.116 563.499 186.082C564.421 188.048 564.882 190.368 564.882 193.04C564.882 195.729 564.425 198.06 563.511 200.033C562.597 202.007 561.33 203.536 559.709 204.618C558.089 205.701 556.203 206.243 554.053 206.243C552.563 206.243 551.322 205.993 550.332 205.494C549.341 204.995 548.55 204.4 547.958 203.708C547.367 203.017 546.895 202.38 546.541 201.796L546.288 201.796L546.288 215.344L542.187 215.344ZM553.431 202.579C554.997 202.579 556.322 202.165 557.405 201.335C558.488 200.506 559.31 199.369 559.871 197.925C560.431 196.481 560.712 194.845 560.712 193.017C560.712 191.19 560.435 189.565 559.882 188.144C559.329 186.723 558.511 185.606 557.428 184.792C556.345 183.978 555.013 183.571 553.431 183.571C551.864 183.571 550.543 183.966 549.468 184.757C548.392 185.548 547.574 186.65 547.014 188.064C546.453 189.477 546.173 191.128 546.173 193.017C546.173 194.907 546.453 196.57 547.014 198.006C547.574 199.442 548.4 200.563 549.491 201.37C550.581 202.176 551.895 202.579 553.431 202.579Z"/>
<path d="M583.366 206.266C580.908 206.266 578.788 205.713 577.007 204.607C575.225 203.501 573.858 201.965 572.905 199.999C571.953 198.033 571.477 195.752 571.477 193.156C571.477 190.56 571.949 188.263 572.894 186.266C573.839 184.27 575.175 182.711 576.903 181.589C578.631 180.468 580.639 179.907 582.928 179.907C584.372 179.907 585.762 180.149 587.098 180.633C588.435 181.117 589.633 181.877 590.693 182.914C591.753 183.951 592.59 185.283 593.204 186.912C593.819 188.54 594.126 190.483 594.126 192.741L594.126 194.331L574.127 194.331L574.127 190.875L591.891 190.875L590.025 192.119C590.025 190.445 589.752 188.962 589.207 187.672C588.661 186.382 587.863 185.372 586.81 184.642C585.758 183.912 584.464 183.548 582.928 183.548C581.407 183.548 580.098 183.916 579 184.654C577.901 185.391 577.06 186.37 576.477 187.591C575.893 188.812 575.601 190.153 575.601 191.612L575.601 193.778C575.601 195.636 575.92 197.226 576.557 198.547C577.195 199.868 578.101 200.874 579.276 201.566C580.451 202.257 581.822 202.602 583.389 202.602C584.433 202.602 585.374 202.449 586.211 202.142C587.049 201.834 587.767 201.381 588.366 200.782C588.965 200.183 589.418 199.446 589.725 198.57L593.711 199.446C593.327 200.782 592.659 201.965 591.707 202.994C590.754 204.023 589.568 204.826 588.147 205.402C586.726 205.978 585.132 206.266 583.366 206.266Z"/>
<path d="M610.651 206.059C608.931 206.059 607.41 205.701 606.089 204.987C604.768 204.273 603.735 203.198 602.99 201.761C602.245 200.325 601.873 198.524 601.873 196.358L601.873 180.276L605.974 180.276L605.974 196.013C605.974 198.025 606.493 199.588 607.529 200.702C608.566 201.815 609.983 202.372 611.78 202.372C612.994 202.372 614.088 202.107 615.064 201.577C616.039 201.047 616.811 200.268 617.379 199.238C617.948 198.209 618.232 196.942 618.232 195.437L618.232 180.276L622.356 180.276L622.356 205.713L618.393 205.713L618.393 199.538L619.061 199.538C618.263 201.903 617.134 203.582 615.674 204.572C614.215 205.563 612.541 206.059 610.651 206.059Z"/>
<path d="M641.693 180.276L641.693 183.778L628.398 183.778L628.398 180.276L641.693 180.276ZM632.361 174.032L636.462 174.032L636.462 199.215C636.462 200.306 636.689 201.101 637.142 201.6C637.595 202.099 638.359 202.349 639.435 202.349C639.711 202.349 640.053 202.326 640.46 202.28C640.867 202.234 641.239 202.188 641.577 202.142L642.246 205.598C641.815 205.721 641.335 205.813 640.806 205.874C640.276 205.936 639.757 205.966 639.25 205.966C637.054 205.966 635.356 205.406 634.158 204.284C632.96 203.163 632.361 201.581 632.361 199.538L632.361 174.032Z"/>
<path d="M659.024 206.266C656.567 206.266 654.447 205.713 652.665 204.607C650.883 203.501 649.516 201.965 648.564 199.999C647.612 198.033 647.135 195.752 647.135 193.156C647.135 190.56 647.608 188.263 648.552 186.266C649.497 184.27 650.834 182.711 652.562 181.589C654.29 180.468 656.298 179.907 658.587 179.907C660.031 179.907 661.421 180.149 662.757 180.633C664.093 181.117 665.292 181.877 666.351 182.914C667.411 183.951 668.248 185.283 668.863 186.912C669.477 188.54 669.785 190.483 669.785 192.741L669.785 194.331L649.785 194.331L649.785 190.875L667.55 190.875L665.683 192.119C665.683 190.445 665.411 188.962 664.865 187.672C664.32 186.382 663.521 185.372 662.469 184.642C661.417 183.912 660.123 183.548 658.587 183.548C657.066 183.548 655.757 183.916 654.658 184.654C653.56 185.391 652.719 186.37 652.135 187.591C651.552 188.812 651.26 190.153 651.26 191.612L651.26 193.778C651.26 195.636 651.578 197.226 652.216 198.547C652.853 199.868 653.76 200.874 654.935 201.566C656.11 202.257 657.481 202.602 659.048 202.602C660.092 202.602 661.033 202.449 661.87 202.142C662.707 201.834 663.425 201.381 664.024 200.782C664.623 200.183 665.077 199.446 665.384 198.57L669.37 199.446C668.986 200.782 668.318 201.965 667.365 202.994C666.413 204.023 665.226 204.826 663.805 205.402C662.385 205.978 660.791 206.266 659.024 206.266Z"/>
</g>
</g>
</g>
<g id="Title">
<g opacity="1">
<g fill="#ffffff" filter="url(#Filter)" opacity="1" stroke="none">
<path d="M294.741 43.9226L294.741 46.2616C292.09 46.34 290.083 46.6327 288.719 47.1397C287.354 47.6467 286.438 48.5824 285.971 49.9469C285.503 51.3114 285.27 53.436 285.27 56.3207L285.279 114.327C285.28 117.134 285.514 119.239 285.982 120.643C286.45 122.046 287.366 122.962 288.731 123.39C290.095 123.819 292.103 124.033 294.754 124.033L303.291 124.031C306.955 124.031 309.938 123.64 312.237 122.86C314.537 122.08 316.369 120.852 317.733 119.176C319.098 117.499 320.13 115.257 320.832 112.451C321.533 109.644 322.078 106.213 322.467 102.159L325.157 102.158C324.923 104.575 324.807 107.772 324.808 111.748C324.808 113.23 324.867 115.354 324.984 118.122C325.102 120.89 325.316 123.755 325.629 126.718C321.652 126.562 317.169 126.465 312.18 126.427C307.19 126.389 302.746 126.37 298.847 126.371C297.132 126.371 294.93 126.372 292.24 126.372C289.55 126.372 286.646 126.392 283.527 126.432C280.408 126.471 277.251 126.511 274.054 126.55C270.858 126.59 267.817 126.649 264.932 126.727L264.932 124.388C267.583 124.232 269.59 123.92 270.955 123.452C272.319 122.984 273.235 122.048 273.702 120.645C274.17 119.241 274.404 117.136 274.403 114.329L274.394 56.3225C274.393 53.4378 274.159 51.3132 273.691 49.9489C273.223 48.5846 272.307 47.6491 270.942 47.1426C269.578 46.636 267.57 46.344 264.919 46.2664L264.919 43.9274C266.556 44.0051 268.7 44.0828 271.351 44.1603C274.002 44.2378 276.848 44.2764 279.888 44.2759C282.617 44.2754 285.327 44.236 288.016 44.1576C290.706 44.0792 292.948 44.0009 294.741 43.9226Z"/>
<path d="M360.587 64.8459C367.448 64.8448 372.808 66.9295 376.668 71.1001C380.528 75.2706 382.459 81.761 382.46 90.5711L341.177 90.5778L341.06 88.3558L371.233 88.3509C371.388 84.5306 371.076 81.0027 370.295 77.7672C369.515 74.5317 368.287 71.9396 366.61 69.9907C364.934 68.0418 362.77 67.0676 360.119 67.068C356.533 67.0686 353.356 68.8623 350.589 72.4492C347.821 76.0361 346.166 81.7278 345.621 89.5245L345.972 89.9923C345.816 91.1618 345.699 92.4482 345.622 93.8516C345.544 95.255 345.505 96.6584 345.505 98.0618C345.506 103.364 346.365 107.924 348.081 111.744C349.796 115.564 352.038 118.468 354.807 120.456C357.575 122.444 360.44 123.437 363.403 123.437C365.742 123.436 367.964 123.066 370.069 122.325C372.174 121.584 374.123 120.355 375.915 118.64C377.708 116.924 379.267 114.624 380.592 111.739L382.931 112.674C382.074 115.247 380.671 117.743 378.723 120.16C376.774 122.577 374.318 124.546 371.356 126.067C368.393 127.588 364.963 128.348 361.065 128.349C355.451 128.35 350.636 127.064 346.621 124.492C342.605 121.92 339.525 118.353 337.38 113.793C335.235 109.232 334.162 103.989 334.161 98.0637C334.16 91.2026 335.251 85.2966 337.433 80.3454C339.615 75.3942 342.694 71.5733 346.67 68.8829C350.646 66.1924 355.285 64.8467 360.587 64.8459Z"/>
<path d="M412.278 64.8376C415.397 64.8371 418.048 65.3434 420.231 66.3566C422.414 67.3698 424.012 68.3052 425.026 69.1626C427.599 71.2673 429.158 69.8637 429.703 64.9517L432.393 64.9513C432.238 67.1344 432.121 69.7267 432.044 72.7284C431.966 75.7301 431.928 79.7649 431.929 84.8327L429.239 84.8331C428.771 81.9484 427.971 79.1418 426.84 76.4132C425.709 73.6845 424.052 71.4433 421.869 69.6894C419.685 67.9355 416.839 67.0589 413.331 67.0594C410.602 67.0599 408.322 67.8204 406.49 69.341C404.658 70.8617 403.742 73.1033 403.742 76.066C403.743 78.405 404.445 80.4125 405.849 82.0886C407.252 83.7646 409.085 85.3236 411.346 86.7656C413.607 88.2077 416.063 89.7861 418.714 91.5009C421.677 93.3716 424.368 95.2813 426.785 97.2301C429.202 99.1789 431.132 101.323 432.575 103.661C434.018 106 434.739 108.768 434.74 111.964C434.74 115.551 433.805 118.553 431.934 120.97C430.064 123.387 427.627 125.22 424.626 126.468C421.625 127.716 418.331 128.34 414.744 128.34C413.029 128.341 411.411 128.205 409.891 127.932C408.37 127.659 406.908 127.25 405.505 126.705C404.725 126.315 403.926 125.847 403.107 125.302C402.288 124.756 401.489 124.171 400.709 123.548C399.93 122.924 399.228 122.944 398.604 123.607C397.981 124.269 397.513 125.575 397.202 127.525L394.512 127.525C394.667 125.03 394.784 121.989 394.861 118.403C394.939 114.817 394.977 110.061 394.976 104.135L397.666 104.135C398.212 108.501 398.992 112.321 400.006 115.595C401.021 118.87 402.619 121.423 404.803 123.255C406.986 125.087 410.027 126.002 413.925 126.002C415.484 126.001 417.063 125.65 418.661 124.948C420.26 124.246 421.604 123.077 422.696 121.439C423.787 119.802 424.332 117.619 424.332 114.89C424.331 111.459 423.083 108.653 420.588 106.47C418.093 104.287 414.935 101.988 411.114 99.5716C408.307 97.7788 405.675 95.986 403.219 94.1932C400.763 92.4004 398.774 90.3736 397.254 88.1128C395.733 85.8521 394.972 83.1234 394.972 79.9268C394.971 76.4183 395.77 73.5529 397.368 71.3306C398.966 69.1084 401.09 67.4707 403.741 66.4178C406.392 65.3648 409.237 64.8381 412.278 64.8376Z"/>
<path d="M566.296 43.8789L566.297 46.2179C563.646 46.2963 561.638 46.589 560.274 47.096C558.91 47.603 557.994 48.5387 557.526 49.9032C557.059 51.2677 556.825 53.3923 556.825 56.277L556.835 114.284C556.835 117.09 557.07 119.196 557.538 120.599C558.006 122.002 558.922 122.938 560.286 123.405C561.651 123.873 563.658 124.184 566.309 124.34L566.31 126.679C564.516 126.523 562.275 126.426 559.585 126.387C556.895 126.349 554.186 126.33 551.457 126.33C548.416 126.331 545.571 126.351 542.92 126.39C540.269 126.43 538.125 126.527 536.488 126.684L536.487 124.345C539.138 124.188 541.146 123.876 542.51 123.408C543.874 122.94 544.79 122.004 545.258 120.601C545.725 119.197 545.959 117.092 545.959 114.285L545.948 49.9635L546.416 50.3143L517.776 127.271L515.905 127.272L486.421 51.3765L486.431 113.126C486.432 115.932 486.686 118.135 487.193 119.733C487.7 121.331 488.713 122.462 490.234 123.124C491.754 123.787 494.035 124.195 497.076 124.351L497.076 126.69C495.673 126.534 493.84 126.437 491.579 126.398C489.318 126.36 487.174 126.341 485.147 126.341C483.198 126.341 481.229 126.361 479.241 126.4C477.253 126.44 475.596 126.537 474.271 126.694L474.27 124.355C476.921 124.198 478.929 123.789 480.293 123.126C481.657 122.463 482.573 121.332 483.041 119.734C483.508 118.135 483.742 115.933 483.742 113.126L483.732 56.2888C483.732 53.404 483.498 51.2795 483.03 49.9152C482.562 48.5509 481.645 47.6154 480.281 47.1089C478.916 46.6023 476.909 46.3102 474.258 46.2327L474.258 43.8937C475.583 43.9715 477.24 44.0492 479.228 44.1268C481.216 44.2045 483.185 44.2431 485.134 44.2428C486.849 44.2425 488.623 44.2033 490.455 44.125C492.287 44.0468 493.827 43.9685 495.074 43.8904L521.633 113.822L519.645 114.757L545.947 44.233C546.883 44.2329 547.799 44.2327 548.696 44.2326C549.592 44.2324 550.508 44.2323 551.444 44.2321C554.173 44.2317 556.882 44.1923 559.572 44.1139C562.262 44.0355 564.503 43.9572 566.296 43.8789Z"/>
<path d="M590.635 127.493C587.439 127.494 584.671 126.89 582.332 125.682C579.992 124.474 578.218 122.779 577.01 120.596C575.801 118.413 575.196 115.879 575.196 112.994C575.195 109.564 575.994 106.757 577.592 104.574C579.19 102.39 581.236 100.636 583.731 99.3099C586.225 97.9841 588.857 96.8726 591.624 95.9756C594.392 95.0785 597.023 94.2205 599.518 93.4014C602.013 92.5824 604.059 91.627 605.657 90.5352C607.255 89.4434 608.054 88.0009 608.054 86.2077L608.053 78.9569C608.052 75.6823 607.565 73.1875 606.59 71.4724C605.615 69.7573 604.309 68.6075 602.671 68.023C601.034 67.4385 599.202 67.1464 597.175 67.1468C595.225 67.1471 593.14 67.4203 590.918 67.9664C588.696 68.5125 586.923 69.6433 585.597 71.3588C587.079 71.6704 588.365 72.4499 589.457 73.6972C590.549 74.9444 591.095 76.5427 591.095 78.4918C591.095 80.4409 590.472 81.9809 589.225 83.1116C587.977 84.2423 586.379 84.8078 584.43 84.8081C582.169 84.8085 580.512 84.0876 579.459 82.6454C578.407 81.2032 577.88 79.5855 577.88 77.7922C577.879 75.7651 578.386 74.1278 579.399 72.8801C580.413 71.6325 581.699 70.4628 583.258 69.371C585.051 68.1233 587.37 67.0509 590.216 66.1538C593.062 65.2568 596.278 64.8079 599.864 64.8074C603.061 64.8068 605.79 65.1767 608.051 65.9171C610.312 66.6574 612.183 67.7291 613.665 69.1322C615.692 71.0031 617.018 73.2834 617.642 75.9731C618.266 78.6628 618.579 81.8789 618.579 85.6213L618.585 118.133C618.585 120.082 618.877 121.486 619.462 122.343C620.047 123.201 620.963 123.629 622.211 123.629C623.068 123.629 623.887 123.434 624.667 123.044C625.446 122.654 626.382 122.03 627.473 121.172L628.76 123.16C627.123 124.408 625.564 125.441 624.082 126.26C622.601 127.079 620.613 127.489 618.118 127.489C615.857 127.489 613.986 127.1 612.504 126.32C611.023 125.541 609.912 124.391 609.171 122.871C608.43 121.351 608.059 119.421 608.059 117.082C605.954 120.591 603.44 123.203 600.517 124.919C597.594 126.635 594.3 127.493 590.635 127.493ZM594.845 122.815C597.417 122.814 599.815 122.073 602.037 120.592C604.258 119.11 606.266 116.888 608.058 113.925L608.055 91.0026C607.119 92.3282 605.755 93.4394 603.962 94.3363C602.169 95.2332 600.22 96.1301 598.115 97.0271C596.01 97.924 594.003 98.9769 592.093 100.186C590.183 101.394 588.604 102.974 587.357 104.923C586.11 106.872 585.487 109.406 585.487 112.525C585.488 115.643 586.326 118.138 588.003 120.009C589.679 121.88 591.96 122.815 594.845 122.815Z"/>
<path d="M645.587 37.2C647.614 37.1997 649.368 37.9401 650.85 39.4212C652.331 40.9023 653.072 42.6565 653.073 44.6836C653.073 46.7107 652.333 48.465 650.851 49.9466C649.37 51.4282 647.616 52.1692 645.589 52.1695C643.562 52.1698 641.808 51.4294 640.326 49.9483C638.844 48.4672 638.103 46.7131 638.103 44.686C638.103 42.6589 638.843 40.9045 640.324 39.4229C641.805 37.9413 643.56 37.2004 645.587 37.2ZM651.673 65.1499L651.681 115.789C651.681 119.063 652.364 121.285 653.728 122.455C655.093 123.624 657.374 124.208 660.57 124.208L660.571 126.664C659.245 126.586 657.237 126.489 654.548 126.372C651.858 126.256 649.148 126.198 646.42 126.198C643.769 126.198 641.079 126.257 638.35 126.375C635.621 126.492 633.594 126.59 632.269 126.668L632.269 124.212C635.465 124.212 637.746 123.627 639.11 122.457C640.474 121.287 641.156 119.065 641.155 115.79L641.149 79.1854C641.149 75.677 640.525 73.0847 639.277 71.4086C638.029 69.7326 635.69 68.8948 632.26 68.8954L632.259 66.4394C634.754 66.6729 637.171 66.7895 639.51 66.7891C641.771 66.7887 643.935 66.652 646.001 66.3787C648.067 66.1055 649.957 65.6959 651.673 65.1499Z"/>
<path d="M705.82 64.7903C708.783 64.7898 711.258 65.1793 713.246 65.9586C715.235 66.7379 716.891 67.8292 718.217 69.2324C719.699 70.7914 720.752 72.7404 721.376 75.0793C722 77.4182 722.312 80.5758 722.313 84.552L722.318 115.777C722.318 119.052 723.001 121.274 724.366 122.443C725.73 123.612 728.011 124.197 731.207 124.196L731.208 126.652C729.882 126.574 727.855 126.477 725.126 126.361C722.398 126.244 719.747 126.186 717.174 126.187C714.601 126.187 712.087 126.246 709.631 126.363C707.175 126.481 705.323 126.578 704.076 126.657L704.075 124.201C706.882 124.2 708.87 123.615 710.039 122.445C711.209 121.276 711.793 119.054 711.792 115.779L711.787 81.9808C711.787 79.5639 711.591 77.3419 711.201 75.3148C710.811 73.2878 709.934 71.6506 708.569 70.4034C707.204 69.1562 705.119 68.5328 702.312 68.5332C699.037 68.5338 696.172 69.4698 693.717 71.3414C691.261 73.213 689.351 75.7667 687.987 79.0025C686.624 82.2383 685.942 85.8443 685.943 89.8206L685.947 115.783C685.947 119.058 686.532 121.28 687.702 122.449C688.872 123.618 690.86 124.203 693.667 124.202L693.667 126.658C692.42 126.58 690.568 126.483 688.112 126.367C685.656 126.25 683.142 126.192 680.569 126.193C677.996 126.193 675.345 126.252 672.616 126.369C669.887 126.487 667.86 126.584 666.535 126.663L666.535 124.207C669.731 124.206 672.012 123.621 673.376 122.451C674.74 121.282 675.422 119.06 675.421 115.785L675.415 79.1799C675.415 75.6714 674.791 73.0792 673.543 71.4031C672.295 69.727 669.956 68.8893 666.526 68.8898L666.525 66.4339C669.02 66.6674 671.437 66.784 673.776 66.7836C676.037 66.7832 678.201 66.6464 680.267 66.3732C682.333 66.1 684.223 65.6904 685.939 65.1443L685.941 78.9443C687.967 73.6423 690.793 69.958 694.418 67.8913C698.043 65.8246 701.844 64.7909 705.82 64.7903Z"/>
<path d="M757.277 64.782C760.396 64.7815 763.047 65.2879 765.23 66.3011C767.413 67.3143 769.012 68.2496 770.026 69.1071C772.599 71.2117 774.158 69.8081 774.703 64.8962L777.393 64.8957C777.237 67.0788 777.121 69.6712 777.043 72.6729C776.966 75.6746 776.927 79.7093 776.928 84.7771L774.238 84.7776C773.77 81.8929 772.97 79.0862 771.839 76.3576C770.708 73.629 769.051 71.3877 766.868 69.6338C764.685 67.88 761.839 67.0033 758.33 67.0039C755.601 67.0043 753.321 67.7648 751.489 69.2855C749.657 70.8061 748.741 73.0478 748.742 76.0105C748.742 78.3495 749.444 80.357 750.848 82.033C752.252 83.7091 754.084 85.2681 756.345 86.7101C758.607 88.1521 761.063 89.7305 763.714 91.4453C766.677 93.316 769.367 95.2258 771.784 97.1745C774.202 99.1233 776.132 101.267 777.574 103.606C779.017 105.945 779.739 108.712 779.739 111.909C779.74 115.495 778.805 118.497 776.934 120.914C775.063 123.332 772.627 125.164 769.625 126.412C766.624 127.66 763.33 128.284 759.744 128.285C758.028 128.285 756.41 128.149 754.89 127.876C753.37 127.604 751.908 127.195 750.504 126.649C749.725 126.259 748.925 125.792 748.107 125.246C747.288 124.7 746.489 124.116 745.709 123.492C744.929 122.869 744.227 122.888 743.604 123.551C742.98 124.214 742.513 125.52 742.201 127.469L739.511 127.47C739.667 124.975 739.783 121.934 739.861 118.347C739.938 114.761 739.976 110.005 739.975 104.08L742.665 104.079C743.212 108.445 743.992 112.265 745.006 115.54C746.02 118.814 747.619 121.367 749.802 123.199C751.985 125.031 755.026 125.947 758.925 125.946C760.484 125.946 762.063 125.595 763.661 124.893C765.259 124.191 766.604 123.021 767.695 121.384C768.786 119.746 769.332 117.563 769.331 114.834C769.331 111.404 768.083 108.597 765.587 106.415C763.092 104.232 759.934 101.932 756.113 99.516C753.306 97.7233 750.675 95.9305 748.219 94.1377C745.762 92.3448 743.774 90.318 742.253 88.0573C740.732 85.7965 739.972 83.0678 739.971 79.8712C739.971 76.3627 740.769 73.4974 742.367 71.2751C743.965 69.0528 746.09 67.4152 748.74 66.3622C751.391 65.3092 754.237 64.7825 757.277 64.782Z"/>
<path d="M870.947 34.9417L870.96 113.882C870.96 117.391 871.604 119.983 872.891 121.659C874.177 123.335 876.497 124.173 879.849 124.172L879.85 126.628C877.433 126.395 875.016 126.278 872.599 126.279C870.338 126.279 868.174 126.396 866.108 126.63C864.042 126.865 862.152 127.294 860.437 127.918L860.424 48.9773C860.423 45.4688 859.799 42.8766 858.551 41.2005C857.304 39.5244 854.965 38.6867 851.534 38.6872L851.534 36.2313C854.029 36.4648 856.446 36.5813 858.785 36.581C861.046 36.5806 863.209 36.4438 865.275 36.1706C867.341 35.8974 869.232 35.4878 870.947 34.9417ZM846.392 64.7677C849.823 64.7671 853.039 65.5852 856.041 67.222C859.043 68.8588 861.051 71.6653 862.065 75.6414L860.545 76.8111C859.453 73.5367 857.757 71.159 855.457 69.6781C853.157 68.1971 850.447 67.4568 847.329 67.4573C842.729 67.4581 838.889 69.8367 835.81 74.5931C832.731 79.3495 831.232 86.6785 831.311 96.5802C831.312 102.895 831.917 108.139 833.126 112.31C834.336 116.481 836.129 119.599 838.508 121.665C840.886 123.73 843.79 124.763 847.221 124.762C850.495 124.762 853.458 123.358 856.108 120.551C858.759 117.744 860.356 113.611 860.901 108.153L862.305 109.79C861.682 115.716 859.792 120.277 856.635 123.474C853.478 126.672 849.209 128.27 843.83 128.271C838.996 128.272 834.766 127.103 831.14 124.765C827.515 122.427 824.746 118.919 822.835 114.241C820.924 109.563 819.968 103.677 819.967 96.582C819.966 89.4871 821.193 83.581 823.648 78.8637C826.103 74.1463 829.338 70.6179 833.353 68.2782C837.368 65.9386 841.715 64.7684 846.392 64.7677Z"/>
<path d="M914.106 64.7568C920.967 64.7556 926.327 66.8404 930.187 71.0109C934.047 75.1815 935.978 81.6718 935.98 90.482L894.697 90.4887L894.579 88.2666L924.752 88.2618C924.907 84.4414 924.595 80.9135 923.815 77.6781C923.035 74.4426 921.806 71.8504 920.13 69.9015C918.453 67.9527 916.289 66.9784 913.638 66.9789C910.052 66.9794 906.875 68.7732 904.108 72.36C901.341 75.9469 899.685 81.6387 899.14 89.4354L899.491 89.9031C899.336 91.0726 899.219 92.3591 899.141 93.7625C899.063 95.1659 899.025 96.5693 899.025 97.9727C899.026 103.274 899.884 107.835 901.6 111.655C903.316 115.475 905.558 118.379 908.326 120.367C911.094 122.355 913.959 123.348 916.922 123.348C919.261 123.347 921.483 122.977 923.588 122.236C925.693 121.495 927.642 120.266 929.435 118.551C931.228 116.835 932.787 114.535 934.112 111.65L936.451 112.585C935.594 115.158 934.191 117.653 932.242 120.071C930.293 122.488 927.838 124.457 924.875 125.978C921.913 127.499 918.482 128.259 914.584 128.26C908.97 128.261 904.156 126.975 900.14 124.403C896.124 121.831 893.044 118.264 890.899 113.704C888.755 109.143 887.682 103.9 887.681 97.9745C887.68 91.1135 888.77 85.2074 890.953 80.2562C893.135 75.305 896.214 71.4842 900.19 68.7937C904.165 66.1033 908.804 64.7576 914.106 64.7568Z"/>
<path d="M1000.53 42.5225C1004.43 42.5219 1007.39 42.9697 1009.42 43.866C1011.44 44.7623 1013.24 45.7561 1014.8 46.8473C1015.73 47.393 1016.49 47.8022 1017.08 48.0749C1017.66 48.3477 1018.23 48.4841 1018.77 48.484C1019.55 48.4839 1020.12 48.055 1020.47 47.1973C1020.82 46.3396 1021.11 45.0531 1021.34 43.3378L1024.03 43.3374C1023.96 44.6628 1023.86 46.2417 1023.74 48.0739C1023.63 49.9061 1023.55 52.323 1023.51 55.3247C1023.47 58.3264 1023.45 62.2832 1023.45 67.1951L1020.76 67.1955C1020.53 63.4532 1019.71 59.8669 1018.31 56.4366C1016.9 53.0063 1014.86 50.1999 1012.16 48.0173C1009.47 45.8346 1005.95 44.7437 1001.58 44.7444C997.448 44.7451 994.038 45.9931 991.348 48.4884C988.659 50.9838 987.314 54.2585 987.315 58.3128C987.316 61.8212 988.213 64.7643 990.006 67.142C991.8 69.5197 994.198 71.6633 997.2 73.573C1000.2 75.4827 1003.46 77.5288 1006.97 79.7113C1011.02 82.2055 1014.63 84.6804 1017.78 87.1358C1020.94 89.5912 1023.44 92.3001 1025.27 95.2625C1027.1 98.2249 1028.02 101.811 1028.02 106.021C1028.02 111.011 1026.89 115.144 1024.63 118.419C1022.37 121.693 1019.37 124.15 1015.63 125.788C1011.89 127.426 1007.75 128.245 1003.23 128.246C999.099 128.246 995.824 127.779 993.407 126.844C990.99 125.909 988.924 124.934 987.209 123.921C985.493 122.83 984.168 122.284 983.232 122.285C982.452 122.285 981.887 122.714 981.536 123.571C981.186 124.429 980.894 125.715 980.66 127.431L977.97 127.431C978.126 125.794 978.223 123.864 978.262 121.642C978.3 119.42 978.339 116.516 978.377 112.929C978.416 109.343 978.434 104.821 978.433 99.3633L981.123 99.3629C981.436 104.041 982.314 108.407 983.757 112.461C985.2 116.515 987.422 119.769 990.424 122.225C993.426 124.68 997.422 125.908 1002.41 125.907C1004.99 125.906 1007.42 125.38 1009.72 124.327C1012.02 123.274 1013.91 121.597 1015.39 119.297C1016.87 116.997 1017.61 114.015 1017.61 110.35C1017.61 107.154 1016.85 104.366 1015.33 101.989C1013.81 99.611 1011.69 97.3893 1008.96 95.3236C1006.23 93.258 1003.03 91.1339 999.366 88.9515C995.701 86.691 992.27 84.3916 989.073 82.0531C985.876 79.7147 983.322 77.0058 981.412 73.9264C979.501 70.8471 978.545 67.1243 978.544 62.7582C978.544 58.1583 979.576 54.3572 981.642 51.3552C983.707 48.3532 986.416 46.1307 989.769 44.6878C993.121 43.2449 996.707 42.5231 1000.53 42.5225Z"/>
<path d="M1065.55 64.7324C1072.42 64.7313 1077.78 66.816 1081.64 70.9865C1085.5 75.1571 1087.43 81.6475 1087.43 90.4576L1046.15 90.4643L1046.03 88.2422L1076.2 88.2374C1076.36 84.417 1076.04 80.8891 1075.26 77.6537C1074.48 74.4182 1073.26 71.826 1071.58 69.8771C1069.9 67.9283 1067.74 66.954 1065.09 66.9545C1061.5 66.955 1058.32 68.7488 1055.56 72.3357C1052.79 75.9225 1051.13 81.6143 1050.59 89.411L1050.94 89.8787C1050.78 91.0483 1050.67 92.3347 1050.59 93.7381C1050.51 95.1415 1050.47 96.5449 1050.47 97.9483C1050.47 103.25 1051.33 107.811 1053.05 111.631C1054.76 115.451 1057.01 118.355 1059.77 120.343C1062.54 122.33 1065.41 123.324 1068.37 123.323C1070.71 123.323 1072.93 122.952 1075.04 122.211C1077.14 121.47 1079.09 120.242 1080.88 118.526C1082.68 116.811 1084.24 114.511 1085.56 111.626L1087.9 112.561C1087.04 115.134 1085.64 117.629 1083.69 120.046C1081.74 122.464 1079.29 124.433 1076.32 125.953C1073.36 127.474 1069.93 128.235 1066.03 128.236C1060.42 128.236 1055.6 126.951 1051.59 124.379C1047.57 121.806 1044.49 118.24 1042.35 113.679C1040.2 109.119 1039.13 103.876 1039.13 97.9501C1039.13 91.0891 1040.22 85.183 1042.4 80.2318C1044.58 75.2806 1047.66 71.4598 1051.64 68.7693C1055.61 66.0789 1060.25 64.7332 1065.55 64.7324ZM1077.95 31.5169C1078.88 32.2964 1079.41 33.3098 1079.53 34.5573C1079.64 35.8047 1079.12 37.2082 1077.95 38.7677C1076.78 40.2492 1075.34 41.7308 1073.62 43.2125C1071.91 44.6941 1069.9 46.4681 1067.6 48.5346C1065.3 50.6011 1062.59 53.2718 1059.47 56.5469L1058.19 55.4946C1060.6 51.6739 1062.53 48.399 1063.97 45.6699C1065.41 42.9409 1066.64 40.5627 1067.66 38.5355C1068.67 36.5082 1069.76 34.7538 1070.93 33.2722C1072.1 31.7127 1073.33 30.8549 1074.61 30.6988C1075.9 30.5426 1077.01 30.8153 1077.95 31.5169Z"/>
<path d="M1132.68 64.7216C1134.79 64.7212 1136.64 65.1497 1138.24 66.0071C1139.84 66.8645 1141.08 67.9753 1141.98 69.3395C1142.88 70.7038 1143.33 72.2436 1143.33 73.9588C1143.33 75.908 1142.72 77.6233 1141.52 79.1049C1140.31 80.5864 1138.69 81.3273 1136.66 81.3277C1135.03 81.3279 1133.58 80.8019 1132.34 79.7496C1131.09 78.6972 1130.46 77.1965 1130.46 75.2473C1130.46 73.766 1130.87 72.499 1131.69 71.4463C1132.51 70.3936 1133.42 69.5553 1134.44 68.9314C1133.89 68.1519 1133.07 67.7622 1131.98 67.7623C1129.57 67.7627 1127.34 68.4843 1125.32 69.927C1123.29 71.3697 1121.57 73.2216 1120.17 75.4829C1118.77 77.7441 1117.68 80.1417 1116.9 82.6758C1116.12 85.2098 1115.73 87.5683 1115.73 89.7514L1115.73 114.545C1115.73 118.365 1116.85 120.918 1119.07 122.204C1121.29 123.49 1124.31 124.133 1128.13 124.132L1128.13 126.588C1126.34 126.511 1123.81 126.414 1120.53 126.297C1117.26 126.181 1113.79 126.123 1110.12 126.123C1107.47 126.124 1104.84 126.183 1102.23 126.3C1099.62 126.417 1097.65 126.515 1096.32 126.593L1096.32 124.137C1099.52 124.137 1101.8 123.552 1103.16 122.382C1104.53 121.212 1105.21 118.99 1105.21 115.716L1105.2 79.1107C1105.2 75.6022 1104.58 73.01 1103.33 71.3339C1102.08 69.6578 1099.74 68.8201 1096.31 68.8206L1096.31 66.3647C1098.81 66.5982 1101.22 66.7148 1103.56 66.7144C1105.82 66.714 1107.99 66.5772 1110.05 66.304C1112.12 66.0308 1114.01 65.6212 1115.73 65.0751L1115.73 79.6938C1116.59 77.4326 1117.81 75.1519 1119.41 72.8516C1121.01 70.5514 1122.94 68.6214 1125.2 67.0617C1127.46 65.5021 1129.95 64.722 1132.68 64.7216Z"/>
<path d="M1174.43 64.7148C1181.3 64.7137 1186.66 66.7985 1190.52 70.969C1194.38 75.1396 1196.31 81.6299 1196.31 90.4401L1155.02 90.4467L1154.91 88.2247L1185.08 88.2199C1185.24 84.3995 1184.92 80.8716 1184.14 77.6361C1183.36 74.4007 1182.13 71.8085 1180.46 69.8596C1178.78 67.9107 1176.62 66.9365 1173.97 66.9369C1170.38 66.9375 1167.2 68.7312 1164.44 72.3181C1161.67 75.905 1160.01 81.5968 1159.47 89.3935L1159.82 89.8612C1159.66 91.0307 1159.55 92.3172 1159.47 93.7206C1159.39 95.124 1159.35 96.5274 1159.35 97.9308C1159.35 103.232 1160.21 107.793 1161.93 111.613C1163.64 115.433 1165.89 118.337 1168.65 120.325C1171.42 122.313 1174.29 123.306 1177.25 123.306C1179.59 123.305 1181.81 122.935 1183.92 122.194C1186.02 121.453 1187.97 120.224 1189.76 118.509C1191.56 116.793 1193.12 114.493 1194.44 111.608L1196.78 112.543C1195.92 115.116 1194.52 117.612 1192.57 120.029C1190.62 122.446 1188.17 124.415 1185.2 125.936C1182.24 127.457 1178.81 128.217 1174.91 128.218C1169.3 128.219 1164.48 126.933 1160.47 124.361C1156.45 121.789 1153.37 118.222 1151.23 113.662C1149.08 109.101 1148.01 103.858 1148.01 97.9326C1148.01 91.0716 1149.1 85.1655 1151.28 80.2143C1153.46 75.2631 1156.54 71.4423 1160.52 68.7518C1164.49 66.0613 1169.13 64.7157 1174.43 64.7148ZM1186.83 31.4993C1187.76 32.2788 1188.29 33.2923 1188.4 34.5397C1188.52 35.7872 1188 37.1907 1186.83 38.7502C1185.66 40.2317 1184.22 41.7133 1182.5 43.1949C1180.79 44.6766 1178.78 46.4506 1176.48 48.5171C1174.18 50.5835 1171.47 53.2543 1168.35 56.5294L1167.07 55.477C1169.48 51.6563 1171.41 48.3814 1172.85 45.6524C1174.29 42.9234 1175.52 40.5452 1176.54 38.5179C1177.55 36.4906 1178.64 34.7362 1179.81 33.2547C1180.98 31.6952 1182.21 30.8374 1183.49 30.6812C1184.78 30.5251 1185.89 30.7978 1186.83 31.4993Z"/>
<path d="M1244.49 64.7035C1247.45 64.7031 1249.92 65.0925 1251.91 65.8718C1253.9 66.6512 1255.56 67.7424 1256.88 69.1456C1258.37 70.7047 1259.42 72.6537 1260.04 74.9926C1260.67 77.3314 1260.98 80.489 1260.98 84.4653L1260.98 115.691C1260.99 118.965 1261.67 121.187 1263.03 122.356C1264.4 123.526 1266.68 124.11 1269.87 124.11L1269.87 126.565C1268.55 126.488 1266.52 126.391 1263.79 126.274C1261.06 126.158 1258.41 126.1 1255.84 126.1C1253.27 126.1 1250.75 126.159 1248.3 126.277C1245.84 126.394 1243.99 126.492 1242.74 126.57L1242.74 124.114C1245.55 124.113 1247.54 123.528 1248.71 122.359C1249.88 121.189 1250.46 118.967 1250.46 115.692L1250.45 81.8941C1250.45 79.4771 1250.26 77.2551 1249.87 75.2281C1249.48 73.201 1248.6 71.5639 1247.24 70.3167C1245.87 69.0694 1243.79 68.446 1240.98 68.4465C1237.7 68.447 1234.84 69.3831 1232.38 71.2546C1229.93 73.1262 1228.02 75.6799 1226.65 78.9157C1225.29 82.1515 1224.61 85.7576 1224.61 89.7338L1224.61 115.696C1224.61 118.971 1225.2 121.193 1226.37 122.362C1227.54 123.532 1229.53 124.116 1232.33 124.116L1232.33 126.572C1231.09 126.494 1229.23 126.397 1226.78 126.28C1224.32 126.163 1221.81 126.105 1219.24 126.106C1216.66 126.106 1214.01 126.165 1211.28 126.283C1208.55 126.4 1206.53 126.498 1205.2 126.576L1205.2 124.12C1208.4 124.119 1210.68 123.534 1212.04 122.365C1213.41 121.195 1214.09 118.973 1214.09 115.698L1214.08 79.0932C1214.08 75.5847 1213.46 72.9924 1212.21 71.3164C1210.96 69.6403 1208.62 68.8025 1205.19 68.8031L1205.19 66.3472C1207.69 66.5807 1210.1 66.6972 1212.44 66.6968C1214.7 66.6965 1216.87 66.5597 1218.93 66.2865C1221 66.0133 1222.89 65.6036 1224.61 65.0576L1224.61 78.8576C1226.63 73.5556 1229.46 69.8712 1233.08 67.8045C1236.71 65.7378 1240.51 64.7042 1244.49 64.7035Z"/>
<path d="M1288.34 37.0965C1290.37 37.0962 1292.12 37.8366 1293.6 39.3177C1295.08 40.7988 1295.82 42.5529 1295.82 44.5801C1295.82 46.6072 1295.08 48.3615 1293.6 49.8431C1292.12 51.3247 1290.37 52.0657 1288.34 52.066C1286.31 52.0663 1284.56 51.3259 1283.08 49.8448C1281.6 48.3637 1280.85 46.6096 1280.85 44.5825C1280.85 42.5554 1281.59 40.801 1283.08 39.3194C1284.56 37.8378 1286.31 37.0969 1288.34 37.0965ZM1294.42 65.0464L1294.43 115.685C1294.43 118.96 1295.12 121.182 1296.48 122.351C1297.84 123.52 1300.13 124.105 1303.32 124.104L1303.32 126.56C1302 126.482 1299.99 126.385 1297.3 126.269C1294.61 126.152 1291.9 126.094 1289.17 126.095C1286.52 126.095 1283.83 126.154 1281.1 126.271C1278.37 126.389 1276.35 126.486 1275.02 126.565L1275.02 124.109C1278.22 124.108 1280.5 123.523 1281.86 122.353C1283.23 121.184 1283.91 118.962 1283.91 115.687L1283.9 79.0819C1283.9 75.5735 1283.28 72.9812 1282.03 71.3051C1280.78 69.6291 1278.44 68.7913 1275.01 68.7918L1275.01 66.3359C1277.51 66.5694 1279.92 66.686 1282.26 66.6856C1284.52 66.6852 1286.69 66.5484 1288.75 66.2752C1290.82 66.002 1292.71 65.5924 1294.42 65.0464Z"/>
<path d="M1328.1 46.9138L1328.11 66.4443L1345.41 66.4415L1345.41 68.7805L1328.11 68.7833L1328.11 114.043C1328.11 117.707 1328.78 120.28 1330.1 121.761C1331.43 123.242 1333.26 123.982 1335.6 123.982C1337.94 123.982 1339.97 123.026 1341.68 121.116C1343.4 119.205 1344.88 115.989 1346.12 111.467L1348.46 112.051C1347.68 116.573 1346.14 120.394 1343.84 123.513C1341.54 126.632 1338.02 128.192 1333.26 128.193C1330.61 128.193 1328.43 127.862 1326.71 127.2C1325 126.537 1323.48 125.582 1322.15 124.335C1320.43 122.542 1319.25 120.398 1318.58 117.903C1317.92 115.409 1317.59 112.095 1317.59 107.963L1317.58 68.785L1306.35 68.7868L1306.35 66.4478L1317.58 66.446L1317.58 48.5528C1319.53 48.4745 1321.4 48.3183 1323.19 48.0841C1324.98 47.8499 1326.62 47.4598 1328.1 46.9138Z"/>
<path d="M1379.09 64.6819C1385.96 64.6808 1391.32 66.7655 1395.18 70.936C1399.04 75.1066 1400.97 81.597 1400.97 90.4071L1359.69 90.4138L1359.57 88.1918L1389.74 88.1869C1389.9 84.3665 1389.58 80.8386 1388.8 77.6032C1388.02 74.3677 1386.8 71.7755 1385.12 69.8267C1383.44 67.8778 1381.28 66.9035 1378.63 66.904C1375.04 66.9046 1371.86 68.6983 1369.1 72.2852C1366.33 75.872 1364.67 81.5638 1364.13 89.3605L1364.48 89.8283C1364.32 90.9978 1364.21 92.2842 1364.13 93.6876C1364.05 95.091 1364.01 96.4944 1364.01 97.8978C1364.01 103.199 1364.87 107.76 1366.59 111.58C1368.3 115.4 1370.55 118.304 1373.31 120.292C1376.08 122.28 1378.95 123.273 1381.91 123.273C1384.25 123.272 1386.47 122.902 1388.58 122.161C1390.68 121.42 1392.63 120.191 1394.42 118.476C1396.22 116.76 1397.78 114.46 1399.1 111.575L1401.44 112.51C1400.58 115.083 1399.18 117.579 1397.23 119.996C1395.28 122.413 1392.83 124.382 1389.86 125.903C1386.9 127.424 1383.47 128.184 1379.57 128.185C1373.96 128.186 1369.14 126.9 1365.13 124.328C1361.11 121.756 1358.03 118.189 1355.89 113.629C1353.74 109.068 1352.67 103.825 1352.67 97.8996C1352.67 91.0386 1353.76 85.1325 1355.94 80.1813C1358.12 75.2301 1361.2 71.4093 1365.18 68.7189C1369.15 66.0284 1373.79 64.6827 1379.09 64.6819ZM1391.49 31.4664C1392.42 32.2459 1392.95 33.2594 1393.07 34.5068C1393.18 35.7542 1392.66 37.1577 1391.49 38.7172C1390.32 40.1987 1388.88 41.6803 1387.16 43.162C1385.45 44.6436 1383.44 46.4176 1381.14 48.4841C1378.84 50.5506 1376.13 53.2213 1373.01 56.4964L1371.73 55.4441C1374.14 51.6234 1376.07 48.3485 1377.51 45.6194C1378.96 42.8904 1380.18 40.5122 1381.2 38.485C1382.21 36.4577 1383.3 34.7033 1384.47 33.2217C1385.64 31.6622 1386.87 30.8044 1388.15 30.6483C1389.44 30.4921 1390.55 30.7648 1391.49 31.4664Z"/>
</g>
</g>
</g>
<g id="Logo">
<g opacity="1">
<path d="M103.801 134.06C101.373 134.06 87.6443 130.099 86.6328 131.111C84.5648 133.179 89.5892 144.004 91.9354 147.819C99.0889 159.45 119.484 168.694 135.398 167.026C152.126 165.273 164.049 159.104 172.472 144.908C174.382 141.69 178.206 135.1 176.264 131.216C176.135 130.958 175.121 131.111 174.895 131.111C170.993 131.111 166.831 132.48 162.782 132.48" fill="none" opacity="1" stroke="#ffffff" stroke-linecap="round" stroke-linejoin="round" stroke-width="3.6211"/>
<path d="M160.465 142.486C161.336 140.003 161.868 137.227 162.256 134.902C163.101 129.831 162.77 125.352 161.94 120.368C161.789 119.464 160.847 113.205 159.412 113.205C156.559 113.205 147.641 118.09 144.561 119.63" fill="none" opacity="1" stroke="#ffffff" stroke-linecap="round" stroke-linejoin="round" stroke-width="3.6211"/>
<path d="M132.449 166.71C135.4 163.626 137.915 160.475 139.4 158.495C144.394 151.836 149.159 141.279 147.932 132.691C146.664 123.819 142.597 115.256 137.188 108.045C136.597 107.257 131.636 101.605 130.764 102.041C128.46 103.193 126.009 106.099 123.687 109.027C115.992 118.727 111.598 132.085 115.826 143.96C116.692 146.391 119.817 154.526 122.548 157.377" fill="none" opacity="1" stroke="#ffffff" stroke-linecap="round" stroke-linejoin="round" stroke-width="3.6211"/>
<path d="M100.43 124.686C100.43 123.644 100.632 121.602 101.483 119.046C102.424 116.219 103.512 113.441 103.586 113.416C103.954 113.294 107.994 114.274 111.198 116.149C113.897 117.727 115.584 119.046 116.761 120.081" fill="none" opacity="1" stroke="#ffffff" stroke-linecap="round" stroke-linejoin="round" stroke-width="3.6211"/>
<path d="M23.819 129.814C23.819 71.1721 71.3579 23.6333 130 23.6333C188.642 23.6333 236.181 71.1721 236.181 129.814C236.181 188.456 188.642 235.995 130 235.995C71.3579 235.995 23.819 188.456 23.819 129.814Z" fill="none" opacity="0.992624" stroke="#ffffff" stroke-linecap="butt" stroke-linejoin="round" stroke-width="2.43103"/>
<path d="M20 130C20 69.2487 69.2487 20 130 20C190.751 20 240 69.2487 240 130C240 190.751 190.751 240 130 240C69.2487 240 20 190.751 20 130Z" fill="none" opacity="1" stroke="#ffffff" stroke-linecap="butt" stroke-linejoin="round" stroke-width="1.37344"/>
<path d="M115.338 233.982C115.338 232.365 112.366 211.326 106.244 199.299C103.821 194.538 102.883 193.082 102.544 192.492C98.8464 186.05 98.9197 185.827 97.3006 183.128C94.8065 178.972 92.3593 168.311 85.315 169.72C78.3272 171.117 86.1659 182.658 87.862 186.05C88.3421 187.01 90.3518 189.628 89.2104 190.769C85.521 194.459 75.5737 189.307 71.7563 187.398C60.8921 181.966 55.9385 169.402 52.2048 158.408C50.8564 154.438 46.5124 153.501 44.6389 154.438C42.6282 155.443 43.1474 158.783 43.4095 160.356C44.2923 165.652 46.7228 171.998 49.5359 176.686C57.2167 189.488 70.1997 202.158 77.0441 206.125C79.4344 207.51 83.3397 210.247 87.5646 212.123C91.3558 213.807 95.4043 214.517 98.8464 217.637C102.109 220.593 100.994 228.18 100.994 230.732" fill="none" opacity="1" stroke="#ffffff" stroke-linecap="round" stroke-linejoin="round" stroke-width="3.6211"/>
<path d="M144.561 234.276C144.561 232.658 147.533 211.326 153.655 199.299C156.078 194.538 157.016 193.082 157.355 192.492C161.053 186.05 160.98 185.827 162.599 183.128C165.093 178.972 167.54 168.311 174.585 169.72C181.572 171.117 173.734 182.658 172.038 186.05C171.557 187.01 169.548 189.628 170.689 190.769C174.379 194.459 184.326 189.307 188.143 187.398C199.007 181.966 203.961 169.402 207.695 158.408C209.043 154.438 213.387 153.501 215.261 154.438C217.271 155.443 216.752 158.783 216.49 160.356C215.607 165.652 213.177 171.998 210.364 176.686C202.683 189.488 189.7 202.158 182.856 206.125C180.465 207.51 176.56 210.247 172.335 212.123C168.544 213.807 164.495 214.517 161.053 217.637C157.791 220.593 158.906 228.18 158.906 230.732" fill="none" opacity="1" stroke="#ffffff" stroke-linecap="round" stroke-linejoin="round" stroke-width="3.6211"/>
</g>
</g>
</svg>
