<?xml version="1.0" encoding="UTF-8" standalone="no"?>
<!DOCTYPE svg PUBLIC "-//W3C//DTD SVG 1.1//EN" "http://www.w3.org/Graphics/SVG/1.1/DTD/svg11.dtd">
<!-- Created with Linearity Curve (http://linearity.io/curve) -->
<svg height="1080.0000000000002px" stroke-miterlimit="10" style="fill-rule:nonzero;clip-rule:evenodd;stroke-linecap:round;stroke-linejoin:round;" version="1.1" viewBox="0 0 1480 1080" width="1480.0px" xml:space="preserve" xmlns="http://www.w3.org/2000/svg" xmlns:xlink="http://www.w3.org/1999/xlink">
<defs>
<filter color-interpolation-filters="sRGB" filterUnits="userSpaceOnUse" height="99.7187" id="Filter" width="1138.48" x="170.189" y="826.88">
<feGaussianBlur in="SourceGraphic" result="Blur" stdDeviation="0.391537"/>
</filter>
</defs>
<g id="Subtitle">
<g opacity="1">
<g fill="#4a3a33" opacity="1" stroke="none">
<path d="M536.96 999.345L536.96 965.014L543.043 965.014L551.568 986.788C551.767 987.295 551.994 987.924 552.247 988.677C552.501 989.43 552.774 990.236 553.065 991.096C553.357 991.957 553.634 992.809 553.895 993.654C554.156 994.499 554.379 995.267 554.563 995.958L553.595 995.958C553.795 995.297 554.025 994.552 554.287 993.723C554.548 992.894 554.82 992.045 555.104 991.177C555.389 990.309 555.665 989.487 555.934 988.712C556.203 987.936 556.437 987.295 556.637 986.788L565.024 965.014L571.129 965.014L571.129 999.345L566.867 999.345L566.867 979.668C566.867 978.962 566.871 978.159 566.878 977.26C566.886 976.362 566.901 975.429 566.924 974.461C566.947 973.493 566.97 972.506 566.994 971.5C567.017 970.494 567.036 969.523 567.051 968.586L567.466 968.586C567.143 969.645 566.798 970.713 566.429 971.788C566.06 972.863 565.707 973.9 565.369 974.899C565.031 975.897 564.713 976.803 564.413 977.618C564.113 978.432 563.856 979.115 563.641 979.668L555.899 999.345L552.19 999.345L544.333 979.668C544.118 979.131 543.868 978.462 543.584 977.664C543.3 976.865 542.985 975.974 542.639 974.991C542.294 974.008 541.933 972.971 541.557 971.88C541.18 970.79 540.8 969.691 540.416 968.586L540.9 968.586C540.931 969.446 540.957 970.364 540.981 971.339C541.004 972.314 541.023 973.297 541.038 974.288C541.053 975.279 541.069 976.235 541.084 977.157C541.1 978.078 541.107 978.915 541.107 979.668L541.107 999.345L536.96 999.345Z"/>
<path d="M587.977 999.898C586.349 999.898 584.878 999.598 583.565 998.999C582.252 998.4 581.207 997.517 580.432 996.35C579.656 995.182 579.268 993.761 579.268 992.087C579.268 990.628 579.556 989.445 580.132 988.539C580.708 987.633 581.476 986.914 582.436 986.385C583.396 985.855 584.464 985.459 585.639 985.198C586.814 984.937 588 984.729 589.199 984.576C590.75 984.376 591.998 984.223 592.943 984.115C593.887 984.007 594.586 983.827 595.039 983.574C595.493 983.32 595.719 982.878 595.719 982.249L595.719 982.087C595.719 981.058 595.516 980.175 595.109 979.438C594.701 978.7 594.099 978.136 593.3 977.744C592.501 977.353 591.51 977.157 590.328 977.157C589.114 977.157 588.073 977.345 587.206 977.721C586.338 978.098 585.631 978.581 585.086 979.173C584.54 979.764 584.16 980.39 583.945 981.051L579.959 980.014C580.481 978.462 581.273 977.214 582.332 976.27C583.392 975.325 584.61 974.634 585.984 974.196C587.359 973.758 588.776 973.539 590.235 973.539C591.218 973.539 592.263 973.666 593.369 973.919C594.475 974.173 595.516 974.615 596.491 975.244C597.466 975.874 598.261 976.769 598.876 977.929C599.49 979.088 599.797 980.582 599.797 982.41L599.797 999.345L595.765 999.345L595.765 995.843L595.535 995.843C595.243 996.442 594.782 997.056 594.152 997.686C593.523 998.316 592.701 998.842 591.687 999.264C590.673 999.687 589.437 999.898 587.977 999.898ZM588.646 996.257C590.197 996.257 591.495 995.962 592.539 995.37C593.584 994.779 594.375 994.007 594.913 993.055C595.45 992.102 595.719 991.104 595.719 990.06L595.719 986.603C595.55 986.788 595.201 986.957 594.671 987.11C594.141 987.264 593.526 987.402 592.827 987.525C592.129 987.648 591.437 987.752 590.754 987.836C590.07 987.921 589.49 987.994 589.014 988.055C588.031 988.178 587.11 988.389 586.249 988.689C585.389 988.988 584.698 989.422 584.176 989.99C583.653 990.559 583.392 991.327 583.392 992.294C583.392 993.155 583.619 993.88 584.072 994.472C584.525 995.063 585.143 995.509 585.927 995.808C586.71 996.108 587.616 996.257 588.646 996.257Z"/>
<path d="M617.567 999.898C615.816 999.898 614.249 999.633 612.867 999.103C611.484 998.573 610.348 997.786 609.457 996.741C608.566 995.697 607.99 994.407 607.729 992.87L611.646 992.133C611.968 993.562 612.632 994.618 613.639 995.301C614.645 995.985 615.939 996.327 617.521 996.327C619.287 996.327 620.697 995.946 621.749 995.186C622.801 994.426 623.327 993.516 623.327 992.456C623.327 991.565 623.008 990.828 622.371 990.244C621.734 989.66 620.8 989.23 619.572 988.954L615.355 987.94C613.036 987.402 611.308 986.553 610.171 985.394C609.034 984.234 608.466 982.756 608.466 980.958C608.466 979.499 608.869 978.213 609.676 977.099C610.482 975.985 611.592 975.114 613.005 974.484C614.418 973.854 616.031 973.539 617.844 973.539C619.595 973.539 621.1 973.816 622.359 974.369C623.619 974.922 624.637 975.69 625.412 976.673C626.188 977.656 626.73 978.793 627.037 980.083L623.281 980.843C623.005 979.845 622.44 978.958 621.588 978.182C620.735 977.406 619.495 977.018 617.867 977.018C616.33 977.018 615.067 977.372 614.076 978.078C613.086 978.785 612.59 979.676 612.59 980.751C612.59 981.703 612.936 982.464 613.627 983.032C614.318 983.6 615.378 984.054 616.807 984.391L620.701 985.313C623.035 985.866 624.76 986.715 625.873 987.859C626.987 989.003 627.544 990.459 627.544 992.225C627.544 993.731 627.121 995.059 626.276 996.211C625.432 997.363 624.26 998.266 622.763 998.919C621.265 999.572 619.533 999.898 617.567 999.898Z"/>
<path d="M644.046 999.898C642.295 999.898 640.728 999.633 639.346 999.103C637.963 998.573 636.827 997.786 635.936 996.741C635.045 995.697 634.469 994.407 634.208 992.87L638.125 992.133C638.447 993.562 639.112 994.618 640.118 995.301C641.124 995.985 642.418 996.327 644 996.327C645.766 996.327 647.176 995.946 648.228 995.186C649.28 994.426 649.806 993.516 649.806 992.456C649.806 991.565 649.488 990.828 648.85 990.244C648.213 989.66 647.28 989.23 646.051 988.954L641.834 987.94C639.515 987.402 637.787 986.553 636.65 985.394C635.513 984.234 634.945 982.756 634.945 980.958C634.945 979.499 635.348 978.213 636.155 977.099C636.961 975.985 638.071 975.114 639.484 974.484C640.897 973.854 642.51 973.539 644.323 973.539C646.074 973.539 647.579 973.816 648.839 974.369C650.098 974.922 651.116 975.69 651.891 976.673C652.667 977.656 653.209 978.793 653.516 980.083L649.76 980.843C649.484 979.845 648.919 978.958 648.067 978.182C647.214 977.406 645.974 977.018 644.346 977.018C642.81 977.018 641.546 977.372 640.555 978.078C639.565 978.785 639.069 979.676 639.069 980.751C639.069 981.703 639.415 982.464 640.106 983.032C640.797 983.6 641.857 984.054 643.286 984.391L647.18 985.313C649.514 985.866 651.239 986.715 652.352 987.859C653.466 989.003 654.023 990.459 654.023 992.225C654.023 993.731 653.6 995.059 652.756 996.211C651.911 997.363 650.739 998.266 649.242 998.919C647.744 999.572 646.012 999.898 644.046 999.898Z"/>
<path d="M672.23 999.898C669.911 999.898 667.879 999.349 666.136 998.251C664.393 997.152 663.033 995.612 662.058 993.631C661.082 991.649 660.595 989.361 660.595 986.765C660.595 984.123 661.082 981.807 662.058 979.818C663.033 977.829 664.393 976.285 666.136 975.187C667.879 974.088 669.911 973.539 672.23 973.539C674.55 973.539 676.585 974.088 678.336 975.187C680.087 976.285 681.45 977.829 682.426 979.818C683.401 981.807 683.889 984.123 683.889 986.765C683.889 989.361 683.401 991.649 682.426 993.631C681.45 995.612 680.087 997.152 678.336 998.251C676.585 999.349 674.55 999.898 672.23 999.898ZM672.23 996.234C673.92 996.234 675.322 995.804 676.435 994.944C677.549 994.084 678.378 992.936 678.924 991.5C679.469 990.063 679.742 988.485 679.742 986.765C679.742 985.029 679.469 983.435 678.924 981.984C678.378 980.532 677.549 979.372 676.435 978.505C675.322 977.637 673.92 977.203 672.23 977.203C670.556 977.203 669.166 977.637 668.06 978.505C666.954 979.372 666.124 980.528 665.571 981.972C665.018 983.416 664.742 985.014 664.742 986.765C664.742 988.485 665.018 990.063 665.571 991.5C666.124 992.936 666.95 994.084 668.048 994.944C669.147 995.804 670.541 996.234 672.23 996.234Z"/>
<path d="M701.981 973.908L701.981 977.41L688.687 977.41L688.687 973.908L701.981 973.908ZM692.65 967.664L696.751 967.664L696.751 992.847C696.751 993.938 696.977 994.733 697.431 995.232C697.884 995.731 698.648 995.981 699.723 995.981C700 995.981 700.341 995.958 700.748 995.912C701.155 995.866 701.528 995.82 701.866 995.774L702.534 999.23C702.104 999.353 701.624 999.445 701.094 999.506C700.564 999.568 700.046 999.598 699.539 999.598C697.342 999.598 695.645 999.038 694.447 997.916C693.249 996.795 692.65 995.213 692.65 993.17L692.65 967.664Z"/>
<path d="M713.23 984.184L713.23 999.345L709.129 999.345L709.129 965.014L713.23 965.014L713.23 980.06L712.401 980.06C713.184 977.725 714.298 976.055 715.742 975.048C717.186 974.042 718.883 973.539 720.834 973.539C722.554 973.539 724.075 973.896 725.396 974.611C726.717 975.325 727.75 976.4 728.495 977.836C729.24 979.273 729.612 981.081 729.612 983.262L729.612 999.345L725.488 999.345L725.488 983.585C725.488 981.588 724.973 980.033 723.944 978.919C722.915 977.806 721.502 977.249 719.705 977.249C718.476 977.249 717.374 977.51 716.398 978.032C715.423 978.554 714.651 979.33 714.083 980.359C713.514 981.389 713.23 982.663 713.23 984.184Z"/>
<path d="M749.34 999.898C746.883 999.898 744.763 999.345 742.981 998.239C741.199 997.133 739.832 995.597 738.88 993.631C737.928 991.665 737.451 989.384 737.451 986.788C737.451 984.192 737.924 981.895 738.868 979.899C739.813 977.902 741.149 976.343 742.877 975.221C744.606 974.1 746.614 973.539 748.903 973.539C750.347 973.539 751.737 973.781 753.073 974.265C754.409 974.749 755.608 975.509 756.667 976.546C757.727 977.583 758.564 978.915 759.179 980.544C759.793 982.172 760.1 984.115 760.1 986.373L760.1 987.963L740.101 987.963L740.101 984.507L757.865 984.507L755.999 985.751C755.999 984.077 755.727 982.594 755.181 981.304C754.636 980.014 753.837 979.004 752.785 978.274C751.733 977.545 750.439 977.18 748.903 977.18C747.382 977.18 746.072 977.548 744.974 978.286C743.876 979.023 743.035 980.002 742.451 981.223C741.868 982.445 741.576 983.785 741.576 985.244L741.576 987.41C741.576 989.268 741.894 990.858 742.532 992.179C743.169 993.5 744.076 994.506 745.251 995.198C746.426 995.889 747.797 996.234 749.363 996.234C750.408 996.234 751.349 996.081 752.186 995.774C753.023 995.466 753.741 995.013 754.34 994.414C754.939 993.815 755.392 993.078 755.7 992.202L759.686 993.078C759.302 994.414 758.634 995.597 757.681 996.626C756.729 997.655 755.542 998.458 754.121 999.034C752.701 999.61 751.107 999.898 749.34 999.898ZM747.036 970.59L750.262 963.793L754.87 963.793L750.4 970.59L747.036 970.59Z"/>
<path d="M767.847 999.345L767.847 973.908L771.787 973.908L771.787 977.825L772.018 977.825C772.494 976.535 773.316 975.498 774.483 974.714C775.651 973.931 776.995 973.539 778.515 973.539C778.838 973.539 779.199 973.547 779.598 973.562C779.998 973.578 780.305 973.593 780.52 973.608L780.52 977.733C780.397 977.702 780.094 977.656 779.61 977.594C779.126 977.533 778.607 977.502 778.054 977.502C776.902 977.502 775.862 977.748 774.932 978.24C774.003 978.731 773.274 979.422 772.744 980.313C772.214 981.204 771.949 982.256 771.949 983.47L771.949 999.345L767.847 999.345Z"/>
<path d="M794.257 999.898C792.629 999.898 791.158 999.598 789.845 998.999C788.532 998.4 787.487 997.517 786.712 996.35C785.936 995.182 785.548 993.761 785.548 992.087C785.548 990.628 785.836 989.445 786.412 988.539C786.988 987.633 787.756 986.914 788.716 986.385C789.676 985.855 790.744 985.459 791.919 985.198C793.094 984.937 794.28 984.729 795.479 984.576C797.03 984.376 798.278 984.223 799.223 984.115C800.167 984.007 800.866 983.827 801.319 983.574C801.773 983.32 801.999 982.878 801.999 982.249L801.999 982.087C801.999 981.058 801.796 980.175 801.388 979.438C800.981 978.7 800.379 978.136 799.58 977.744C798.781 977.353 797.79 977.157 796.608 977.157C795.394 977.157 794.353 977.345 793.486 977.721C792.618 978.098 791.911 978.581 791.366 979.173C790.82 979.764 790.44 980.39 790.225 981.051L786.239 980.014C786.761 978.462 787.553 977.214 788.612 976.27C789.672 975.325 790.89 974.634 792.264 974.196C793.639 973.758 795.056 973.539 796.515 973.539C797.498 973.539 798.543 973.666 799.649 973.919C800.755 974.173 801.796 974.615 802.771 975.244C803.746 975.874 804.541 976.769 805.156 977.929C805.77 979.088 806.077 980.582 806.077 982.41L806.077 999.345L802.045 999.345L802.045 995.843L801.815 995.843C801.523 996.442 801.062 997.056 800.432 997.686C799.803 998.316 798.981 998.842 797.967 999.264C796.953 999.687 795.717 999.898 794.257 999.898ZM794.926 996.257C796.477 996.257 797.775 995.962 798.819 995.37C799.864 994.779 800.655 994.007 801.193 993.055C801.73 992.102 801.999 991.104 801.999 990.06L801.999 986.603C801.83 986.788 801.481 986.957 800.951 987.11C800.421 987.264 799.806 987.402 799.107 987.525C798.409 987.648 797.717 987.752 797.034 987.836C796.35 987.921 795.77 987.994 795.294 988.055C794.311 988.178 793.39 988.389 792.529 988.689C791.669 988.988 790.978 989.422 790.456 989.99C789.933 990.559 789.672 991.327 789.672 992.294C789.672 993.155 789.899 993.88 790.352 994.472C790.805 995.063 791.423 995.509 792.207 995.808C792.99 996.108 793.896 996.257 794.926 996.257Z"/>
<path d="M815.161 1008.98L815.161 973.908L819.124 973.908L819.124 977.917L819.492 977.917C819.83 977.349 820.291 976.727 820.875 976.051C821.458 975.375 822.242 974.787 823.225 974.288C824.208 973.789 825.468 973.539 827.004 973.539C829.154 973.539 831.04 974.077 832.66 975.152C834.281 976.227 835.552 977.748 836.473 979.714C837.395 981.68 837.856 984 837.856 986.673C837.856 989.361 837.399 991.692 836.485 993.665C835.571 995.639 834.304 997.168 832.683 998.251C831.063 999.333 829.177 999.875 827.027 999.875C825.537 999.875 824.296 999.625 823.306 999.126C822.315 998.627 821.524 998.032 820.932 997.34C820.341 996.649 819.869 996.012 819.515 995.428L819.262 995.428L819.262 1008.98L815.161 1008.98ZM826.405 996.211C827.971 996.211 829.296 995.797 830.379 994.967C831.462 994.138 832.284 993.001 832.844 991.557C833.405 990.113 833.685 988.477 833.685 986.649C833.685 984.822 833.409 983.197 832.856 981.776C832.303 980.356 831.485 979.238 830.402 978.424C829.319 977.61 827.987 977.203 826.405 977.203C824.838 977.203 823.517 977.598 822.441 978.389C821.366 979.18 820.548 980.283 819.988 981.696C819.427 983.109 819.147 984.76 819.147 986.649C819.147 988.539 819.427 990.202 819.988 991.638C820.548 993.074 821.374 994.195 822.465 995.002C823.555 995.808 824.868 996.211 826.405 996.211Z"/>
<path d="M856.34 999.898C853.882 999.898 851.762 999.345 849.98 998.239C848.199 997.133 846.832 995.597 845.879 993.631C844.927 991.665 844.451 989.384 844.451 986.788C844.451 984.192 844.923 981.895 845.868 979.899C846.812 977.902 848.149 976.343 849.877 975.221C851.605 974.1 853.613 973.539 855.902 973.539C857.346 973.539 858.736 973.781 860.072 974.265C861.409 974.749 862.607 975.509 863.667 976.546C864.727 977.583 865.564 978.915 866.178 980.544C866.793 982.172 867.1 984.115 867.1 986.373L867.1 987.963L847.1 987.963L847.1 984.507L864.865 984.507L862.999 985.751C862.999 984.077 862.726 982.594 862.181 981.304C861.635 980.014 860.837 979.004 859.784 978.274C858.732 977.545 857.438 977.18 855.902 977.18C854.381 977.18 853.072 977.548 851.973 978.286C850.875 979.023 850.034 980.002 849.451 981.223C848.867 982.445 848.575 983.785 848.575 985.244L848.575 987.41C848.575 989.268 848.894 990.858 849.531 992.179C850.169 993.5 851.075 994.506 852.25 995.198C853.425 995.889 854.796 996.234 856.363 996.234C857.407 996.234 858.348 996.081 859.185 995.774C860.022 995.466 860.741 995.013 861.34 994.414C861.939 993.815 862.392 993.078 862.699 992.202L866.685 993.078C866.301 994.414 865.633 995.597 864.68 996.626C863.728 997.655 862.542 998.458 861.121 999.034C859.7 999.61 858.106 999.898 856.34 999.898Z"/>
<path d="M883.625 999.691C881.905 999.691 880.384 999.333 879.063 998.619C877.742 997.905 876.709 996.83 875.964 995.393C875.219 993.957 874.847 992.156 874.847 989.99L874.847 973.908L878.948 973.908L878.948 989.645C878.948 991.657 879.466 993.22 880.503 994.334C881.54 995.447 882.957 996.004 884.754 996.004C885.968 996.004 887.062 995.739 888.038 995.209C889.013 994.679 889.785 993.9 890.353 992.87C890.921 991.841 891.206 990.574 891.206 989.069L891.206 973.908L895.33 973.908L895.33 999.345L891.367 999.345L891.367 993.17L892.035 993.17C891.236 995.536 890.107 997.214 888.648 998.204C887.189 999.195 885.515 999.691 883.625 999.691Z"/>
<path d="M914.666 973.908L914.666 977.41L901.372 977.41L901.372 973.908L914.666 973.908ZM905.335 967.664L909.436 967.664L909.436 992.847C909.436 993.938 909.663 994.733 910.116 995.232C910.569 995.731 911.333 995.981 912.408 995.981C912.685 995.981 913.027 995.958 913.434 995.912C913.841 995.866 914.213 995.82 914.551 995.774L915.219 999.23C914.789 999.353 914.309 999.445 913.779 999.506C913.249 999.568 912.731 999.598 912.224 999.598C910.028 999.598 908.33 999.038 907.132 997.916C905.934 996.795 905.335 995.213 905.335 993.17L905.335 967.664Z"/>
<path d="M931.998 999.898C929.541 999.898 927.421 999.345 925.639 998.239C923.857 997.133 922.49 995.597 921.538 993.631C920.585 991.665 920.109 989.384 920.109 986.788C920.109 984.192 920.582 981.895 921.526 979.899C922.471 977.902 923.807 976.343 925.535 975.221C927.263 974.1 929.272 973.539 931.561 973.539C933.004 973.539 934.395 973.781 935.731 974.265C937.067 974.749 938.265 975.509 939.325 976.546C940.385 977.583 941.222 978.915 941.837 980.544C942.451 982.172 942.758 984.115 942.758 986.373L942.758 987.963L922.759 987.963L922.759 984.507L940.523 984.507L938.657 985.751C938.657 984.077 938.384 982.594 937.839 981.304C937.294 980.014 936.495 979.004 935.443 978.274C934.391 977.545 933.097 977.18 931.561 977.18C930.04 977.18 928.73 977.548 927.632 978.286C926.534 979.023 925.693 980.002 925.109 981.223C924.525 982.445 924.234 983.785 924.234 985.244L924.234 987.41C924.234 989.268 924.552 990.858 925.19 992.179C925.827 993.5 926.734 994.506 927.909 995.198C929.084 995.889 930.455 996.234 932.021 996.234C933.066 996.234 934.007 996.081 934.844 995.774C935.681 995.466 936.399 995.013 936.998 994.414C937.597 993.815 938.05 993.078 938.358 992.202L942.344 993.078C941.96 994.414 941.291 995.597 940.339 996.626C939.387 997.655 938.2 998.458 936.779 999.034C935.358 999.61 933.765 999.898 931.998 999.898Z"/>
</g>
<path d="M960 982.632L1002.5 982.632" fill="none" opacity="1" stroke="#4a3a33" stroke-linecap="butt" stroke-linejoin="round" stroke-width="3.01556"/>
<path d="M477.5 982.632L520 982.632" fill="none" opacity="1" stroke="#4a3a33" stroke-linecap="butt" stroke-linejoin="round" stroke-width="3.01556"/>
</g>
</g>
<g id="Title">
<g opacity="1">
<path d="M60 889.882L145.001 889.882" fill="none" opacity="1" stroke="#4a3a33" stroke-linecap="butt" stroke-linejoin="round" stroke-width="6.32631"/>
<path d="M1335 889.882L1420 889.882" fill="none" opacity="1" stroke="#4a3a33" stroke-linecap="butt" stroke-linejoin="round" stroke-width="6.32631"/>
<g fill="#4a3a33" filter="url(#Filter)" opacity="1" stroke="none">
<path d="M200.991 841.178L200.992 843.517C198.341 843.595 196.333 843.888 194.969 844.395C193.605 844.902 192.689 845.838 192.221 847.202C191.754 848.567 191.52 850.691 191.521 853.576L191.53 911.583C191.53 914.389 191.765 916.494 192.233 917.898C192.701 919.301 193.617 920.217 194.981 920.646C196.346 921.074 198.354 921.288 201.004 921.288L209.542 921.287C213.206 921.286 216.188 920.896 218.488 920.116C220.788 919.336 222.62 918.107 223.984 916.431C225.348 914.754 226.381 912.513 227.082 909.706C227.783 906.899 228.329 903.468 228.718 899.414L231.408 899.414C231.174 901.831 231.058 905.027 231.058 909.003C231.059 910.485 231.117 912.609 231.235 915.377C231.352 918.145 231.567 921.01 231.879 923.973C227.903 923.817 223.42 923.721 218.43 923.683C213.44 923.644 208.996 923.626 205.098 923.626C203.383 923.627 201.18 923.627 198.49 923.627C195.801 923.628 192.896 923.648 189.778 923.687C186.659 923.727 183.501 923.766 180.305 923.806C177.108 923.845 174.068 923.904 171.183 923.983L171.182 921.644C173.833 921.487 175.841 921.175 177.205 920.707C178.57 920.239 179.485 919.303 179.953 917.9C180.421 916.496 180.654 914.391 180.654 911.584L180.644 853.578C180.644 850.693 180.41 848.568 179.942 847.204C179.474 845.84 178.557 844.904 177.193 844.398C175.828 843.891 173.821 843.599 171.17 843.522L171.169 841.183C172.807 841.26 174.951 841.338 177.602 841.416C180.253 841.493 183.098 841.532 186.139 841.531C188.868 841.531 191.577 841.491 194.267 841.413C196.957 841.334 199.198 841.256 200.991 841.178Z"/>
<path d="M266.837 862.101C273.698 862.1 279.059 864.185 282.919 868.355C286.779 872.526 288.709 879.016 288.711 887.826L247.428 887.833L247.31 885.611L277.483 885.606C277.639 881.786 277.326 878.258 276.546 875.022C275.766 871.787 274.537 869.195 272.861 867.246C271.184 865.297 269.021 864.323 266.37 864.323C262.783 864.324 259.606 866.118 256.839 869.704C254.072 873.291 252.416 878.983 251.872 886.78L252.223 887.248C252.067 888.417 251.95 889.703 251.872 891.107C251.795 892.51 251.756 893.914 251.756 895.317C251.757 900.619 252.615 905.18 254.331 909C256.047 912.82 258.289 915.724 261.057 917.711C263.825 919.699 266.691 920.693 269.653 920.692C271.992 920.692 274.214 920.321 276.319 919.58C278.424 918.839 280.373 917.611 282.166 915.895C283.959 914.18 285.518 911.879 286.843 908.994L289.182 909.93C288.325 912.503 286.922 914.998 284.973 917.415C283.024 919.832 280.569 921.801 277.606 923.322C274.644 924.843 271.213 925.604 267.315 925.604C261.702 925.605 256.887 924.32 252.871 921.747C248.856 919.175 245.775 915.609 243.631 911.048C241.486 906.487 240.413 901.244 240.412 895.319C240.411 888.458 241.501 882.552 243.684 877.601C245.866 872.649 248.945 868.829 252.921 866.138C256.897 863.448 261.535 862.102 266.837 862.101Z"/>
<path d="M318.529 862.093C321.647 862.092 324.298 862.599 326.481 863.612C328.665 864.625 330.263 865.56 331.277 866.418C333.85 868.523 335.409 867.119 335.954 862.207L338.644 862.207C338.488 864.39 338.372 866.982 338.294 869.984C338.217 872.985 338.178 877.02 338.179 882.088L335.489 882.088C335.021 879.204 334.222 876.397 333.091 873.668C331.96 870.94 330.302 868.699 328.119 866.945C325.936 865.191 323.09 864.314 319.581 864.315C316.853 864.315 314.572 865.076 312.74 866.596C310.908 868.117 309.993 870.359 309.993 873.321C309.993 875.66 310.695 877.668 312.099 879.344C313.503 881.02 315.335 882.579 317.596 884.021C319.858 885.463 322.314 887.041 324.965 888.756C327.928 890.627 330.618 892.537 333.035 894.485C335.453 896.434 337.383 898.578 338.825 900.917C340.268 903.255 340.99 906.023 340.99 909.22C340.991 912.806 340.056 915.808 338.185 918.225C336.314 920.642 333.878 922.475 330.877 923.723C327.875 924.971 324.581 925.595 320.995 925.596C319.279 925.596 317.662 925.46 316.141 925.187C314.621 924.915 313.159 924.505 311.755 923.96C310.976 923.57 310.177 923.103 309.358 922.557C308.539 922.011 307.74 921.427 306.96 920.803C306.18 920.179 305.479 920.199 304.855 920.862C304.231 921.525 303.764 922.831 303.452 924.78L300.762 924.78C300.918 922.285 301.034 919.245 301.112 915.658C301.189 912.072 301.227 907.316 301.226 901.39L303.916 901.39C304.463 905.756 305.243 909.576 306.257 912.851C307.271 916.125 308.87 918.678 311.053 920.51C313.237 922.342 316.277 923.257 320.176 923.257C321.735 923.257 323.314 922.906 324.912 922.204C326.51 921.502 327.855 920.332 328.946 918.694C330.037 917.057 330.583 914.874 330.582 912.145C330.582 908.715 329.334 905.908 326.839 903.725C324.343 901.543 321.185 899.243 317.365 896.827C314.558 895.034 311.926 893.241 309.47 891.448C307.014 889.656 305.025 887.629 303.504 885.368C301.984 883.107 301.223 880.379 301.223 877.182C301.222 873.674 302.021 870.808 303.619 868.586C305.217 866.364 307.341 864.726 309.992 863.673C312.642 862.62 315.488 862.093 318.529 862.093Z"/>
<path d="M472.547 841.134L472.547 843.473C469.897 843.552 467.889 843.844 466.525 844.351C465.16 844.858 464.244 845.794 463.777 847.158C463.309 848.523 463.076 850.648 463.076 853.532L463.085 911.539C463.086 914.346 463.32 916.451 463.788 917.854C464.256 919.257 465.172 920.193 466.537 920.66C467.901 921.128 469.909 921.44 472.56 921.595L472.56 923.934C470.767 923.778 468.526 923.681 465.836 923.643C463.146 923.604 460.437 923.585 457.708 923.586C454.667 923.586 451.821 923.606 449.17 923.645C446.52 923.685 444.376 923.783 442.738 923.939L442.738 921.6C445.389 921.443 447.396 921.131 448.761 920.663C450.125 920.195 451.041 919.26 451.509 917.856C451.976 916.453 452.21 914.347 452.209 911.541L452.199 847.219L452.667 847.57L424.027 924.527L422.155 924.527L392.672 848.632L392.682 910.381C392.682 913.188 392.936 915.39 393.443 916.988C393.95 918.587 394.964 919.717 396.484 920.379C398.005 921.042 400.285 921.451 403.326 921.606L403.327 923.945C401.923 923.789 400.091 923.692 397.83 923.654C395.569 923.615 393.425 923.596 391.398 923.596C389.449 923.597 387.48 923.616 385.492 923.656C383.504 923.695 381.847 923.793 380.521 923.949L380.521 921.61C383.172 921.453 385.179 921.044 386.544 920.381C387.908 919.718 388.824 918.587 389.292 916.989C389.759 915.391 389.993 913.188 389.992 910.381L389.983 853.544C389.983 850.659 389.748 848.535 389.28 847.17C388.812 845.806 387.896 844.871 386.532 844.364C385.167 843.858 383.159 843.565 380.509 843.488L380.508 841.149C381.834 841.227 383.49 841.304 385.478 841.382C387.467 841.46 389.435 841.498 391.384 841.498C393.1 841.498 394.873 841.459 396.706 841.38C398.538 841.302 400.078 841.224 401.325 841.146L427.884 911.077L425.896 912.013L452.198 841.488C453.133 841.488 454.05 841.488 454.946 841.488C455.843 841.488 456.759 841.488 457.694 841.487C460.423 841.487 463.133 841.448 465.822 841.369C468.512 841.291 470.754 841.212 472.547 841.134Z"/>
<path d="M496.886 924.749C493.689 924.749 490.921 924.145 488.582 922.937C486.243 921.729 484.469 920.034 483.26 917.851C482.051 915.668 481.447 913.134 481.446 910.25C481.446 906.819 482.244 904.012 483.842 901.829C485.44 899.646 487.487 897.891 489.981 896.565C492.476 895.239 495.107 894.128 497.875 893.231C500.642 892.334 503.274 891.476 505.768 890.657C508.263 889.838 510.31 888.882 511.908 887.79C513.506 886.699 514.305 885.256 514.305 883.463L514.303 876.212C514.303 872.938 513.815 870.443 512.84 868.728C511.865 867.013 510.559 865.863 508.922 865.278C507.285 864.694 505.452 864.402 503.425 864.402C501.476 864.402 499.391 864.676 497.169 865.222C494.947 865.768 493.173 866.899 491.848 868.614C493.329 868.926 494.616 869.705 495.708 870.952C496.799 872.2 497.345 873.798 497.346 875.747C497.346 877.696 496.723 879.236 495.475 880.367C494.228 881.498 492.63 882.063 490.681 882.063C488.42 882.064 486.763 881.343 485.71 879.901C484.657 878.458 484.131 876.841 484.13 875.047C484.13 873.02 484.637 871.383 485.65 870.135C486.663 868.888 487.95 867.718 489.509 866.626C491.302 865.379 493.621 864.306 496.467 863.409C499.312 862.512 502.528 862.063 506.115 862.063C509.311 862.062 512.04 862.432 514.301 863.172C516.562 863.913 518.434 864.984 519.915 866.387C521.943 868.258 523.269 870.539 523.893 873.228C524.517 875.918 524.829 879.134 524.83 882.877L524.835 915.388C524.835 917.337 525.128 918.741 525.713 919.598C526.298 920.456 527.214 920.885 528.461 920.884C529.319 920.884 530.138 920.689 530.917 920.299C531.697 919.909 532.632 919.285 533.724 918.428L535.01 920.415C533.373 921.663 531.814 922.696 530.333 923.515C528.852 924.334 526.864 924.744 524.369 924.744C522.108 924.745 520.237 924.355 518.755 923.576C517.274 922.796 516.162 921.646 515.421 920.126C514.681 918.606 514.31 916.676 514.31 914.337C512.205 917.846 509.691 920.459 506.768 922.174C503.844 923.89 500.55 924.748 496.886 924.749ZM501.095 920.07C503.668 920.07 506.065 919.329 508.287 917.847C510.509 916.365 512.516 914.143 514.309 911.18L514.305 888.258C513.37 889.583 512.006 890.695 510.213 891.592C508.42 892.488 506.471 893.385 504.366 894.282C502.261 895.179 500.253 896.232 498.343 897.441C496.433 898.65 494.855 900.229 493.608 902.178C492.36 904.127 491.737 906.661 491.738 909.78C491.738 912.899 492.577 915.394 494.253 917.264C495.93 919.135 498.21 920.071 501.095 920.07Z"/>
<path d="M551.837 834.455C553.864 834.455 555.619 835.195 557.1 836.676C558.582 838.158 559.323 839.912 559.323 841.939C559.324 843.966 558.583 845.72 557.102 847.202C555.621 848.683 553.867 849.424 551.84 849.425C549.813 849.425 548.058 848.685 546.577 847.204C545.095 845.722 544.354 843.968 544.354 841.941C544.353 839.914 545.094 838.16 546.575 836.678C548.056 835.197 549.81 834.456 551.837 834.455ZM557.923 862.405L557.931 913.044C557.932 916.319 558.614 918.54 559.979 919.71C561.344 920.879 563.624 921.463 566.821 921.463L566.821 923.919C565.496 923.841 563.488 923.744 560.798 923.627C558.108 923.511 555.399 923.453 552.67 923.453C550.019 923.454 547.33 923.513 544.601 923.63C541.872 923.747 539.845 923.845 538.52 923.923L538.519 921.467C541.716 921.467 543.996 920.882 545.36 919.712C546.725 918.542 547.406 916.32 547.406 913.046L547.4 876.441C547.399 872.932 546.775 870.34 545.528 868.664C544.28 866.988 541.941 866.15 538.51 866.151L538.51 863.695C541.005 863.928 543.422 864.045 545.761 864.044C548.022 864.044 550.185 863.907 552.251 863.634C554.317 863.361 556.208 862.951 557.923 862.405Z"/>
<path d="M612.07 862.046C615.033 862.045 617.509 862.434 619.497 863.214C621.485 863.993 623.142 865.084 624.468 866.488C625.949 868.047 627.002 869.996 627.626 872.335C628.25 874.673 628.563 877.831 628.563 881.807L628.568 913.033C628.569 916.307 629.252 918.529 630.616 919.698C631.981 920.868 634.261 921.452 637.458 921.452L637.458 923.907C636.133 923.83 634.106 923.733 631.377 923.616C628.648 923.5 625.997 923.442 623.424 923.442C620.851 923.442 618.337 923.501 615.881 923.619C613.425 923.736 611.574 923.834 610.326 923.912L610.326 921.456C613.133 921.455 615.121 920.87 616.29 919.701C617.459 918.531 618.044 916.309 618.043 913.034L618.038 879.236C618.037 876.819 617.842 874.597 617.452 872.57C617.062 870.543 616.184 868.906 614.82 867.659C613.455 866.411 611.369 865.788 608.563 865.788C605.288 865.789 602.423 866.725 599.967 868.597C597.512 870.468 595.602 873.022 594.238 876.258C592.874 879.494 592.193 883.1 592.193 887.076L592.197 913.038C592.198 916.313 592.783 918.535 593.953 919.704C595.122 920.874 597.111 921.458 599.917 921.458L599.918 923.913C598.67 923.836 596.819 923.739 594.363 923.622C591.907 923.505 589.392 923.447 586.819 923.448C584.246 923.448 581.596 923.507 578.867 923.625C576.138 923.742 574.111 923.84 572.786 923.918L572.785 921.462C575.982 921.461 578.262 920.876 579.626 919.707C580.991 918.537 581.672 916.315 581.672 913.04L581.666 876.435C581.665 872.927 581.041 870.334 579.794 868.658C578.546 866.982 576.207 866.145 572.776 866.145L572.776 863.689C575.271 863.923 577.688 864.039 580.027 864.039C582.288 864.038 584.451 863.902 586.517 863.628C588.583 863.355 590.474 862.946 592.189 862.4L592.191 876.2C594.218 870.898 597.043 867.213 600.668 865.147C604.293 863.08 608.094 862.046 612.07 862.046Z"/>
<path d="M663.528 862.037C666.647 862.037 669.298 862.543 671.481 863.556C673.664 864.57 675.262 865.505 676.276 866.362C678.849 868.467 680.408 867.063 680.953 862.151L683.643 862.151C683.488 864.334 683.371 866.926 683.294 869.928C683.216 872.93 683.178 876.965 683.179 882.032L680.489 882.033C680.021 879.148 679.221 876.341 678.09 873.613C676.959 870.884 675.302 868.643 673.119 866.889C670.935 865.135 668.089 864.259 664.581 864.259C661.852 864.26 659.572 865.02 657.74 866.541C655.908 868.061 654.992 870.303 654.993 873.266C654.993 875.605 655.695 877.612 657.099 879.288C658.502 880.964 660.335 882.523 662.596 883.965C664.857 885.407 667.313 886.986 669.964 888.701C672.927 890.571 675.618 892.481 678.035 894.43C680.452 896.379 682.382 898.522 683.825 900.861C685.268 903.2 685.989 905.967 685.99 909.164C685.99 912.751 685.055 915.752 683.184 918.17C681.314 920.587 678.878 922.419 675.876 923.667C672.875 924.915 669.581 925.54 665.994 925.54C664.279 925.54 662.661 925.404 661.141 925.132C659.62 924.859 658.158 924.45 656.755 923.904C655.975 923.515 655.176 923.047 654.357 922.501C653.538 921.956 652.739 921.371 651.959 920.747C651.18 920.124 650.478 920.143 649.854 920.806C649.231 921.469 648.763 922.775 648.452 924.724L645.762 924.725C645.917 922.23 646.034 919.189 646.111 915.603C646.189 912.016 646.227 907.26 646.226 901.335L648.916 901.334C649.462 905.7 650.242 909.521 651.257 912.795C652.271 916.069 653.869 918.623 656.053 920.454C658.236 922.286 661.277 923.202 665.175 923.201C666.734 923.201 668.313 922.85 669.911 922.148C671.51 921.446 672.854 920.276 673.946 918.639C675.037 917.001 675.582 914.818 675.582 912.089C675.581 908.659 674.333 905.852 671.838 903.67C669.343 901.487 666.185 899.188 662.364 896.771C659.557 894.979 656.925 893.186 654.469 891.393C652.013 889.6 650.024 887.573 648.504 885.313C646.983 883.052 646.222 880.323 646.222 877.126C646.221 873.618 647.02 870.753 648.618 868.53C650.216 866.308 652.34 864.67 654.991 863.617C657.642 862.564 660.487 862.038 663.528 862.037Z"/>
<path d="M777.198 832.197L777.21 911.138C777.211 914.646 777.854 917.238 779.141 918.914C780.428 920.59 782.748 921.428 786.1 921.428L786.1 923.884C783.683 923.65 781.267 923.533 778.85 923.534C776.589 923.534 774.425 923.651 772.359 923.886C770.293 924.12 768.402 924.549 766.687 925.173L766.674 846.233C766.674 842.724 766.05 840.132 764.802 838.456C763.554 836.78 761.215 835.942 757.785 835.942L757.784 833.487C760.279 833.72 762.696 833.837 765.035 833.836C767.296 833.836 769.46 833.699 771.526 833.426C773.592 833.153 775.482 832.743 777.198 832.197ZM752.643 862.023C756.074 862.022 759.29 862.84 762.292 864.477C765.294 866.114 767.302 868.921 768.316 872.897L766.796 874.066C765.704 870.792 764.008 868.414 761.707 866.933C759.407 865.452 756.698 864.712 753.579 864.713C748.979 864.713 745.14 867.092 742.061 871.848C738.982 876.605 737.482 883.934 737.562 893.835C737.563 900.151 738.168 905.394 739.377 909.565C740.586 913.736 742.38 916.854 744.758 918.92C747.136 920.986 750.041 922.018 753.471 922.018C756.746 922.017 759.708 920.613 762.359 917.806C765.009 914.999 766.607 910.866 767.152 905.409L768.555 907.046C767.933 912.971 766.043 917.533 762.886 920.73C759.728 923.927 755.46 925.526 750.08 925.527C745.247 925.527 741.017 924.359 737.391 922.02C733.765 919.682 730.997 916.174 729.086 911.496C727.175 906.818 726.219 900.932 726.218 893.837C726.217 886.742 727.444 880.836 729.899 876.119C732.354 871.402 735.589 867.873 739.604 865.533C743.619 863.194 747.965 862.024 752.643 862.023Z"/>
<path d="M820.357 862.012C827.218 862.011 832.578 864.096 836.438 868.266C840.298 872.437 842.229 878.927 842.23 887.737L800.947 887.744L800.83 885.522L831.003 885.517C831.158 881.697 830.846 878.169 830.065 874.933C829.285 871.698 828.057 869.106 826.38 867.157C824.704 865.208 822.54 864.234 819.889 864.234C816.303 864.235 813.126 866.028 810.359 869.615C807.591 873.202 805.936 878.894 805.391 886.691L805.742 887.158C805.586 888.328 805.469 889.614 805.392 891.018C805.314 892.421 805.275 893.825 805.275 895.228C805.276 900.53 806.135 905.09 807.851 908.911C809.566 912.731 811.808 915.634 814.577 917.622C817.345 919.61 820.21 920.603 823.173 920.603C825.512 920.603 827.734 920.232 829.839 919.491C831.944 918.75 833.893 917.522 835.686 915.806C837.478 914.091 839.037 911.79 840.362 908.905L842.701 909.841C841.844 912.414 840.441 914.909 838.493 917.326C836.544 919.743 834.088 921.712 831.126 923.233C828.163 924.754 824.733 925.515 820.835 925.515C815.221 925.516 810.406 924.23 806.391 921.658C802.375 919.086 799.295 915.52 797.15 910.959C795.005 906.398 793.932 901.155 793.931 895.23C793.93 888.369 795.021 882.463 797.203 877.511C799.385 872.56 802.464 868.739 806.44 866.049C810.416 863.359 815.055 862.013 820.357 862.012Z"/>
<path d="M906.778 839.778C910.677 839.777 913.639 840.225 915.667 841.121C917.694 842.018 919.487 843.011 921.047 844.103C921.982 844.648 922.743 845.057 923.327 845.33C923.912 845.603 924.477 845.739 925.023 845.739C925.803 845.739 926.368 845.31 926.719 844.453C927.069 843.595 927.362 842.308 927.595 840.593L930.285 840.593C930.207 841.918 930.11 843.497 929.993 845.329C929.877 847.161 929.799 849.578 929.761 852.58C929.722 855.582 929.703 859.538 929.704 864.45L927.014 864.451C926.78 860.708 925.961 857.122 924.557 853.692C923.153 850.262 921.106 847.455 918.416 845.273C915.725 843.09 912.197 841.999 907.831 842C903.699 842 900.288 843.248 897.599 845.744C894.909 848.239 893.565 851.514 893.566 855.568C893.566 859.076 894.463 862.02 896.257 864.397C898.05 866.775 900.448 868.919 903.45 870.828C906.452 872.738 909.708 874.784 913.216 876.967C917.271 879.461 920.877 881.936 924.035 884.391C927.193 886.846 929.689 889.555 931.521 892.518C933.354 895.48 934.271 899.066 934.271 903.277C934.272 908.266 933.142 912.399 930.882 915.674C928.621 918.949 925.62 921.405 921.878 923.043C918.136 924.681 914.004 925.5 909.482 925.501C905.35 925.502 902.075 925.034 899.658 924.099C897.241 923.164 895.175 922.19 893.459 921.176C891.744 920.085 890.418 919.54 889.483 919.54C888.703 919.54 888.138 919.969 887.787 920.826C887.436 921.684 887.144 922.971 886.911 924.686L884.221 924.686C884.376 923.049 884.474 921.119 884.512 918.897C884.551 916.675 884.589 913.771 884.628 910.185C884.666 906.598 884.685 902.076 884.684 896.619L887.374 896.618C887.686 901.296 888.564 905.662 890.007 909.716C891.45 913.77 893.673 917.025 896.675 919.48C899.677 921.936 903.673 923.163 908.663 923.162C911.236 923.162 913.672 922.635 915.972 921.582C918.272 920.529 920.162 918.853 921.643 916.552C923.124 914.252 923.864 911.27 923.864 907.605C923.863 904.409 923.103 901.622 921.582 899.244C920.061 896.866 917.936 894.645 915.207 892.579C912.478 890.513 909.281 888.389 905.616 886.207C901.951 883.946 898.521 881.647 895.324 879.308C892.127 876.97 889.573 874.261 887.662 871.182C885.751 868.102 884.796 864.38 884.795 860.013C884.794 855.413 885.827 851.612 887.892 848.61C889.958 845.608 892.667 843.386 896.019 841.943C899.372 840.5 902.958 839.778 906.778 839.778Z"/>
<path d="M971.805 861.988C978.666 861.987 984.027 864.071 987.887 868.242C991.747 872.412 993.678 878.903 993.679 887.713L952.396 887.72L952.279 885.497L982.452 885.493C982.607 881.672 982.294 878.144 981.514 874.909C980.734 871.673 979.506 869.081 977.829 867.132C976.153 865.184 973.989 864.209 971.338 864.21C967.752 864.21 964.575 866.004 961.808 869.591C959.04 873.178 957.384 878.87 956.84 886.666L957.191 887.134C957.035 888.304 956.918 889.59 956.841 890.993C956.763 892.397 956.724 893.8 956.724 895.204C956.725 900.505 957.584 905.066 959.299 908.886C961.015 912.706 963.257 915.61 966.025 917.598C968.794 919.585 971.659 920.579 974.622 920.579C976.961 920.578 979.183 920.208 981.288 919.466C983.393 918.725 985.341 917.497 987.134 915.782C988.927 914.066 990.486 911.766 991.811 908.881L994.15 909.816C993.293 912.389 991.89 914.884 989.941 917.302C987.993 919.719 985.537 921.688 982.575 923.209C979.612 924.729 976.182 925.49 972.283 925.491C966.67 925.492 961.855 924.206 957.84 921.634C953.824 919.062 950.744 915.495 948.599 910.934C946.454 906.374 945.381 901.131 945.38 895.205C945.379 888.344 946.47 882.438 948.652 877.487C950.834 872.536 953.913 868.715 957.889 866.025C961.865 863.334 966.504 861.988 971.805 861.988ZM984.197 828.772C985.132 829.552 985.659 830.565 985.776 831.813C985.893 833.06 985.367 834.463 984.198 836.023C983.029 837.504 981.586 838.986 979.871 840.468C978.156 841.949 976.149 843.723 973.849 845.79C971.55 847.856 968.841 850.527 965.723 853.802L964.436 852.75C966.852 848.929 968.782 845.654 970.224 842.925C971.665 840.196 972.893 837.818 973.906 835.791C974.92 833.763 976.011 832.009 977.18 830.527C978.349 828.968 979.577 828.11 980.863 827.954C982.15 827.798 983.261 828.071 984.197 828.772Z"/>
<path d="M1038.93 861.977C1041.04 861.976 1042.89 862.405 1044.49 863.262C1046.09 864.12 1047.34 865.231 1048.23 866.595C1049.13 867.959 1049.58 869.499 1049.58 871.214C1049.58 873.163 1048.97 874.879 1047.77 876.36C1046.56 877.842 1044.94 878.583 1042.91 878.583C1041.28 878.583 1039.83 878.057 1038.59 877.005C1037.34 875.952 1036.71 874.452 1036.71 872.503C1036.71 871.021 1037.12 869.754 1037.94 868.702C1038.76 867.649 1039.68 866.811 1040.69 866.187C1040.14 865.407 1039.32 865.017 1038.23 865.018C1035.82 865.018 1033.59 865.74 1031.57 867.182C1029.54 868.625 1027.83 870.477 1026.42 872.738C1025.02 874.999 1023.93 877.397 1023.15 879.931C1022.37 882.465 1021.98 884.824 1021.98 887.007L1021.98 911.8C1021.99 915.62 1023.1 918.173 1025.32 919.459C1027.54 920.745 1030.56 921.388 1034.38 921.388L1034.38 923.844C1032.59 923.766 1030.06 923.669 1026.78 923.552C1023.51 923.436 1020.04 923.378 1016.37 923.379C1013.72 923.379 1011.09 923.438 1008.48 923.555C1005.87 923.673 1003.9 923.77 1002.57 923.849L1002.57 921.393C1005.77 921.392 1008.05 920.807 1009.41 919.637C1010.78 918.468 1011.46 916.246 1011.46 912.971L1011.45 876.366C1011.45 872.857 1010.83 870.265 1009.58 868.589C1008.33 866.913 1005.99 866.075 1002.56 866.076L1002.56 863.62C1005.06 863.853 1007.48 863.97 1009.81 863.97C1012.08 863.969 1014.24 863.832 1016.3 863.559C1018.37 863.286 1020.26 862.876 1021.98 862.33L1021.98 876.949C1022.84 874.688 1024.06 872.407 1025.66 870.107C1027.26 867.807 1029.19 865.877 1031.45 864.317C1033.71 862.757 1036.21 861.977 1038.93 861.977Z"/>
<path d="M1080.68 861.97C1087.55 861.969 1092.91 864.054 1096.77 868.224C1100.63 872.395 1102.56 878.885 1102.56 887.695L1061.28 887.702L1061.16 885.48L1091.33 885.475C1091.49 881.655 1091.17 878.127 1090.39 874.891C1089.61 871.656 1088.39 869.064 1086.71 867.115C1085.03 865.166 1082.87 864.192 1080.22 864.192C1076.63 864.193 1073.45 865.986 1070.69 869.573C1067.92 873.16 1066.26 878.852 1065.72 886.649L1066.07 887.116C1065.91 888.286 1065.8 889.572 1065.72 890.976C1065.64 892.379 1065.6 893.783 1065.6 895.186C1065.6 900.488 1066.46 905.049 1068.18 908.869C1069.89 912.689 1072.14 915.593 1074.9 917.58C1077.67 919.568 1080.54 920.562 1083.5 920.561C1085.84 920.561 1088.06 920.19 1090.17 919.449C1092.27 918.708 1094.22 917.48 1096.01 915.764C1097.81 914.049 1099.37 911.748 1100.69 908.863L1103.03 909.799C1102.17 912.372 1100.77 914.867 1098.82 917.284C1096.87 919.701 1094.42 921.67 1091.45 923.191C1088.49 924.712 1085.06 925.473 1081.16 925.473C1075.55 925.474 1070.73 924.189 1066.72 921.616C1062.7 919.044 1059.62 915.478 1057.48 910.917C1055.33 906.356 1054.26 901.113 1054.26 895.188C1054.26 888.327 1055.35 882.421 1057.53 877.47C1059.71 872.518 1062.79 868.698 1066.77 866.007C1070.74 863.317 1075.38 861.971 1080.68 861.97ZM1093.08 828.755C1094.01 829.534 1094.54 830.548 1094.66 831.795C1094.77 833.042 1094.25 834.446 1093.08 836.005C1091.91 837.487 1090.47 838.969 1088.75 840.45C1087.04 841.932 1085.03 843.706 1082.73 845.772C1080.43 847.839 1077.72 850.51 1074.6 853.785L1073.32 852.732C1075.73 848.912 1077.66 845.637 1079.1 842.908C1080.54 840.179 1081.77 837.8 1082.79 835.773C1083.8 833.746 1084.89 831.991 1086.06 830.51C1087.23 828.95 1088.46 828.093 1089.74 827.936C1091.03 827.78 1092.14 828.053 1093.08 828.755Z"/>
<path d="M1150.74 861.959C1153.7 861.958 1156.18 862.348 1158.16 863.127C1160.15 863.906 1161.81 864.998 1163.13 866.401C1164.62 867.96 1165.67 869.909 1166.29 872.248C1166.92 874.587 1167.23 877.744 1167.23 881.721L1167.24 912.946C1167.24 916.22 1167.92 918.442 1169.28 919.612C1170.65 920.781 1172.93 921.365 1176.12 921.365L1176.13 923.821C1174.8 923.743 1172.77 923.646 1170.04 923.529C1167.32 923.413 1164.66 923.355 1162.09 923.355C1159.52 923.356 1157 923.414 1154.55 923.532C1152.09 923.649 1150.24 923.747 1148.99 923.825L1148.99 921.369C1151.8 921.369 1153.79 920.784 1154.96 919.614C1156.13 918.444 1156.71 916.222 1156.71 912.948L1156.7 879.149C1156.7 876.732 1156.51 874.51 1156.12 872.483C1155.73 870.456 1154.85 868.819 1153.49 867.572C1152.12 866.325 1150.04 865.701 1147.23 865.702C1143.95 865.702 1141.09 866.638 1138.63 868.51C1136.18 870.381 1134.27 872.935 1132.9 876.171C1131.54 879.407 1130.86 883.013 1130.86 886.989L1130.86 912.952C1130.86 916.226 1131.45 918.448 1132.62 919.618C1133.79 920.787 1135.78 921.371 1138.58 921.371L1138.58 923.827C1137.34 923.749 1135.49 923.652 1133.03 923.535C1130.57 923.419 1128.06 923.361 1125.49 923.361C1122.91 923.361 1120.26 923.42 1117.53 923.538C1114.8 923.655 1112.78 923.753 1111.45 923.831L1111.45 921.375C1114.65 921.375 1116.93 920.79 1118.29 919.62C1119.66 918.45 1120.34 916.228 1120.34 912.953L1120.33 876.348C1120.33 872.84 1119.71 870.248 1118.46 868.572C1117.21 866.896 1114.87 866.058 1111.44 866.058L1111.44 863.602C1113.94 863.836 1116.35 863.952 1118.69 863.952C1120.95 863.952 1123.12 863.815 1125.18 863.542C1127.25 863.269 1129.14 862.859 1130.86 862.313L1130.86 876.113C1132.88 870.811 1135.71 867.126 1139.34 865.06C1142.96 862.993 1146.76 861.959 1150.74 861.959Z"/>
<path d="M1194.59 834.352C1196.62 834.351 1198.37 835.092 1199.85 836.573C1201.33 838.054 1202.07 839.808 1202.07 841.835C1202.08 843.862 1201.33 845.617 1199.85 847.098C1198.37 848.58 1196.62 849.321 1194.59 849.321C1192.56 849.322 1190.81 848.581 1189.33 847.1C1187.85 845.619 1187.11 843.865 1187.11 841.838C1187.1 839.811 1187.85 838.056 1189.33 836.575C1190.81 835.093 1192.56 834.352 1194.59 834.352ZM1200.67 862.302L1200.68 912.94C1200.68 916.215 1201.37 918.437 1202.73 919.606C1204.1 920.776 1206.38 921.36 1209.57 921.359L1209.57 923.815C1208.25 923.738 1206.24 923.64 1203.55 923.524C1200.86 923.407 1198.15 923.349 1195.42 923.35C1192.77 923.35 1190.08 923.409 1187.35 923.527C1184.62 923.644 1182.6 923.742 1181.27 923.82L1181.27 921.364C1184.47 921.363 1186.75 920.778 1188.11 919.609C1189.48 918.439 1190.16 916.217 1190.16 912.942L1190.15 876.337C1190.15 872.829 1189.53 870.236 1188.28 868.56C1187.03 866.884 1184.69 866.047 1181.26 866.047L1181.26 863.591C1183.76 863.825 1186.17 863.941 1188.51 863.941C1190.77 863.94 1192.94 863.804 1195 863.53C1197.07 863.257 1198.96 862.848 1200.67 862.302Z"/>
<path d="M1234.35 844.169L1234.36 863.7L1251.66 863.697L1251.66 866.036L1234.36 866.039L1234.36 911.298C1234.36 914.962 1235.03 917.535 1236.35 919.016C1237.68 920.497 1239.51 921.238 1241.85 921.237C1244.19 921.237 1246.22 920.281 1247.93 918.371C1249.65 916.461 1251.13 913.244 1252.37 908.722L1254.71 909.306C1253.93 913.829 1252.39 917.649 1250.09 920.768C1247.8 923.887 1244.27 925.447 1239.51 925.448C1236.86 925.448 1234.68 925.117 1232.96 924.455C1231.25 923.792 1229.73 922.837 1228.4 921.59C1226.69 919.797 1225.5 917.653 1224.83 915.159C1224.17 912.664 1223.84 909.35 1223.84 905.218L1223.83 866.04L1212.6 866.042L1212.6 863.703L1223.83 863.701L1223.83 845.808C1225.78 845.73 1227.65 845.574 1229.44 845.339C1231.23 845.105 1232.87 844.715 1234.35 844.169Z"/>
<path d="M1285.35 861.937C1292.21 861.936 1297.57 864.021 1301.43 868.191C1305.29 872.362 1307.22 878.852 1307.22 887.662L1265.94 887.669L1265.82 885.447L1295.99 885.442C1296.15 881.622 1295.83 878.094 1295.05 874.858C1294.27 871.623 1293.05 869.031 1291.37 867.082C1289.69 865.133 1287.53 864.159 1284.88 864.159C1281.29 864.16 1278.11 865.954 1275.35 869.54C1272.58 873.127 1270.92 878.819 1270.38 886.616L1270.73 887.083C1270.58 888.253 1270.46 889.539 1270.38 890.943C1270.3 892.346 1270.26 893.75 1270.26 895.153C1270.27 900.455 1271.12 905.016 1272.84 908.836C1274.56 912.656 1276.8 915.56 1279.57 917.547C1282.33 919.535 1285.2 920.529 1288.16 920.528C1290.5 920.528 1292.72 920.157 1294.83 919.416C1296.93 918.675 1298.88 917.447 1300.67 915.731C1302.47 914.016 1304.03 911.715 1305.35 908.83L1307.69 909.766C1306.83 912.339 1305.43 914.834 1303.48 917.251C1301.53 919.668 1299.08 921.637 1296.11 923.158C1293.15 924.679 1289.72 925.44 1285.82 925.44C1280.21 925.441 1275.4 924.156 1271.38 921.583C1267.36 919.011 1264.28 915.445 1262.14 910.884C1259.99 906.323 1258.92 901.08 1258.92 895.155C1258.92 888.294 1260.01 882.388 1262.19 877.437C1264.37 872.485 1267.45 868.665 1271.43 865.974C1275.41 863.284 1280.04 861.938 1285.35 861.937ZM1297.74 828.722C1298.67 829.501 1299.2 830.515 1299.32 831.762C1299.43 833.009 1298.91 834.413 1297.74 835.972C1296.57 837.454 1295.13 838.936 1293.41 840.417C1291.7 841.899 1289.69 843.673 1287.39 845.739C1285.09 847.806 1282.38 850.477 1279.26 853.752L1277.98 852.699C1280.39 848.879 1282.32 845.604 1283.76 842.875C1285.21 840.146 1286.43 837.767 1287.45 835.74C1288.46 833.713 1289.55 831.959 1290.72 830.477C1291.89 828.917 1293.12 828.06 1294.4 827.904C1295.69 827.747 1296.8 828.02 1297.74 828.722Z"/>
</g>
</g>
</g>
<g id="Logo">
<g opacity="1">
<path d="M665.396 383.68C658.483 383.68 619.389 372.401 616.509 375.282C610.62 381.171 624.928 411.998 631.609 422.861C651.978 455.98 710.054 482.303 755.371 477.554C803.004 472.563 836.957 454.995 860.942 414.571C866.38 405.407 877.27 386.643 871.739 375.582C871.373 374.849 868.484 375.282 867.84 375.282C856.729 375.282 844.879 379.181 833.35 379.181" fill="none" opacity="1" stroke="#4a3a33" stroke-linecap="round" stroke-linejoin="round" stroke-width="10.3113"/>
<path d="M826.752 407.673C829.231 400.605 830.747 392.699 831.85 386.079C834.257 371.638 833.316 358.883 830.95 344.69C830.522 342.117 827.838 324.296 823.752 324.296C815.628 324.296 790.235 338.206 781.464 342.591" fill="none" opacity="1" stroke="#4a3a33" stroke-linecap="round" stroke-linejoin="round" stroke-width="10.3113"/>
<path d="M746.973 476.654C755.377 467.871 762.54 458.898 766.768 453.261C780.989 434.3 794.555 404.237 791.061 379.781C787.452 354.518 775.872 330.136 760.47 309.6C758.787 307.356 744.659 291.262 742.175 292.504C735.614 295.785 728.637 304.061 722.022 312.398C700.112 340.017 687.598 378.057 699.64 411.872C702.104 418.793 711.002 441.958 718.781 450.077" fill="none" opacity="1" stroke="#4a3a33" stroke-linecap="round" stroke-linejoin="round" stroke-width="10.3113"/>
<path d="M655.798 356.987C655.798 354.02 656.372 348.205 658.796 340.927C661.476 332.877 664.575 324.966 664.785 324.896C665.832 324.547 677.338 327.339 686.461 332.677C694.145 337.172 698.95 340.927 702.302 343.874" fill="none" opacity="1" stroke="#4a3a33" stroke-linecap="round" stroke-linejoin="round" stroke-width="10.3113"/>
<path d="M437.643 371.59C437.643 204.603 573.013 69.2331 740 69.2331C906.987 69.2331 1042.36 204.603 1042.36 371.59C1042.36 538.578 906.987 673.948 740 673.948C573.013 673.948 437.643 538.578 437.643 371.59Z" fill="none" opacity="0.992624" stroke="#4a3a33" stroke-linecap="butt" stroke-linejoin="round" stroke-width="6.92252"/>
<path d="M426.768 372.119C426.768 199.126 567.007 58.8871 740 58.8871C912.993 58.8871 1053.23 199.126 1053.23 372.119C1053.23 545.113 912.993 685.351 740 685.351C567.007 685.351 426.768 545.113 426.768 372.119Z" fill="none" opacity="1" stroke="#4a3a33" stroke-linecap="butt" stroke-linejoin="round" stroke-width="3.91096"/>
<path d="M698.25 668.214C698.25 663.609 689.787 603.701 672.355 569.453C665.454 555.896 662.783 551.75 661.818 550.07C651.288 531.725 651.497 531.09 646.886 523.406C639.784 511.569 632.816 481.212 612.757 485.223C592.858 489.203 615.18 522.066 620.009 531.725C621.377 534.46 627.099 541.914 623.849 545.164C613.343 555.67 585.018 541 574.147 535.565C543.211 520.097 529.105 484.319 518.473 453.013C514.633 441.708 502.264 439.04 496.929 441.708C491.203 444.571 492.681 454.081 493.428 458.559C495.942 473.642 502.863 491.711 510.873 505.061C532.745 541.514 569.715 577.594 589.205 588.89C596.011 592.835 607.132 600.627 619.162 605.971C629.958 610.766 641.487 612.788 651.288 621.671C660.578 630.09 657.402 651.693 657.402 658.961" fill="none" opacity="1" stroke="#4a3a33" stroke-linecap="round" stroke-linejoin="round" stroke-width="10.3113"/>
<path d="M781.464 669.051C781.464 664.446 789.927 603.701 807.359 569.453C814.26 555.896 816.931 551.75 817.896 550.07C828.426 531.725 828.217 531.09 832.828 523.406C839.93 511.569 846.898 481.212 866.957 485.223C886.856 489.203 864.535 522.066 859.705 531.725C858.338 534.46 852.615 541.914 855.865 545.164C866.371 555.67 894.697 541 905.567 535.565C936.503 520.097 950.609 484.319 961.241 453.013C965.081 441.708 977.451 439.04 982.785 441.708C988.511 444.571 987.033 454.081 986.286 458.559C983.772 473.642 976.851 491.711 968.841 505.061C946.969 541.514 909.999 577.594 890.51 588.89C883.703 592.835 872.582 600.627 860.552 605.971C849.756 610.766 838.228 612.788 828.426 621.671C819.136 630.09 822.312 651.693 822.312 658.961" fill="none" opacity="1" stroke="#4a3a33" stroke-linecap="round" stroke-linejoin="round" stroke-width="10.3113"/>
</g>
</g>
</svg>
